<ttFont>
    <TTGlyph name="A" xMin="-10" yMin="-23" xMax="561" yMax="760">
      <contour>
        <pt x="95" y="16" on="1"/>
        <pt x="92" y="14" on="0"/>
        <pt x="86" y="10" on="0"/>
        <pt x="83" y="8" on="1"/>
        <pt x="72" y="2" on="0"/>
        <pt x="54" y="1" on="0"/>
        <pt x="43" y="-9" on="1"/>
        <pt x="39" y="-4" on="0"/>
        <pt x="35" y="-4" on="0"/>
        <pt x="30" y="-4" on="1"/>
        <pt x="17" y="-4" on="0"/>
        <pt x="15" y="3" on="1"/>
        <pt x="11" y="2" on="0"/>
        <pt x="-6" y="-6" on="0"/>
        <pt x="-10" y="-8" on="1"/>
        <pt x="-1" y="5" on="0"/>
        <pt x="5" y="19" on="0"/>
        <pt x="6" y="31" on="0"/>
        <pt x="7" y="44" on="0"/>
        <pt x="11" y="56" on="1"/>
        <pt x="13" y="60" on="0"/>
        <pt x="15" y="68" on="0"/>
        <pt x="17" y="73" on="1"/>
        <pt x="22" y="88" on="0"/>
        <pt x="29" y="126" on="0"/>
        <pt x="37" y="140" on="1"/>
        <pt x="37" y="157" on="0"/>
        <pt x="52" y="187" on="0"/>
        <pt x="57" y="203" on="1"/>
        <pt x="59" y="209" on="0"/>
        <pt x="66" y="221" on="0"/>
        <pt x="68" y="227" on="1"/>
        <pt x="72" y="237" on="0"/>
        <pt x="77" y="256" on="0"/>
        <pt x="80" y="265" on="1"/>
        <pt x="88" y="294" on="0"/>
        <pt x="104" y="351" on="0"/>
        <pt x="111" y="380" on="1"/>
        <pt x="112" y="385" on="0"/>
        <pt x="115" y="397" on="0"/>
        <pt x="117" y="402" on="1"/>
        <pt x="122" y="417" on="0"/>
        <pt x="125" y="448" on="0"/>
        <pt x="133" y="462" on="1"/>
        <pt x="132" y="469" on="0"/>
        <pt x="135" y="481" on="0"/>
        <pt x="139" y="495" on="0"/>
        <pt x="143" y="507" on="0"/>
        <pt x="144" y="510" on="1"/>
        <pt x="149" y="523" on="0"/>
        <pt x="154" y="544" on="0"/>
        <pt x="162" y="556" on="1"/>
        <pt x="162" y="556" on="0"/>
        <pt x="168" y="577" on="0"/>
        <pt x="176" y="603" on="0"/>
        <pt x="182" y="626" on="0"/>
        <pt x="182" y="628" on="1"/>
        <pt x="184" y="636" on="0"/>
        <pt x="187" y="650" on="0"/>
        <pt x="189" y="658" on="1"/>
        <pt x="191" y="663" on="0"/>
        <pt x="195" y="670" on="0"/>
        <pt x="197" y="675" on="1"/>
        <pt x="200" y="686" on="0"/>
        <pt x="206" y="718" on="0"/>
        <pt x="211" y="727" on="1"/>
        <pt x="214" y="734" on="0"/>
        <pt x="231" y="743" on="0"/>
        <pt x="237" y="748" on="1"/>
        <pt x="255" y="746" on="0"/>
        <pt x="272" y="754" on="0"/>
        <pt x="280" y="760" on="1"/>
        <pt x="285" y="759" on="0"/>
        <pt x="294" y="756" on="0"/>
        <pt x="299" y="756" on="1"/>
        <pt x="318" y="735" on="0"/>
        <pt x="333" y="691" on="0"/>
        <pt x="340" y="669" on="1"/>
        <pt x="343" y="658" on="0"/>
        <pt x="349" y="637" on="0"/>
        <pt x="353" y="627" on="1"/>
        <pt x="354" y="624" on="0"/>
        <pt x="358" y="617" on="0"/>
        <pt x="360" y="613" on="1"/>
        <pt x="365" y="605" on="0"/>
        <pt x="372" y="587" on="0"/>
        <pt x="375" y="578" on="1"/>
        <pt x="381" y="571" on="0"/>
        <pt x="387" y="552" on="0"/>
        <pt x="392" y="533" on="0"/>
        <pt x="398" y="516" on="0"/>
        <pt x="404" y="510" on="1"/>
        <pt x="406" y="499" on="0"/>
        <pt x="416" y="478" on="0"/>
        <pt x="418" y="466" on="1"/>
        <pt x="424" y="458" on="0"/>
        <pt x="440" y="413" on="0"/>
        <pt x="456" y="361" on="0"/>
        <pt x="470" y="313" on="0"/>
        <pt x="473" y="303" on="1"/>
        <pt x="475" y="295" on="0"/>
        <pt x="487" y="270" on="0"/>
        <pt x="492" y="260" on="1"/>
        <pt x="496" y="249" on="0"/>
        <pt x="505" y="225" on="0"/>
        <pt x="508" y="214" on="1"/>
        <pt x="510" y="203" on="0"/>
        <pt x="515" y="183" on="0"/>
        <pt x="518" y="172" on="1"/>
        <pt x="520" y="165" on="0"/>
        <pt x="528" y="154" on="0"/>
        <pt x="530" y="146" on="1"/>
        <pt x="534" y="138" on="0"/>
        <pt x="537" y="124" on="0"/>
        <pt x="542" y="116" on="1"/>
        <pt x="541" y="105" on="0"/>
        <pt x="545" y="99" on="0"/>
        <pt x="547" y="95" on="1"/>
        <pt x="551" y="74" on="0"/>
        <pt x="561" y="49" on="0"/>
        <pt x="561" y="35" on="1"/>
        <pt x="561" y="23" on="0"/>
        <pt x="552" y="17" on="0"/>
        <pt x="545" y="10" on="1"/>
        <pt x="537" y="3" on="0"/>
        <pt x="526" y="-5" on="0"/>
        <pt x="515" y="-5" on="1"/>
        <pt x="503" y="-4" on="0"/>
        <pt x="498" y="-13" on="0"/>
        <pt x="497" y="-15" on="1"/>
        <pt x="485" y="-14" on="0"/>
        <pt x="478" y="-15" on="0"/>
        <pt x="471" y="-15" on="0"/>
        <pt x="464" y="-18" on="0"/>
        <pt x="460" y="-23" on="1"/>
        <pt x="453" y="-15" on="0"/>
        <pt x="440" y="-2" on="0"/>
        <pt x="435" y="6" on="1"/>
        <pt x="435" y="23" on="0"/>
        <pt x="426" y="69" on="0"/>
        <pt x="421" y="82" on="1"/>
        <pt x="411" y="108" on="0"/>
        <pt x="394" y="158" on="0"/>
        <pt x="386" y="184" on="1"/>
        <pt x="383" y="195" on="0"/>
        <pt x="376" y="213" on="0"/>
        <pt x="372" y="223" on="1"/>
        <pt x="374" y="215" on="0"/>
        <pt x="373" y="198" on="0"/>
        <pt x="368" y="190" on="1"/>
        <pt x="366" y="188" on="0"/>
        <pt x="358" y="182" on="0"/>
        <pt x="358" y="180" on="1"/>
        <pt x="346" y="170" on="0"/>
        <pt x="337" y="161" on="1"/>
        <pt x="338" y="143" on="0"/>
        <pt x="326" y="129" on="0"/>
        <pt x="319" y="123" on="1"/>
        <pt x="302" y="122" on="0"/>
        <pt x="294" y="128" on="0"/>
        <pt x="287" y="129" on="1"/>
        <pt x="283" y="130" on="0"/>
        <pt x="275" y="129" on="0"/>
        <pt x="271" y="129" on="1"/>
        <pt x="263" y="129" on="0"/>
        <pt x="256" y="133" on="1"/>
        <pt x="253" y="135" on="0"/>
        <pt x="250" y="139" on="0"/>
        <pt x="248" y="141" on="1"/>
        <pt x="240" y="149" on="0"/>
        <pt x="219" y="160" on="0"/>
        <pt x="209" y="164" on="1"/>
        <pt x="201" y="171" on="0"/>
        <pt x="184" y="186" on="0"/>
        <pt x="175" y="191" on="1"/>
        <pt x="167" y="172" on="0"/>
        <pt x="158" y="143" on="0"/>
        <pt x="152" y="129" on="1"/>
        <pt x="141" y="95" on="0"/>
        <pt x="127" y="44" on="0"/>
        <pt x="118" y="18" on="1"/>
        <pt x="114" y="17" on="0"/>
        <pt x="107" y="13" on="0"/>
        <pt x="102" y="13" on="1"/>
      </contour>
      <contour>
        <pt x="193" y="229" on="1"/>
        <pt x="201" y="243" on="0"/>
        <pt x="214" y="246" on="0"/>
        <pt x="219" y="252" on="1"/>
        <pt x="221" y="254" on="0"/>
        <pt x="226" y="260" on="0"/>
        <pt x="229" y="263" on="1"/>
        <pt x="232" y="265" on="0"/>
        <pt x="240" y="269" on="0"/>
        <pt x="243" y="272" on="1"/>
        <pt x="251" y="279" on="0"/>
        <pt x="262" y="289" on="0"/>
        <pt x="273" y="289" on="1"/>
        <pt x="290" y="289" on="0"/>
        <pt x="312" y="272" on="0"/>
        <pt x="328" y="269" on="1"/>
        <pt x="330" y="263" on="0"/>
        <pt x="352" y="258" on="0"/>
        <pt x="358" y="254" on="1"/>
        <pt x="348" y="279" on="0"/>
        <pt x="337" y="330" on="0"/>
        <pt x="329" y="355" on="1"/>
        <pt x="323" y="377" on="0"/>
        <pt x="307" y="420" on="0"/>
        <pt x="299" y="440" on="1"/>
        <pt x="292" y="460" on="0"/>
        <pt x="282" y="498" on="0"/>
        <pt x="274" y="516" on="1"/>
        <pt x="266" y="498" on="0"/>
        <pt x="250" y="446" on="0"/>
        <pt x="246" y="426" on="1"/>
        <pt x="246" y="417" on="0"/>
        <pt x="245" y="412" on="1"/>
        <pt x="243" y="405" on="0"/>
        <pt x="239" y="394" on="0"/>
        <pt x="237" y="388" on="1"/>
        <pt x="224" y="349" on="0"/>
        <pt x="203" y="269" on="0"/>
        <pt x="189" y="229" on="1"/>
      </contour>
    </TTGlyph>
    <TTGlyph name="AE" xMin="-3" yMin="-16" xMax="762" yMax="758">
      <contour>
        <pt x="374" y="239" on="1"/>
        <pt x="368" y="221" on="0"/>
        <pt x="368" y="202" on="0"/>
        <pt x="364" y="194" on="1"/>
        <pt x="361" y="188" on="0"/>
        <pt x="353" y="182" on="0"/>
        <pt x="355" y="176" on="1"/>
        <pt x="345" y="170" on="0"/>
        <pt x="338" y="158" on="1"/>
        <pt x="339" y="155" on="0"/>
        <pt x="340" y="150" on="0"/>
        <pt x="340" y="147" on="1"/>
        <pt x="340" y="139" on="0"/>
        <pt x="332" y="125" on="0"/>
        <pt x="327" y="118" on="1"/>
        <pt x="318" y="117" on="0"/>
        <pt x="314" y="120" on="0"/>
        <pt x="308" y="123" on="0"/>
        <pt x="299" y="126" on="0"/>
        <pt x="291" y="126" on="1"/>
        <pt x="279" y="131" on="0"/>
        <pt x="276" y="137" on="0"/>
        <pt x="274" y="139" on="1"/>
        <pt x="268" y="146" on="0"/>
        <pt x="252" y="160" on="0"/>
        <pt x="244" y="165" on="1"/>
        <pt x="239" y="171" on="0"/>
        <pt x="229" y="183" on="0"/>
        <pt x="224" y="189" on="1"/>
        <pt x="220" y="195" on="0"/>
        <pt x="212" y="200" on="0"/>
        <pt x="211" y="207" on="1"/>
        <pt x="211" y="213" on="0"/>
        <pt x="217" y="225" on="0"/>
        <pt x="221" y="228" on="1"/>
        <pt x="230" y="233" on="0"/>
        <pt x="232" y="239" on="0"/>
        <pt x="233" y="242" on="1"/>
        <pt x="237" y="244" on="0"/>
        <pt x="244" y="248" on="0"/>
        <pt x="247" y="250" on="1"/>
        <pt x="252" y="254" on="0"/>
        <pt x="256" y="264" on="0"/>
        <pt x="260" y="269" on="1"/>
        <pt x="262" y="272" on="0"/>
        <pt x="268" y="277" on="0"/>
        <pt x="270" y="281" on="1"/>
        <pt x="275" y="286" on="0"/>
        <pt x="284" y="298" on="0"/>
        <pt x="292" y="298" on="1"/>
        <pt x="305" y="298" on="0"/>
        <pt x="319" y="280" on="0"/>
        <pt x="332" y="276" on="1"/>
        <pt x="333" y="272" on="0"/>
        <pt x="347" y="265" on="0"/>
        <pt x="362" y="256" on="0"/>
        <pt x="374" y="246" on="0"/>
      </contour>
      <contour>
        <pt x="762" y="11" on="1"/>
        <pt x="762" y="4" on="0"/>
        <pt x="757" y="1" on="1"/>
        <pt x="749" y="1" on="0"/>
        <pt x="748" y="-4" on="0"/>
        <pt x="744" y="-6" on="1"/>
        <pt x="736" y="-10" on="0"/>
        <pt x="704" y="-9" on="0"/>
        <pt x="693" y="-9" on="1"/>
        <pt x="688" y="-9" on="0"/>
        <pt x="679" y="-9" on="0"/>
        <pt x="674" y="-11" on="1"/>
        <pt x="672" y="-12" on="0"/>
        <pt x="664" y="-16" on="0"/>
        <pt x="662" y="-16" on="1"/>
        <pt x="654" y="-16" on="0"/>
        <pt x="647" y="-11" on="0"/>
        <pt x="641" y="-10" on="1"/>
        <pt x="633" y="-1" on="0"/>
        <pt x="622" y="18" on="0"/>
        <pt x="614" y="28" on="1"/>
        <pt x="608" y="35" on="0"/>
        <pt x="594" y="46" on="0"/>
        <pt x="589" y="54" on="1"/>
        <pt x="573" y="75" on="0"/>
        <pt x="541" y="117" on="0"/>
        <pt x="524" y="137" on="1"/>
        <pt x="516" y="148" on="0"/>
        <pt x="499" y="166" on="0"/>
        <pt x="490" y="177" on="1"/>
        <pt x="482" y="187" on="0"/>
        <pt x="469" y="210" on="0"/>
        <pt x="462" y="221" on="1"/>
        <pt x="456" y="230" on="0"/>
        <pt x="435" y="259" on="0"/>
        <pt x="411" y="288" on="0"/>
        <pt x="388" y="314" on="0"/>
        <pt x="380" y="321" on="1"/>
        <pt x="379" y="327" on="0"/>
        <pt x="371" y="334" on="0"/>
        <pt x="366" y="337" on="1"/>
        <pt x="364" y="341" on="0"/>
        <pt x="360" y="348" on="0"/>
        <pt x="358" y="352" on="1"/>
        <pt x="347" y="379" on="0"/>
        <pt x="330" y="421" on="0"/>
        <pt x="322" y="442" on="1"/>
        <pt x="313" y="464" on="0"/>
        <pt x="299" y="508" on="0"/>
        <pt x="289" y="528" on="1"/>
        <pt x="283" y="520" on="0"/>
        <pt x="272" y="493" on="0"/>
        <pt x="261" y="465" on="0"/>
        <pt x="253" y="437" on="0"/>
        <pt x="252" y="427" on="1"/>
        <pt x="251" y="423" on="0"/>
        <pt x="252" y="417" on="0"/>
        <pt x="250" y="413" on="1"/>
        <pt x="248" y="406" on="0"/>
        <pt x="243" y="395" on="0"/>
        <pt x="241" y="390" on="1"/>
        <pt x="228" y="353" on="0"/>
        <pt x="208" y="279" on="0"/>
        <pt x="194" y="243" on="1"/>
        <pt x="188" y="229" on="0"/>
        <pt x="175" y="201" on="0"/>
        <pt x="169" y="187" on="1"/>
        <pt x="167" y="182" on="0"/>
        <pt x="165" y="172" on="0"/>
        <pt x="163" y="167" on="1"/>
        <pt x="159" y="158" on="0"/>
        <pt x="151" y="139" on="0"/>
        <pt x="146" y="130" on="1"/>
        <pt x="135" y="97" on="0"/>
        <pt x="120" y="47" on="0"/>
        <pt x="111" y="24" on="1"/>
        <pt x="109" y="23" on="0"/>
        <pt x="99" y="18" on="0"/>
        <pt x="98" y="18" on="1"/>
        <pt x="86" y="22" on="0"/>
        <pt x="79" y="14" on="0"/>
        <pt x="74" y="12" on="1"/>
        <pt x="63" y="7" on="0"/>
        <pt x="41" y="6" on="0"/>
        <pt x="32" y="-2" on="1"/>
        <pt x="29" y="2" on="0"/>
        <pt x="21" y="1" on="0"/>
        <pt x="16" y="1" on="1"/>
        <pt x="5" y="1" on="0"/>
        <pt x="7" y="8" on="0"/>
        <pt x="0" y="8" on="1"/>
        <pt x="-3" y="13" on="0"/>
        <pt x="-2" y="43" on="0"/>
        <pt x="2" y="54" on="1"/>
        <pt x="4" y="59" on="0"/>
        <pt x="6" y="67" on="0"/>
        <pt x="8" y="71" on="1"/>
        <pt x="13" y="87" on="0"/>
        <pt x="20" y="125" on="0"/>
        <pt x="30" y="138" on="1"/>
        <pt x="30" y="150" on="0"/>
        <pt x="38" y="166" on="0"/>
        <pt x="41" y="177" on="1"/>
        <pt x="49" y="188" on="0"/>
        <pt x="56" y="214" on="0"/>
        <pt x="65" y="225" on="1"/>
        <pt x="77" y="263" on="0"/>
        <pt x="102" y="340" on="0"/>
        <pt x="112" y="379" on="1"/>
        <pt x="115" y="390" on="0"/>
        <pt x="123" y="412" on="0"/>
        <pt x="125" y="423" on="1"/>
        <pt x="127" y="433" on="0"/>
        <pt x="130" y="452" on="0"/>
        <pt x="137" y="460" on="1"/>
        <pt x="136" y="470" on="0"/>
        <pt x="140" y="481" on="0"/>
        <pt x="145" y="494" on="0"/>
        <pt x="149" y="506" on="0"/>
        <pt x="150" y="508" on="1"/>
        <pt x="154" y="517" on="0"/>
        <pt x="159" y="540" on="0"/>
        <pt x="164" y="548" on="1"/>
        <pt x="171" y="559" on="0"/>
        <pt x="174" y="570" on="0"/>
        <pt x="176" y="575" on="1"/>
        <pt x="191" y="626" on="1"/>
        <pt x="194" y="634" on="0"/>
        <pt x="197" y="648" on="0"/>
        <pt x="200" y="656" on="1"/>
        <pt x="202" y="661" on="0"/>
        <pt x="205" y="669" on="0"/>
        <pt x="207" y="673" on="1"/>
        <pt x="210" y="683" on="0"/>
        <pt x="219" y="717" on="0"/>
        <pt x="223" y="725" on="1"/>
        <pt x="225" y="730" on="0"/>
        <pt x="243" y="738" on="0"/>
        <pt x="248" y="741" on="1"/>
        <pt x="278" y="740" on="0"/>
        <pt x="295" y="755" on="1"/>
        <pt x="303" y="753" on="0"/>
        <pt x="315" y="749" on="0"/>
        <pt x="323" y="751" on="1"/>
        <pt x="333" y="731" on="0"/>
        <pt x="348" y="688" on="0"/>
        <pt x="356" y="667" on="1"/>
        <pt x="360" y="656" on="0"/>
        <pt x="366" y="634" on="0"/>
        <pt x="371" y="625" on="1"/>
        <pt x="373" y="622" on="0"/>
        <pt x="377" y="615" on="0"/>
        <pt x="379" y="612" on="1"/>
        <pt x="389" y="595" on="0"/>
        <pt x="395" y="575" on="1"/>
        <pt x="402" y="569" on="0"/>
        <pt x="409" y="551" on="0"/>
        <pt x="414" y="532" on="0"/>
        <pt x="421" y="514" on="0"/>
        <pt x="428" y="508" on="1"/>
        <pt x="428" y="504" on="0"/>
        <pt x="430" y="498" on="0"/>
        <pt x="432" y="494" on="1"/>
        <pt x="448" y="521" on="0"/>
        <pt x="483" y="572" on="0"/>
        <pt x="501" y="598" on="1"/>
        <pt x="514" y="618" on="0"/>
        <pt x="539" y="655" on="0"/>
        <pt x="552" y="675" on="1"/>
        <pt x="558" y="684" on="0"/>
        <pt x="575" y="707" on="0"/>
        <pt x="594" y="731" on="0"/>
        <pt x="614" y="751" on="0"/>
        <pt x="624" y="757" on="1"/>
        <pt x="639" y="758" on="0"/>
        <pt x="649" y="743" on="0"/>
        <pt x="658" y="743" on="1"/>
        <pt x="672" y="740" on="0"/>
        <pt x="680" y="730" on="0"/>
        <pt x="685" y="725" on="1"/>
        <pt x="698" y="725" on="0"/>
        <pt x="716" y="715" on="0"/>
        <pt x="724" y="706" on="1"/>
        <pt x="721" y="695" on="0"/>
        <pt x="708" y="677" on="0"/>
        <pt x="703" y="668" on="1"/>
        <pt x="695" y="664" on="0"/>
        <pt x="689" y="650" on="0"/>
        <pt x="682" y="646" on="1"/>
        <pt x="672" y="629" on="0"/>
        <pt x="650" y="598" on="0"/>
        <pt x="639" y="583" on="1"/>
        <pt x="633" y="574" on="0"/>
        <pt x="619" y="560" on="0"/>
        <pt x="614" y="552" on="1"/>
        <pt x="612" y="549" on="0"/>
        <pt x="610" y="542" on="0"/>
        <pt x="608" y="539" on="1"/>
        <pt x="596" y="520" on="0"/>
        <pt x="567" y="487" on="0"/>
        <pt x="556" y="467" on="1"/>
        <pt x="552" y="460" on="0"/>
        <pt x="547" y="445" on="0"/>
        <pt x="543" y="438" on="1"/>
        <pt x="538" y="432" on="0"/>
        <pt x="523" y="412" on="0"/>
        <pt x="509" y="389" on="0"/>
        <pt x="499" y="368" on="0"/>
        <pt x="499" y="361" on="1"/>
        <pt x="500" y="356" on="0"/>
        <pt x="523" y="328" on="0"/>
        <pt x="551" y="295" on="0"/>
        <pt x="578" y="265" on="0"/>
        <pt x="582" y="262" on="1"/>
        <pt x="583" y="257" on="0"/>
        <pt x="609" y="225" on="0"/>
        <pt x="641" y="187" on="0"/>
        <pt x="671" y="152" on="0"/>
        <pt x="676" y="144" on="1"/>
        <pt x="687" y="130" on="0"/>
        <pt x="708" y="103" on="0"/>
        <pt x="717" y="88" on="1"/>
        <pt x="735" y="58" on="1"/>
        <pt x="743" y="48" on="0"/>
        <pt x="756" y="34" on="0"/>
        <pt x="760" y="22" on="1"/>
        <pt x="762" y="14" on="0"/>
      </contour>
      <contour>
        <pt x="725" y="349" on="1"/>
        <pt x="725" y="344" on="0"/>
        <pt x="721" y="332" on="0"/>
        <pt x="720" y="327" on="1"/>
        <pt x="719" y="321" on="0"/>
        <pt x="719" y="308" on="0"/>
        <pt x="715" y="303" on="1"/>
        <pt x="711" y="298" on="0"/>
        <pt x="698" y="296" on="0"/>
        <pt x="693" y="292" on="1"/>
        <pt x="691" y="290" on="0"/>
        <pt x="683" y="280" on="0"/>
        <pt x="675" y="268" on="0"/>
        <pt x="669" y="257" on="0"/>
        <pt x="669" y="254" on="1"/>
        <pt x="657" y="253" on="0"/>
        <pt x="649" y="254" on="0"/>
        <pt x="645" y="253" on="1"/>
        <pt x="633" y="263" on="0"/>
        <pt x="622" y="268" on="1"/>
        <pt x="619" y="276" on="0"/>
        <pt x="605" y="298" on="0"/>
        <pt x="600" y="304" on="1"/>
        <pt x="593" y="314" on="1"/>
        <pt x="578" y="334" on="0"/>
        <pt x="553" y="373" on="0"/>
        <pt x="547" y="397" on="1"/>
        <pt x="566" y="411" on="0"/>
        <pt x="588" y="425" on="0"/>
        <pt x="611" y="437" on="0"/>
        <pt x="634" y="449" on="0"/>
        <pt x="644" y="457" on="1"/>
        <pt x="652" y="456" on="0"/>
        <pt x="658" y="454" on="0"/>
        <pt x="661" y="451" on="0"/>
        <pt x="664" y="447" on="0"/>
        <pt x="669" y="444" on="1"/>
        <pt x="673" y="431" on="0"/>
        <pt x="683" y="418" on="1"/>
        <pt x="685" y="414" on="0"/>
        <pt x="694" y="407" on="0"/>
        <pt x="696" y="403" on="1"/>
        <pt x="698" y="401" on="0"/>
        <pt x="702" y="389" on="0"/>
        <pt x="705" y="385" on="1"/>
        <pt x="708" y="377" on="0"/>
        <pt x="725" y="357" on="0"/>
      </contour>
    </TTGlyph>
    <TTGlyph name="Aacute" xMin="-10" yMin="-23" xMax="561" yMax="971">
      <component glyphName="A" x="0" y="0" flags="0x204"/>
      <component glyphName="acute" x="124" y="204" flags="0x4"/>
    </TTGlyph>
    <TTGlyph name="Acircumflex" xMin="-10" yMin="-23" xMax="561" yMax="940">
      <component glyphName="A" x="0" y="0" flags="0x204"/>
      <component glyphName="circumflex" x="63" y="113" flags="0x4"/>
    </TTGlyph>
    <TTGlyph name="Adieresis" xMin="-10" yMin="-23" xMax="561" yMax="934">
      <component glyphName="A" x="0" y="0" flags="0x204"/>
      <component glyphName="dieresis" x="76" y="170" flags="0x4"/>
    </TTGlyph>
    <TTGlyph name="Agrave" xMin="-10" yMin="-23" xMax="561" yMax="982">
      <component glyphName="A" x="0" y="0" flags="0x204"/>
      <component glyphName="grave" x="10" y="215" flags="0x4"/>
    </TTGlyph>
    <TTGlyph name="Aring" xMin="-10" yMin="-23" xMax="561" yMax="990">
      <component glyphName="A" x="0" y="0" flags="0x204"/>
      <component glyphName="ring" x="94" y="188" flags="0x4"/>
    </TTGlyph>
    <TTGlyph name="Atilde" xMin="-10" yMin="-23" xMax="561" yMax="916">
      <component glyphName="A" x="0" y="0" flags="0x204"/>
      <component glyphName="dieresis" x="93" y="152" flags="0x4"/>
    </TTGlyph>
    <TTGlyph name="B" xMin="61" yMin="-12" xMax="495" yMax="768">
      <contour>
        <pt x="455" y="563" on="1"/>
        <pt x="455" y="552" on="0"/>
        <pt x="464" y="537" on="0"/>
        <pt x="464" y="531" on="1"/>
        <pt x="462" y="521" on="0"/>
        <pt x="474" y="494" on="0"/>
        <pt x="474" y="480" on="1"/>
        <pt x="472" y="474" on="0"/>
        <pt x="445" y="455" on="0"/>
        <pt x="412" y="433" on="0"/>
        <pt x="381" y="412" on="0"/>
        <pt x="375" y="406" on="1"/>
        <pt x="380" y="398" on="0"/>
        <pt x="395" y="388" on="0"/>
        <pt x="402" y="383" on="1"/>
        <pt x="408" y="378" on="0"/>
        <pt x="431" y="359" on="0"/>
        <pt x="456" y="337" on="0"/>
        <pt x="477" y="317" on="0"/>
        <pt x="480" y="312" on="1"/>
        <pt x="482" y="311" on="0"/>
        <pt x="485" y="299" on="0"/>
        <pt x="487" y="284" on="0"/>
        <pt x="488" y="270" on="0"/>
        <pt x="488" y="268" on="1"/>
        <pt x="487" y="257" on="0"/>
        <pt x="490" y="247" on="0"/>
        <pt x="493" y="236" on="0"/>
        <pt x="495" y="226" on="0"/>
        <pt x="495" y="226" on="1"/>
        <pt x="495" y="220" on="0"/>
        <pt x="484" y="210" on="0"/>
        <pt x="479" y="206" on="1"/>
        <pt x="474" y="202" on="0"/>
        <pt x="465" y="194" on="0"/>
        <pt x="460" y="189" on="1"/>
        <pt x="454" y="184" on="0"/>
        <pt x="439" y="175" on="0"/>
        <pt x="433" y="170" on="1"/>
        <pt x="429" y="168" on="0"/>
        <pt x="423" y="161" on="0"/>
        <pt x="420" y="159" on="1"/>
        <pt x="411" y="151" on="0"/>
        <pt x="389" y="136" on="0"/>
        <pt x="379" y="130" on="1"/>
        <pt x="368" y="123" on="0"/>
        <pt x="348" y="108" on="0"/>
        <pt x="337" y="100" on="1"/>
        <pt x="322" y="91" on="0"/>
        <pt x="293" y="74" on="0"/>
        <pt x="279" y="65" on="1"/>
        <pt x="272" y="60" on="0"/>
        <pt x="259" y="50" on="0"/>
        <pt x="252" y="46" on="1"/>
        <pt x="232" y="35" on="0"/>
        <pt x="192" y="11" on="0"/>
        <pt x="173" y="-3" on="1"/>
        <pt x="157" y="-7" on="0"/>
        <pt x="143" y="-12" on="0"/>
        <pt x="136" y="-12" on="1"/>
        <pt x="130" y="-12" on="0"/>
        <pt x="127" y="-3" on="0"/>
        <pt x="123" y="-3" on="1"/>
        <pt x="108" y="-5" on="0"/>
        <pt x="105" y="-2" on="0"/>
        <pt x="102" y="0" on="1"/>
        <pt x="87" y="-2" on="0"/>
        <pt x="77" y="0" on="1"/>
        <pt x="74" y="5" on="0"/>
        <pt x="72" y="20" on="0"/>
        <pt x="67" y="25" on="1"/>
        <pt x="69" y="35" on="0"/>
        <pt x="66" y="53" on="0"/>
        <pt x="68" y="62" on="1"/>
        <pt x="65" y="74" on="0"/>
        <pt x="65" y="84" on="1"/>
        <pt x="65" y="97" on="0"/>
        <pt x="68" y="111" on="1"/>
        <pt x="65" y="120" on="0"/>
        <pt x="65" y="129" on="1"/>
        <pt x="65" y="137" on="0"/>
        <pt x="67" y="153" on="0"/>
        <pt x="67" y="161" on="1"/>
        <pt x="67" y="171" on="0"/>
        <pt x="63" y="179" on="1"/>
        <pt x="63" y="197" on="0"/>
        <pt x="62" y="232" on="0"/>
        <pt x="62" y="250" on="1"/>
        <pt x="62" y="258" on="0"/>
        <pt x="62" y="274" on="0"/>
        <pt x="63" y="283" on="1"/>
        <pt x="62" y="288" on="0"/>
        <pt x="62" y="298" on="1"/>
        <pt x="62" y="304" on="0"/>
        <pt x="66" y="313" on="0"/>
        <pt x="66" y="318" on="1"/>
        <pt x="66" y="329" on="0"/>
        <pt x="63" y="349" on="0"/>
        <pt x="63" y="360" on="1"/>
        <pt x="63" y="370" on="0"/>
        <pt x="66" y="388" on="0"/>
        <pt x="66" y="398" on="1"/>
        <pt x="63" y="402" on="0"/>
        <pt x="61" y="412" on="0"/>
        <pt x="61" y="417" on="1"/>
        <pt x="61" y="421" on="0"/>
        <pt x="63" y="429" on="1"/>
        <pt x="63" y="437" on="0"/>
        <pt x="61" y="455" on="0"/>
        <pt x="61" y="463" on="1"/>
        <pt x="61" y="467" on="0"/>
        <pt x="62" y="473" on="0"/>
        <pt x="63" y="477" on="1"/>
        <pt x="61" y="484" on="0"/>
        <pt x="61" y="498" on="0"/>
        <pt x="61" y="505" on="1"/>
        <pt x="61" y="514" on="0"/>
        <pt x="63" y="533" on="0"/>
        <pt x="63" y="542" on="1"/>
        <pt x="62" y="557" on="0"/>
        <pt x="65" y="574" on="0"/>
        <pt x="66" y="583" on="1"/>
        <pt x="66" y="640" on="1"/>
        <pt x="66" y="648" on="0"/>
        <pt x="62" y="667" on="0"/>
        <pt x="62" y="676" on="1"/>
        <pt x="62" y="681" on="0"/>
        <pt x="64" y="701" on="0"/>
        <pt x="66" y="706" on="1"/>
        <pt x="80" y="727" on="0"/>
        <pt x="99" y="730" on="1"/>
        <pt x="103" y="732" on="0"/>
        <pt x="107" y="739" on="0"/>
        <pt x="114" y="739" on="1"/>
        <pt x="126" y="749" on="0"/>
        <pt x="134" y="760" on="0"/>
        <pt x="140" y="765" on="1"/>
        <pt x="143" y="765" on="0"/>
        <pt x="148" y="768" on="0"/>
        <pt x="152" y="768" on="1"/>
        <pt x="159" y="766" on="0"/>
        <pt x="168" y="762" on="0"/>
        <pt x="173" y="761" on="1"/>
        <pt x="193" y="746" on="0"/>
        <pt x="232" y="717" on="0"/>
        <pt x="252" y="701" on="1"/>
        <pt x="261" y="693" on="0"/>
        <pt x="278" y="677" on="0"/>
        <pt x="287" y="670" on="1"/>
        <pt x="292" y="667" on="0"/>
        <pt x="304" y="661" on="0"/>
        <pt x="309" y="657" on="1"/>
        <pt x="320" y="650" on="0"/>
        <pt x="342" y="635" on="0"/>
        <pt x="353" y="628" on="1"/>
        <pt x="425" y="583" on="1"/>
        <pt x="433" y="578" on="0"/>
        <pt x="448" y="568" on="0"/>
      </contour>
      <contour>
        <pt x="312" y="520" on="1"/>
        <pt x="297" y="527" on="0"/>
        <pt x="270" y="547" on="0"/>
        <pt x="255" y="552" on="1"/>
        <pt x="247" y="560" on="0"/>
        <pt x="229" y="566" on="0"/>
        <pt x="221" y="572" on="1"/>
        <pt x="212" y="580" on="0"/>
        <pt x="198" y="592" on="0"/>
        <pt x="187" y="597" on="1"/>
        <pt x="182" y="566" on="0"/>
        <pt x="177" y="507" on="0"/>
        <pt x="177" y="477" on="1"/>
        <pt x="177" y="446" on="0"/>
        <pt x="183" y="418" on="1"/>
        <pt x="194" y="423" on="0"/>
        <pt x="214" y="435" on="0"/>
        <pt x="224" y="441" on="1"/>
        <pt x="228" y="443" on="0"/>
        <pt x="235" y="447" on="0"/>
        <pt x="240" y="449" on="1"/>
        <pt x="245" y="453" on="0"/>
        <pt x="255" y="461" on="0"/>
        <pt x="260" y="464" on="1"/>
        <pt x="271" y="472" on="0"/>
        <pt x="292" y="485" on="0"/>
        <pt x="303" y="493" on="1"/>
        <pt x="308" y="497" on="0"/>
        <pt x="320" y="502" on="0"/>
        <pt x="326" y="507" on="1"/>
        <pt x="325" y="511" on="0"/>
        <pt x="314" y="516" on="0"/>
      </contour>
      <contour>
        <pt x="283" y="333" on="1"/>
        <pt x="280" y="333" on="0"/>
        <pt x="274" y="336" on="0"/>
        <pt x="270" y="336" on="1"/>
        <pt x="258" y="328" on="0"/>
        <pt x="237" y="317" on="0"/>
        <pt x="226" y="310" on="1"/>
        <pt x="221" y="307" on="0"/>
        <pt x="211" y="299" on="0"/>
        <pt x="206" y="297" on="1"/>
        <pt x="193" y="289" on="0"/>
        <pt x="179" y="278" on="0"/>
        <pt x="175" y="270" on="1"/>
        <pt x="177" y="242" on="0"/>
        <pt x="176" y="186" on="0"/>
        <pt x="176" y="157" on="1"/>
        <pt x="176" y="152" on="0"/>
        <pt x="179" y="146" on="1"/>
        <pt x="188" y="147" on="0"/>
        <pt x="234" y="172" on="0"/>
        <pt x="285" y="204" on="0"/>
        <pt x="332" y="234" on="0"/>
        <pt x="343" y="241" on="1"/>
        <pt x="351" y="243" on="0"/>
        <pt x="372" y="255" on="0"/>
        <pt x="374" y="263" on="1"/>
        <pt x="355" y="285" on="0"/>
        <pt x="305" y="314" on="0"/>
      </contour>
    </TTGlyph>
    <TTGlyph name="C" xMin="-5" yMin="-15" xMax="412" yMax="773">
      <contour>
        <pt x="225" y="273" on="1"/>
        <pt x="227" y="268" on="0"/>
        <pt x="253" y="235" on="0"/>
        <pt x="286" y="196" on="0"/>
        <pt x="318" y="160" on="0"/>
        <pt x="324" y="152" on="1"/>
        <pt x="343" y="124" on="0"/>
        <pt x="383" y="70" on="0"/>
        <pt x="401" y="41" on="1"/>
        <pt x="406" y="36" on="0"/>
        <pt x="412" y="21" on="0"/>
        <pt x="412" y="13" on="1"/>
        <pt x="412" y="4" on="0"/>
        <pt x="403" y="3" on="0"/>
        <pt x="398" y="1" on="1"/>
        <pt x="388" y="-6" on="0"/>
        <pt x="372" y="-8" on="0"/>
        <pt x="367" y="-8" on="1"/>
        <pt x="356" y="-8" on="0"/>
        <pt x="330" y="-7" on="0"/>
        <pt x="321" y="-9" on="1"/>
        <pt x="318" y="-10" on="0"/>
        <pt x="310" y="-15" on="0"/>
        <pt x="308" y="-15" on="1"/>
        <pt x="300" y="-15" on="0"/>
        <pt x="293" y="-10" on="0"/>
        <pt x="287" y="-8" on="1"/>
        <pt x="279" y="1" on="0"/>
        <pt x="266" y="21" on="0"/>
        <pt x="259" y="31" on="1"/>
        <pt x="253" y="38" on="0"/>
        <pt x="239" y="49" on="0"/>
        <pt x="233" y="57" on="1"/>
        <pt x="217" y="80" on="0"/>
        <pt x="184" y="122" on="0"/>
        <pt x="167" y="143" on="1"/>
        <pt x="159" y="154" on="0"/>
        <pt x="140" y="174" on="0"/>
        <pt x="132" y="184" on="1"/>
        <pt x="124" y="195" on="0"/>
        <pt x="110" y="219" on="0"/>
        <pt x="102" y="230" on="1"/>
        <pt x="96" y="240" on="0"/>
        <pt x="74" y="269" on="0"/>
        <pt x="50" y="299" on="0"/>
        <pt x="25" y="326" on="0"/>
        <pt x="16" y="333" on="1"/>
        <pt x="16" y="340" on="0"/>
        <pt x="8" y="346" on="0"/>
        <pt x="3" y="350" on="1"/>
        <pt x="1" y="355" on="0"/>
        <pt x="-5" y="364" on="0"/>
        <pt x="-5" y="370" on="1"/>
        <pt x="-5" y="374" on="0"/>
        <pt x="-3" y="380" on="0"/>
        <pt x="-2" y="383" on="1"/>
        <pt x="0" y="387" on="0"/>
        <pt x="1" y="394" on="0"/>
        <pt x="3" y="398" on="1"/>
        <pt x="8" y="411" on="0"/>
        <pt x="27" y="431" on="0"/>
        <pt x="32" y="444" on="1"/>
        <pt x="33" y="448" on="0"/>
        <pt x="33" y="455" on="0"/>
        <pt x="35" y="459" on="1"/>
        <pt x="38" y="465" on="0"/>
        <pt x="50" y="477" on="0"/>
        <pt x="55" y="484" on="1"/>
        <pt x="60" y="493" on="0"/>
        <pt x="70" y="511" on="0"/>
        <pt x="75" y="520" on="1"/>
        <pt x="89" y="543" on="0"/>
        <pt x="123" y="586" on="0"/>
        <pt x="138" y="607" on="1"/>
        <pt x="152" y="627" on="0"/>
        <pt x="176" y="666" on="0"/>
        <pt x="190" y="686" on="1"/>
        <pt x="197" y="696" on="0"/>
        <pt x="215" y="721" on="0"/>
        <pt x="234" y="745" on="0"/>
        <pt x="254" y="766" on="0"/>
        <pt x="264" y="771" on="1"/>
        <pt x="281" y="773" on="0"/>
        <pt x="291" y="758" on="0"/>
        <pt x="300" y="758" on="1"/>
        <pt x="314" y="755" on="0"/>
        <pt x="324" y="743" on="0"/>
        <pt x="329" y="738" on="1"/>
        <pt x="342" y="738" on="0"/>
        <pt x="360" y="728" on="0"/>
        <pt x="369" y="718" on="1"/>
        <pt x="365" y="707" on="0"/>
        <pt x="352" y="689" on="0"/>
        <pt x="347" y="679" on="1"/>
        <pt x="339" y="676" on="0"/>
        <pt x="332" y="662" on="0"/>
        <pt x="325" y="657" on="1"/>
        <pt x="314" y="640" on="0"/>
        <pt x="292" y="607" on="0"/>
        <pt x="281" y="592" on="1"/>
        <pt x="276" y="586" on="0"/>
        <pt x="263" y="579" on="0"/>
        <pt x="259" y="572" on="1"/>
        <pt x="257" y="569" on="0"/>
        <pt x="255" y="562" on="0"/>
        <pt x="253" y="559" on="1"/>
        <pt x="241" y="540" on="0"/>
        <pt x="211" y="504" on="0"/>
        <pt x="200" y="484" on="1"/>
        <pt x="195" y="477" on="0"/>
        <pt x="189" y="462" on="0"/>
        <pt x="185" y="455" on="1"/>
        <pt x="181" y="449" on="0"/>
        <pt x="166" y="427" on="0"/>
        <pt x="151" y="404" on="0"/>
        <pt x="140" y="383" on="0"/>
        <pt x="140" y="376" on="1"/>
        <pt x="141" y="371" on="0"/>
        <pt x="165" y="341" on="0"/>
        <pt x="194" y="307" on="0"/>
        <pt x="221" y="277" on="0"/>
      </contour>
    </TTGlyph>
    <TTGlyph name="Ccedilla" xMin="-5" yMin="-226" xMax="440" yMax="773">
      <contour>
        <pt x="302" y="-27" on="1"/>
        <pt x="302" y="-35" on="0"/>
        <pt x="303" y="-42" on="0"/>
        <pt x="303" y="-45" on="1"/>
        <pt x="317" y="-47" on="0"/>
        <pt x="346" y="-47" on="0"/>
        <pt x="360" y="-47" on="1"/>
        <pt x="368" y="-47" on="0"/>
        <pt x="380" y="-46" on="0"/>
        <pt x="386" y="-46" on="1"/>
        <pt x="396" y="-46" on="0"/>
        <pt x="416" y="-47" on="0"/>
        <pt x="426" y="-49" on="1"/>
        <pt x="437" y="-50" on="0"/>
        <pt x="440" y="-64" on="0"/>
        <pt x="440" y="-68" on="1"/>
        <pt x="440" y="-92" on="0"/>
        <pt x="435" y="-140" on="0"/>
        <pt x="433" y="-165" on="1"/>
        <pt x="433" y="-169" on="0"/>
        <pt x="432" y="-182" on="0"/>
        <pt x="430" y="-197" on="0"/>
        <pt x="429" y="-209" on="0"/>
        <pt x="428" y="-211" on="1"/>
        <pt x="426" y="-215" on="0"/>
        <pt x="413" y="-218" on="0"/>
        <pt x="409" y="-222" on="1"/>
        <pt x="393" y="-222" on="0"/>
        <pt x="378" y="-219" on="0"/>
        <pt x="370" y="-219" on="1"/>
        <pt x="362" y="-219" on="0"/>
        <pt x="349" y="-220" on="0"/>
        <pt x="342" y="-222" on="1"/>
        <pt x="331" y="-221" on="0"/>
        <pt x="325" y="-223" on="1"/>
        <pt x="309" y="-225" on="0"/>
        <pt x="271" y="-226" on="0"/>
        <pt x="256" y="-226" on="1"/>
        <pt x="253" y="-226" on="0"/>
        <pt x="247" y="-225" on="0"/>
        <pt x="244" y="-225" on="1"/>
        <pt x="238" y="-221" on="0"/>
        <pt x="228" y="-220" on="0"/>
        <pt x="230" y="-210" on="1"/>
        <pt x="226" y="-197" on="0"/>
        <pt x="224" y="-195" on="1"/>
        <pt x="225" y="-184" on="0"/>
        <pt x="222" y="-174" on="0"/>
        <pt x="222" y="-169" on="1"/>
        <pt x="225" y="-161" on="0"/>
        <pt x="232" y="-160" on="0"/>
        <pt x="234" y="-157" on="1"/>
        <pt x="239" y="-158" on="0"/>
        <pt x="245" y="-158" on="1"/>
        <pt x="250" y="-158" on="0"/>
        <pt x="259" y="-156" on="0"/>
        <pt x="264" y="-156" on="1"/>
        <pt x="270" y="-156" on="0"/>
        <pt x="288" y="-156" on="0"/>
        <pt x="293" y="-154" on="1"/>
        <pt x="297" y="-155" on="0"/>
        <pt x="305" y="-155" on="1"/>
        <pt x="315" y="-155" on="0"/>
        <pt x="351" y="-150" on="0"/>
        <pt x="361" y="-148" on="1"/>
        <pt x="362" y="-140" on="0"/>
        <pt x="364" y="-126" on="0"/>
        <pt x="364" y="-119" on="1"/>
        <pt x="353" y="-111" on="0"/>
        <pt x="340" y="-113" on="0"/>
        <pt x="334" y="-113" on="1"/>
        <pt x="323" y="-111" on="0"/>
        <pt x="313" y="-112" on="0"/>
        <pt x="302" y="-112" on="0"/>
        <pt x="293" y="-113" on="0"/>
        <pt x="293" y="-113" on="1"/>
        <pt x="287" y="-112" on="0"/>
        <pt x="269" y="-111" on="0"/>
        <pt x="264" y="-108" on="1"/>
        <pt x="258" y="-106" on="0"/>
        <pt x="246" y="-110" on="0"/>
        <pt x="244" y="-109" on="1"/>
        <pt x="230" y="-109" on="0"/>
        <pt x="223" y="-106" on="1"/>
        <pt x="221" y="-104" on="0"/>
        <pt x="221" y="-96" on="0"/>
        <pt x="220" y="-93" on="1"/>
        <pt x="222" y="-74" on="0"/>
        <pt x="224" y="-36" on="0"/>
        <pt x="224" y="-16" on="1"/>
        <pt x="224" y="-11" on="0"/>
        <pt x="229" y="6" on="0"/>
        <pt x="229" y="14" on="1"/>
        <pt x="229" y="24" on="0"/>
        <pt x="229" y="32" on="0"/>
        <pt x="229" y="34" on="1"/>
        <pt x="229" y="52" on="1"/>
        <pt x="206" y="84" on="0"/>
        <pt x="156" y="142" on="0"/>
        <pt x="132" y="173" on="1"/>
        <pt x="124" y="184" on="0"/>
        <pt x="110" y="207" on="0"/>
        <pt x="102" y="218" on="1"/>
        <pt x="96" y="228" on="0"/>
        <pt x="74" y="257" on="0"/>
        <pt x="50" y="288" on="0"/>
        <pt x="25" y="315" on="0"/>
        <pt x="16" y="322" on="1"/>
        <pt x="16" y="329" on="0"/>
        <pt x="8" y="335" on="0"/>
        <pt x="3" y="339" on="1"/>
        <pt x="1" y="344" on="0"/>
        <pt x="-5" y="353" on="0"/>
        <pt x="-5" y="358" on="1"/>
        <pt x="-5" y="366" on="0"/>
        <pt x="-2" y="372" on="1"/>
        <pt x="0" y="376" on="0"/>
        <pt x="1" y="383" on="0"/>
        <pt x="3" y="387" on="1"/>
        <pt x="8" y="399" on="0"/>
        <pt x="27" y="420" on="0"/>
        <pt x="32" y="432" on="1"/>
        <pt x="33" y="436" on="0"/>
        <pt x="33" y="443" on="0"/>
        <pt x="35" y="446" on="1"/>
        <pt x="38" y="454" on="0"/>
        <pt x="50" y="465" on="0"/>
        <pt x="55" y="472" on="1"/>
        <pt x="60" y="481" on="0"/>
        <pt x="70" y="500" on="0"/>
        <pt x="75" y="508" on="1"/>
        <pt x="86" y="525" on="0"/>
        <pt x="108" y="560" on="0"/>
        <pt x="119" y="577" on="1"/>
        <pt x="124" y="585" on="0"/>
        <pt x="137" y="600" on="0"/>
        <pt x="142" y="608" on="1"/>
        <pt x="156" y="628" on="0"/>
        <pt x="181" y="668" on="0"/>
        <pt x="195" y="687" on="1"/>
        <pt x="202" y="697" on="0"/>
        <pt x="219" y="721" on="0"/>
        <pt x="238" y="745" on="0"/>
        <pt x="258" y="766" on="0"/>
        <pt x="268" y="772" on="1"/>
        <pt x="285" y="773" on="0"/>
        <pt x="296" y="758" on="0"/>
        <pt x="305" y="758" on="1"/>
        <pt x="319" y="755" on="0"/>
        <pt x="328" y="744" on="0"/>
        <pt x="333" y="739" on="1"/>
        <pt x="346" y="739" on="0"/>
        <pt x="364" y="729" on="0"/>
        <pt x="373" y="719" on="1"/>
        <pt x="369" y="708" on="0"/>
        <pt x="356" y="690" on="0"/>
        <pt x="351" y="680" on="1"/>
        <pt x="343" y="676" on="0"/>
        <pt x="337" y="662" on="0"/>
        <pt x="329" y="657" on="1"/>
        <pt x="318" y="640" on="0"/>
        <pt x="296" y="608" on="0"/>
        <pt x="285" y="592" on="1"/>
        <pt x="278" y="584" on="0"/>
        <pt x="264" y="568" on="0"/>
        <pt x="259" y="560" on="1"/>
        <pt x="257" y="557" on="0"/>
        <pt x="255" y="550" on="0"/>
        <pt x="253" y="547" on="1"/>
        <pt x="240" y="528" on="0"/>
        <pt x="211" y="492" on="0"/>
        <pt x="200" y="472" on="1"/>
        <pt x="195" y="465" on="0"/>
        <pt x="189" y="451" on="0"/>
        <pt x="185" y="443" on="1"/>
        <pt x="181" y="437" on="0"/>
        <pt x="165" y="416" on="0"/>
        <pt x="150" y="393" on="0"/>
        <pt x="139" y="371" on="0"/>
        <pt x="140" y="364" on="1"/>
        <pt x="140" y="358" on="0"/>
        <pt x="165" y="329" on="0"/>
        <pt x="195" y="294" on="0"/>
        <pt x="222" y="264" on="0"/>
        <pt x="225" y="261" on="1"/>
        <pt x="227" y="256" on="0"/>
        <pt x="253" y="223" on="0"/>
        <pt x="286" y="184" on="0"/>
        <pt x="318" y="147" on="0"/>
        <pt x="324" y="139" on="1"/>
        <pt x="334" y="125" on="0"/>
        <pt x="355" y="96" on="0"/>
        <pt x="365" y="81" on="1"/>
        <pt x="370" y="73" on="0"/>
        <pt x="380" y="58" on="0"/>
        <pt x="385" y="51" on="1"/>
        <pt x="393" y="40" on="0"/>
        <pt x="405" y="26" on="0"/>
        <pt x="410" y="12" on="1"/>
        <pt x="412" y="-7" on="0"/>
        <pt x="403" y="-8" on="0"/>
        <pt x="398" y="-10" on="1"/>
        <pt x="385" y="-20" on="0"/>
        <pt x="351" y="-19" on="0"/>
        <pt x="341" y="-19" on="1"/>
        <pt x="336" y="-19" on="0"/>
        <pt x="326" y="-20" on="0"/>
        <pt x="321" y="-22" on="1"/>
        <pt x="315" y="-24" on="0"/>
        <pt x="309" y="-29" on="0"/>
      </contour>
    </TTGlyph>
    <TTGlyph name="D" xMin="61" yMin="-24" xMax="515" yMax="763">
      <contour>
        <pt x="65" y="-12" on="1"/>
        <pt x="61" y="-8" on="0"/>
        <pt x="61" y="-1" on="1"/>
        <pt x="61" y="4" on="0"/>
        <pt x="62" y="11" on="0"/>
        <pt x="63" y="16" on="1"/>
        <pt x="68" y="39" on="0"/>
        <pt x="68" y="86" on="0"/>
        <pt x="70" y="109" on="1"/>
        <pt x="71" y="123" on="0"/>
        <pt x="72" y="151" on="0"/>
        <pt x="72" y="165" on="1"/>
        <pt x="72" y="248" on="0"/>
        <pt x="62" y="413" on="0"/>
        <pt x="62" y="497" on="1"/>
        <pt x="62" y="555" on="0"/>
        <pt x="66" y="672" on="0"/>
        <pt x="67" y="731" on="1"/>
        <pt x="76" y="736" on="0"/>
        <pt x="102" y="734" on="0"/>
        <pt x="110" y="744" on="1"/>
        <pt x="115" y="745" on="0"/>
        <pt x="125" y="744" on="0"/>
        <pt x="130" y="744" on="1"/>
        <pt x="141" y="744" on="0"/>
        <pt x="161" y="758" on="0"/>
        <pt x="173" y="763" on="1"/>
        <pt x="179" y="761" on="0"/>
        <pt x="184" y="762" on="0"/>
        <pt x="187" y="762" on="1"/>
        <pt x="190" y="762" on="0"/>
        <pt x="210" y="748" on="0"/>
        <pt x="234" y="730" on="0"/>
        <pt x="255" y="714" on="0"/>
        <pt x="258" y="712" on="1"/>
        <pt x="283" y="693" on="0"/>
        <pt x="322" y="648" on="0"/>
        <pt x="341" y="625" on="1"/>
        <pt x="359" y="602" on="0"/>
        <pt x="401" y="555" on="0"/>
        <pt x="421" y="535" on="1"/>
        <pt x="428" y="527" on="0"/>
        <pt x="443" y="515" on="0"/>
        <pt x="450" y="507" on="1"/>
        <pt x="453" y="503" on="0"/>
        <pt x="458" y="494" on="0"/>
        <pt x="461" y="489" on="1"/>
        <pt x="467" y="482" on="0"/>
        <pt x="483" y="472" on="0"/>
        <pt x="490" y="465" on="1"/>
        <pt x="495" y="461" on="0"/>
        <pt x="515" y="437" on="0"/>
        <pt x="515" y="431" on="1"/>
        <pt x="515" y="427" on="0"/>
        <pt x="511" y="421" on="0"/>
        <pt x="509" y="417" on="1"/>
        <pt x="508" y="414" on="0"/>
        <pt x="508" y="402" on="0"/>
        <pt x="507" y="400" on="1"/>
        <pt x="497" y="392" on="0"/>
        <pt x="495" y="388" on="0"/>
        <pt x="493" y="386" on="1"/>
        <pt x="490" y="382" on="0"/>
        <pt x="481" y="377" on="0"/>
        <pt x="479" y="372" on="1"/>
        <pt x="477" y="369" on="0"/>
        <pt x="478" y="363" on="0"/>
        <pt x="476" y="359" on="1"/>
        <pt x="471" y="348" on="0"/>
        <pt x="449" y="328" on="0"/>
        <pt x="441" y="316" on="1"/>
        <pt x="430" y="298" on="0"/>
        <pt x="408" y="262" on="0"/>
        <pt x="394" y="245" on="1"/>
        <pt x="388" y="237" on="0"/>
        <pt x="375" y="222" on="0"/>
        <pt x="369" y="214" on="1"/>
        <pt x="364" y="208" on="0"/>
        <pt x="356" y="195" on="0"/>
        <pt x="351" y="187" on="1"/>
        <pt x="340" y="173" on="0"/>
        <pt x="320" y="146" on="0"/>
        <pt x="309" y="132" on="1"/>
        <pt x="297" y="115" on="0"/>
        <pt x="269" y="82" on="0"/>
        <pt x="258" y="65" on="1"/>
        <pt x="247" y="47" on="0"/>
        <pt x="223" y="17" on="0"/>
        <pt x="209" y="3" on="1"/>
        <pt x="205" y="0" on="0"/>
        <pt x="193" y="-12" on="0"/>
        <pt x="187" y="-12" on="1"/>
        <pt x="183" y="-12" on="0"/>
        <pt x="178" y="-6" on="0"/>
        <pt x="173" y="-6" on="1"/>
        <pt x="172" y="-6" on="0"/>
        <pt x="162" y="-8" on="0"/>
        <pt x="155" y="-9" on="1"/>
        <pt x="137" y="-11" on="1"/>
        <pt x="121" y="-19" on="0"/>
        <pt x="107" y="-18" on="0"/>
        <pt x="100" y="-19" on="1"/>
        <pt x="96" y="-20" on="0"/>
        <pt x="91" y="-24" on="0"/>
        <pt x="88" y="-24" on="1"/>
        <pt x="81" y="-24" on="0"/>
        <pt x="73" y="-11" on="0"/>
      </contour>
      <contour>
        <pt x="365" y="420" on="1"/>
        <pt x="365" y="425" on="0"/>
        <pt x="346" y="443" on="0"/>
        <pt x="341" y="447" on="1"/>
        <pt x="334" y="453" on="0"/>
        <pt x="315" y="464" on="0"/>
        <pt x="309" y="471" on="1"/>
        <pt x="304" y="477" on="0"/>
        <pt x="295" y="490" on="0"/>
        <pt x="290" y="496" on="1"/>
        <pt x="272" y="516" on="0"/>
        <pt x="235" y="556" on="0"/>
        <pt x="221" y="580" on="1"/>
        <pt x="212" y="586" on="0"/>
        <pt x="196" y="602" on="0"/>
        <pt x="185" y="607" on="1"/>
        <pt x="183" y="601" on="0"/>
        <pt x="184" y="588" on="0"/>
        <pt x="184" y="582" on="1"/>
        <pt x="184" y="559" on="0"/>
        <pt x="180" y="515" on="0"/>
        <pt x="180" y="493" on="1"/>
        <pt x="180" y="439" on="0"/>
        <pt x="185" y="334" on="0"/>
        <pt x="185" y="281" on="1"/>
        <pt x="185" y="261" on="0"/>
        <pt x="186" y="221" on="0"/>
        <pt x="189" y="201" on="1"/>
        <pt x="187" y="195" on="0"/>
        <pt x="187" y="190" on="1"/>
        <pt x="187" y="185" on="0"/>
        <pt x="189" y="177" on="1"/>
        <pt x="197" y="182" on="0"/>
        <pt x="208" y="197" on="0"/>
        <pt x="213" y="204" on="1"/>
        <pt x="230" y="226" on="0"/>
        <pt x="263" y="271" on="0"/>
        <pt x="280" y="294" on="1"/>
        <pt x="291" y="309" on="0"/>
        <pt x="314" y="338" on="0"/>
        <pt x="325" y="354" on="1"/>
        <pt x="328" y="358" on="0"/>
        <pt x="341" y="378" on="0"/>
        <pt x="354" y="399" on="0"/>
        <pt x="365" y="417" on="0"/>
      </contour>
    </TTGlyph>
    <TTGlyph name="E" xMin="56" yMin="-22" xMax="423" yMax="758">
      <contour>
        <pt x="407" y="140" on="1"/>
        <pt x="415" y="127" on="0"/>
        <pt x="423" y="103" on="0"/>
        <pt x="423" y="98" on="1"/>
        <pt x="423" y="91" on="0"/>
        <pt x="418" y="82" on="0"/>
        <pt x="414" y="77" on="1"/>
        <pt x="374" y="60" on="0"/>
        <pt x="295" y="31" on="0"/>
        <pt x="254" y="17" on="1"/>
        <pt x="244" y="14" on="0"/>
        <pt x="225" y="7" on="0"/>
        <pt x="214" y="5" on="1"/>
        <pt x="212" y="3" on="0"/>
        <pt x="202" y="-1" on="0"/>
        <pt x="189" y="-5" on="0"/>
        <pt x="177" y="-8" on="0"/>
        <pt x="175" y="-8" on="1"/>
        <pt x="173" y="-3" on="0"/>
        <pt x="169" y="-1" on="0"/>
        <pt x="167" y="0" on="1"/>
        <pt x="162" y="0" on="0"/>
        <pt x="159" y="-7" on="0"/>
        <pt x="154" y="-9" on="1"/>
        <pt x="149" y="-9" on="0"/>
        <pt x="141" y="-10" on="0"/>
        <pt x="138" y="-8" on="1"/>
        <pt x="130" y="-10" on="0"/>
        <pt x="117" y="-20" on="0"/>
        <pt x="109" y="-22" on="1"/>
        <pt x="94" y="-18" on="0"/>
        <pt x="87" y="-19" on="0"/>
        <pt x="83" y="-20" on="1"/>
        <pt x="76" y="-14" on="0"/>
        <pt x="77" y="8" on="0"/>
        <pt x="71" y="15" on="1"/>
        <pt x="71" y="28" on="0"/>
        <pt x="67" y="31" on="0"/>
        <pt x="67" y="33" on="1"/>
        <pt x="67" y="40" on="0"/>
        <pt x="69" y="52" on="0"/>
        <pt x="67" y="59" on="1"/>
        <pt x="71" y="76" on="0"/>
        <pt x="69" y="108" on="0"/>
        <pt x="71" y="124" on="1"/>
        <pt x="71" y="129" on="0"/>
        <pt x="72" y="138" on="0"/>
        <pt x="72" y="143" on="1"/>
        <pt x="72" y="158" on="0"/>
        <pt x="76" y="165" on="0"/>
        <pt x="76" y="170" on="1"/>
        <pt x="76" y="177" on="0"/>
        <pt x="75" y="190" on="0"/>
        <pt x="75" y="198" on="1"/>
        <pt x="75" y="212" on="0"/>
        <pt x="76" y="239" on="0"/>
        <pt x="76" y="254" on="1"/>
        <pt x="76" y="292" on="0"/>
        <pt x="66" y="368" on="0"/>
        <pt x="66" y="406" on="1"/>
        <pt x="66" y="452" on="0"/>
        <pt x="56" y="542" on="0"/>
        <pt x="56" y="588" on="1"/>
        <pt x="56" y="596" on="0"/>
        <pt x="56" y="625" on="0"/>
        <pt x="56" y="656" on="0"/>
        <pt x="57" y="684" on="0"/>
        <pt x="58" y="690" on="1"/>
        <pt x="58" y="691" on="0"/>
        <pt x="70" y="695" on="0"/>
        <pt x="72" y="695" on="1"/>
        <pt x="77" y="695" on="0"/>
        <pt x="83" y="690" on="0"/>
        <pt x="87" y="688" on="1"/>
        <pt x="105" y="690" on="0"/>
        <pt x="112" y="693" on="0"/>
        <pt x="114" y="693" on="1"/>
        <pt x="120" y="693" on="0"/>
        <pt x="127" y="687" on="0"/>
        <pt x="129" y="687" on="1"/>
        <pt x="146" y="691" on="0"/>
        <pt x="149" y="685" on="0"/>
        <pt x="154" y="685" on="1"/>
        <pt x="167" y="689" on="0"/>
        <pt x="173" y="687" on="0"/>
        <pt x="176" y="687" on="1"/>
        <pt x="181" y="687" on="0"/>
        <pt x="193" y="694" on="0"/>
        <pt x="198" y="696" on="1"/>
        <pt x="215" y="701" on="0"/>
        <pt x="226" y="706" on="1"/>
        <pt x="241" y="715" on="0"/>
        <pt x="256" y="721" on="0"/>
        <pt x="264" y="725" on="1"/>
        <pt x="281" y="732" on="0"/>
        <pt x="312" y="747" on="0"/>
        <pt x="329" y="755" on="1"/>
        <pt x="332" y="755" on="0"/>
        <pt x="339" y="756" on="0"/>
        <pt x="341" y="758" on="1"/>
        <pt x="344" y="757" on="0"/>
        <pt x="351" y="757" on="0"/>
        <pt x="354" y="757" on="1"/>
        <pt x="364" y="753" on="0"/>
        <pt x="367" y="752" on="1"/>
        <pt x="371" y="746" on="0"/>
        <pt x="378" y="735" on="0"/>
        <pt x="383" y="730" on="1"/>
        <pt x="388" y="721" on="0"/>
        <pt x="391" y="721" on="1"/>
        <pt x="391" y="718" on="0"/>
        <pt x="385" y="711" on="0"/>
        <pt x="385" y="708" on="1"/>
        <pt x="393" y="694" on="0"/>
        <pt x="403" y="670" on="0"/>
        <pt x="403" y="665" on="1"/>
        <pt x="403" y="658" on="0"/>
        <pt x="399" y="649" on="0"/>
        <pt x="396" y="644" on="1"/>
        <pt x="358" y="626" on="0"/>
        <pt x="281" y="591" on="0"/>
        <pt x="241" y="574" on="1"/>
        <pt x="231" y="570" on="0"/>
        <pt x="213" y="561" on="0"/>
        <pt x="202" y="559" on="1"/>
        <pt x="200" y="557" on="0"/>
        <pt x="186" y="554" on="0"/>
        <pt x="182" y="554" on="1"/>
        <pt x="184" y="537" on="0"/>
        <pt x="185" y="504" on="0"/>
        <pt x="186" y="487" on="1"/>
        <pt x="187" y="473" on="0"/>
        <pt x="192" y="442" on="0"/>
        <pt x="194" y="427" on="1"/>
        <pt x="227" y="441" on="0"/>
        <pt x="292" y="469" on="0"/>
        <pt x="325" y="483" on="1"/>
        <pt x="331" y="482" on="0"/>
        <pt x="344" y="480" on="0"/>
        <pt x="350" y="478" on="1"/>
        <pt x="352" y="476" on="0"/>
        <pt x="356" y="470" on="0"/>
        <pt x="359" y="468" on="1"/>
        <pt x="358" y="463" on="0"/>
        <pt x="373" y="443" on="0"/>
        <pt x="373" y="438" on="1"/>
        <pt x="373" y="430" on="0"/>
        <pt x="377" y="427" on="0"/>
        <pt x="379" y="420" on="1"/>
        <pt x="380" y="410" on="0"/>
        <pt x="379" y="409" on="1"/>
        <pt x="384" y="404" on="0"/>
        <pt x="390" y="394" on="0"/>
        <pt x="390" y="387" on="1"/>
        <pt x="376" y="370" on="0"/>
        <pt x="348" y="359" on="0"/>
        <pt x="334" y="353" on="1"/>
        <pt x="329" y="351" on="0"/>
        <pt x="318" y="344" on="0"/>
        <pt x="313" y="342" on="1"/>
        <pt x="305" y="339" on="0"/>
        <pt x="290" y="334" on="0"/>
        <pt x="282" y="330" on="1"/>
        <pt x="269" y="323" on="0"/>
        <pt x="242" y="306" on="0"/>
        <pt x="228" y="303" on="1"/>
        <pt x="217" y="300" on="0"/>
        <pt x="210" y="293" on="0"/>
        <pt x="202" y="287" on="1"/>
        <pt x="202" y="260" on="1"/>
        <pt x="202" y="210" on="1"/>
        <pt x="202" y="200" on="0"/>
        <pt x="202" y="179" on="0"/>
        <pt x="201" y="168" on="1"/>
        <pt x="199" y="158" on="0"/>
        <pt x="199" y="151" on="1"/>
        <pt x="199" y="135" on="1"/>
        <pt x="204" y="137" on="0"/>
        <pt x="214" y="140" on="0"/>
        <pt x="219" y="142" on="1"/>
        <pt x="223" y="143" on="0"/>
        <pt x="230" y="143" on="0"/>
        <pt x="234" y="145" on="1"/>
        <pt x="239" y="146" on="0"/>
        <pt x="245" y="148" on="0"/>
        <pt x="249" y="150" on="1"/>
        <pt x="264" y="158" on="0"/>
        <pt x="280" y="163" on="0"/>
        <pt x="288" y="166" on="1"/>
        <pt x="305" y="172" on="0"/>
        <pt x="337" y="185" on="0"/>
        <pt x="353" y="191" on="1"/>
        <pt x="363" y="189" on="0"/>
        <pt x="367" y="194" on="1"/>
        <pt x="372" y="193" on="0"/>
        <pt x="379" y="191" on="0"/>
        <pt x="384" y="191" on="1"/>
        <pt x="396" y="180" on="0"/>
        <pt x="402" y="168" on="0"/>
        <pt x="407" y="163" on="1"/>
        <pt x="412" y="154" on="0"/>
        <pt x="414" y="154" on="1"/>
        <pt x="414" y="152" on="0"/>
        <pt x="408" y="143" on="0"/>
      </contour>
    </TTGlyph>
    <TTGlyph name="Eacute" xMin="56" yMin="-22" xMax="423" yMax="967">
      <component glyphName="E" x="0" y="0" flags="0x204"/>
      <component glyphName="acute" x="91" y="200" flags="0x4"/>
    </TTGlyph>
    <TTGlyph name="Ecircumflex" xMin="56" yMin="-22" xMax="423" yMax="975">
      <component glyphName="E" x="0" y="0" flags="0x204"/>
      <component glyphName="circumflex" x="0" y="148" flags="0x4"/>
    </TTGlyph>
    <TTGlyph name="Edieresis" xMin="56" yMin="-22" xMax="423" yMax="924">
      <component glyphName="E" x="0" y="0" flags="0x204"/>
      <component glyphName="dieresis" x="18" y="160" flags="0x4"/>
    </TTGlyph>
    <TTGlyph name="Egrave" xMin="66" yMin="-22" xMax="433" yMax="972">
      <component glyphName="E" x="10" y="0" flags="0x4"/>
      <component glyphName="grave" x="10" y="205" flags="0x4"/>
    </TTGlyph>
    <TTGlyph name="Eth" xMin="20" yMin="-24" xMax="583" yMax="763">
      <contour>
        <pt x="103" y="470" on="1"/>
        <pt x="103" y="497" on="1"/>
        <pt x="102" y="555" on="0"/>
        <pt x="106" y="672" on="0"/>
        <pt x="108" y="731" on="1"/>
        <pt x="118" y="736" on="0"/>
        <pt x="146" y="734" on="0"/>
        <pt x="154" y="744" on="1"/>
        <pt x="159" y="745" on="0"/>
        <pt x="170" y="744" on="0"/>
        <pt x="176" y="744" on="1"/>
        <pt x="187" y="744" on="0"/>
        <pt x="193" y="750" on="0"/>
        <pt x="202" y="755" on="1"/>
        <pt x="207" y="758" on="0"/>
        <pt x="215" y="761" on="0"/>
        <pt x="220" y="763" on="1"/>
        <pt x="228" y="761" on="0"/>
        <pt x="233" y="762" on="0"/>
        <pt x="237" y="762" on="1"/>
        <pt x="243" y="762" on="0"/>
        <pt x="259" y="748" on="0"/>
        <pt x="264" y="744" on="1"/>
        <pt x="276" y="736" on="0"/>
        <pt x="299" y="720" on="0"/>
        <pt x="311" y="712" on="1"/>
        <pt x="337" y="694" on="0"/>
        <pt x="379" y="648" on="0"/>
        <pt x="398" y="625" on="1"/>
        <pt x="416" y="603" on="0"/>
        <pt x="463" y="555" on="0"/>
        <pt x="483" y="535" on="1"/>
        <pt x="491" y="527" on="0"/>
        <pt x="507" y="515" on="0"/>
        <pt x="514" y="507" on="1"/>
        <pt x="517" y="503" on="0"/>
        <pt x="522" y="494" on="0"/>
        <pt x="525" y="489" on="1"/>
        <pt x="533" y="481" on="0"/>
        <pt x="549" y="472" on="0"/>
        <pt x="557" y="465" on="1"/>
        <pt x="559" y="463" on="0"/>
        <pt x="568" y="454" on="0"/>
        <pt x="577" y="444" on="0"/>
        <pt x="583" y="434" on="0"/>
        <pt x="583" y="431" on="1"/>
        <pt x="583" y="427" on="0"/>
        <pt x="579" y="421" on="0"/>
        <pt x="577" y="417" on="1"/>
        <pt x="575" y="414" on="0"/>
        <pt x="575" y="402" on="0"/>
        <pt x="573" y="400" on="1"/>
        <pt x="563" y="392" on="0"/>
        <pt x="561" y="388" on="0"/>
        <pt x="559" y="386" on="1"/>
        <pt x="556" y="382" on="0"/>
        <pt x="547" y="377" on="0"/>
        <pt x="545" y="372" on="1"/>
        <pt x="543" y="369" on="0"/>
        <pt x="544" y="363" on="0"/>
        <pt x="542" y="359" on="1"/>
        <pt x="537" y="347" on="0"/>
        <pt x="513" y="328" on="0"/>
        <pt x="505" y="316" on="1"/>
        <pt x="492" y="297" on="0"/>
        <pt x="467" y="259" on="0"/>
        <pt x="453" y="242" on="1"/>
        <pt x="446" y="234" on="0"/>
        <pt x="434" y="222" on="0"/>
        <pt x="428" y="214" on="1"/>
        <pt x="423" y="208" on="0"/>
        <pt x="414" y="195" on="0"/>
        <pt x="409" y="187" on="1"/>
        <pt x="398" y="173" on="0"/>
        <pt x="376" y="146" on="0"/>
        <pt x="365" y="132" on="1"/>
        <pt x="351" y="115" on="0"/>
        <pt x="322" y="83" on="0"/>
        <pt x="310" y="65" on="1"/>
        <pt x="298" y="45" on="0"/>
        <pt x="275" y="19" on="0"/>
        <pt x="258" y="4" on="1"/>
        <pt x="254" y="0" on="0"/>
        <pt x="241" y="-12" on="0"/>
        <pt x="236" y="-12" on="1"/>
        <pt x="231" y="-12" on="0"/>
        <pt x="225" y="-6" on="0"/>
        <pt x="220" y="-6" on="1"/>
        <pt x="219" y="-6" on="0"/>
        <pt x="208" y="-8" on="0"/>
        <pt x="201" y="-9" on="1"/>
        <pt x="183" y="-11" on="1"/>
        <pt x="180" y="-12" on="0"/>
        <pt x="175" y="-15" on="0"/>
        <pt x="173" y="-17" on="1"/>
        <pt x="166" y="-19" on="0"/>
        <pt x="151" y="-18" on="0"/>
        <pt x="143" y="-19" on="1"/>
        <pt x="139" y="-20" on="0"/>
        <pt x="134" y="-24" on="0"/>
        <pt x="130" y="-24" on="1"/>
        <pt x="123" y="-24" on="0"/>
        <pt x="114" y="-11" on="0"/>
        <pt x="105" y="-12" on="1"/>
        <pt x="102" y="-8" on="0"/>
        <pt x="102" y="-1" on="1"/>
        <pt x="102" y="7" on="0"/>
        <pt x="105" y="16" on="1"/>
        <pt x="110" y="39" on="0"/>
        <pt x="109" y="86" on="0"/>
        <pt x="111" y="109" on="1"/>
        <pt x="114" y="136" on="0"/>
        <pt x="114" y="165" on="1"/>
        <pt x="114" y="216" on="0"/>
        <pt x="109" y="317" on="0"/>
        <pt x="106" y="368" on="1"/>
        <pt x="96" y="369" on="0"/>
        <pt x="79" y="367" on="0"/>
        <pt x="70" y="367" on="1"/>
        <pt x="59" y="367" on="0"/>
        <pt x="40" y="368" on="0"/>
        <pt x="30" y="368" on="1"/>
        <pt x="28" y="375" on="0"/>
        <pt x="30" y="384" on="0"/>
        <pt x="30" y="389" on="1"/>
        <pt x="26" y="395" on="0"/>
        <pt x="24" y="410" on="0"/>
        <pt x="24" y="417" on="1"/>
        <pt x="24" y="422" on="0"/>
        <pt x="25" y="433" on="0"/>
        <pt x="26" y="438" on="1"/>
        <pt x="24" y="441" on="0"/>
        <pt x="20" y="447" on="0"/>
        <pt x="20" y="450" on="1"/>
        <pt x="22" y="454" on="0"/>
        <pt x="24" y="462" on="1"/>
        <pt x="31" y="464" on="0"/>
        <pt x="35" y="468" on="1"/>
        <pt x="48" y="470" on="0"/>
        <pt x="74" y="470" on="0"/>
        <pt x="87" y="470" on="1"/>
      </contour>
      <contour>
        <pt x="307" y="429" on="1"/>
        <pt x="305" y="418" on="1"/>
        <pt x="304" y="404" on="0"/>
        <pt x="304" y="396" on="1"/>
        <pt x="302" y="382" on="0"/>
        <pt x="306" y="378" on="1"/>
        <pt x="304" y="372" on="0"/>
        <pt x="304" y="360" on="0"/>
        <pt x="302" y="355" on="1"/>
        <pt x="286" y="354" on="0"/>
        <pt x="273" y="355" on="0"/>
        <pt x="268" y="356" on="1"/>
        <pt x="260" y="357" on="0"/>
        <pt x="245" y="356" on="0"/>
        <pt x="237" y="356" on="1"/>
        <pt x="238" y="318" on="0"/>
        <pt x="236" y="240" on="0"/>
        <pt x="242" y="202" on="1"/>
        <pt x="240" y="199" on="0"/>
        <pt x="240" y="191" on="1"/>
        <pt x="240" y="187" on="0"/>
        <pt x="242" y="179" on="1"/>
        <pt x="250" y="184" on="0"/>
        <pt x="260" y="198" on="0"/>
        <pt x="265" y="205" on="1"/>
        <pt x="269" y="210" on="0"/>
        <pt x="294" y="243" on="0"/>
        <pt x="328" y="288" on="0"/>
        <pt x="365" y="339" on="0"/>
        <pt x="397" y="384" on="0"/>
        <pt x="417" y="417" on="0"/>
        <pt x="417" y="421" on="1"/>
        <pt x="417" y="426" on="0"/>
        <pt x="397" y="445" on="0"/>
        <pt x="393" y="449" on="1"/>
        <pt x="386" y="454" on="0"/>
        <pt x="367" y="466" on="0"/>
        <pt x="361" y="473" on="1"/>
        <pt x="356" y="480" on="0"/>
        <pt x="345" y="494" on="0"/>
        <pt x="339" y="501" on="1"/>
        <pt x="321" y="520" on="0"/>
        <pt x="286" y="558" on="0"/>
        <pt x="273" y="581" on="1"/>
        <pt x="263" y="587" on="0"/>
        <pt x="249" y="604" on="0"/>
        <pt x="238" y="608" on="1"/>
        <pt x="235" y="603" on="0"/>
        <pt x="237" y="591" on="0"/>
        <pt x="237" y="586" on="1"/>
        <pt x="237" y="563" on="0"/>
        <pt x="232" y="517" on="0"/>
        <pt x="232" y="494" on="1"/>
        <pt x="232" y="461" on="1"/>
        <pt x="249" y="460" on="0"/>
        <pt x="283" y="458" on="0"/>
        <pt x="300" y="456" on="1"/>
        <pt x="302" y="442" on="0"/>
        <pt x="302" y="437" on="1"/>
      </contour>
    </TTGlyph>
    <TTGlyph name="Euro" xMin="41" yMin="108" xMax="467" yMax="645">
      <contour>
        <pt x="333" y="282" on="1"/>
        <pt x="357" y="261" on="0"/>
        <pt x="404" y="217" on="0"/>
        <pt x="425" y="194" on="1"/>
        <pt x="432" y="183" on="0"/>
        <pt x="442" y="173" on="1"/>
        <pt x="450" y="167" on="0"/>
        <pt x="461" y="157" on="0"/>
        <pt x="465" y="147" on="1"/>
        <pt x="467" y="136" on="0"/>
        <pt x="465" y="132" on="1"/>
        <pt x="459" y="131" on="0"/>
        <pt x="458" y="127" on="0"/>
        <pt x="456" y="125" on="1"/>
        <pt x="447" y="120" on="0"/>
        <pt x="414" y="119" on="0"/>
        <pt x="403" y="114" on="1"/>
        <pt x="399" y="112" on="0"/>
        <pt x="396" y="108" on="0"/>
        <pt x="391" y="108" on="1"/>
        <pt x="388" y="108" on="0"/>
        <pt x="382" y="111" on="0"/>
        <pt x="378" y="111" on="1"/>
        <pt x="372" y="117" on="0"/>
        <pt x="360" y="130" on="0"/>
        <pt x="353" y="136" on="1"/>
        <pt x="348" y="141" on="0"/>
        <pt x="337" y="148" on="0"/>
        <pt x="332" y="154" on="1"/>
        <pt x="311" y="175" on="0"/>
        <pt x="266" y="215" on="0"/>
        <pt x="244" y="236" on="1"/>
        <pt x="233" y="247" on="0"/>
        <pt x="214" y="271" on="0"/>
        <pt x="203" y="282" on="1"/>
        <pt x="193" y="283" on="0"/>
        <pt x="174" y="284" on="0"/>
        <pt x="165" y="284" on="1"/>
        <pt x="153" y="284" on="1"/>
        <pt x="139" y="284" on="0"/>
        <pt x="111" y="287" on="0"/>
        <pt x="97" y="287" on="1"/>
        <pt x="90" y="286" on="0"/>
        <pt x="78" y="288" on="0"/>
        <pt x="65" y="290" on="0"/>
        <pt x="54" y="293" on="0"/>
        <pt x="51" y="295" on="1"/>
        <pt x="48" y="298" on="0"/>
        <pt x="48" y="306" on="0"/>
        <pt x="48" y="309" on="1"/>
        <pt x="45" y="314" on="0"/>
        <pt x="43" y="326" on="0"/>
        <pt x="43" y="331" on="1"/>
        <pt x="43" y="342" on="1"/>
        <pt x="41" y="348" on="0"/>
        <pt x="41" y="353" on="1"/>
        <pt x="41" y="356" on="0"/>
        <pt x="42" y="362" on="0"/>
        <pt x="43" y="366" on="1"/>
        <pt x="47" y="368" on="0"/>
        <pt x="56" y="370" on="0"/>
        <pt x="61" y="373" on="1"/>
        <pt x="86" y="373" on="1"/>
        <pt x="94" y="373" on="0"/>
        <pt x="109" y="372" on="0"/>
        <pt x="117" y="372" on="1"/>
        <pt x="124" y="395" on="0"/>
        <pt x="140" y="413" on="1"/>
        <pt x="128" y="414" on="0"/>
        <pt x="108" y="415" on="0"/>
        <pt x="99" y="413" on="1"/>
        <pt x="84" y="411" on="0"/>
        <pt x="66" y="418" on="0"/>
        <pt x="62" y="423" on="1"/>
        <pt x="59" y="442" on="0"/>
        <pt x="59" y="454" on="1"/>
        <pt x="59" y="464" on="0"/>
        <pt x="60" y="469" on="1"/>
        <pt x="58" y="479" on="0"/>
        <pt x="61" y="486" on="0"/>
        <pt x="62" y="489" on="1"/>
        <pt x="67" y="492" on="0"/>
        <pt x="76" y="495" on="0"/>
        <pt x="80" y="498" on="1"/>
        <pt x="91" y="498" on="0"/>
        <pt x="111" y="500" on="0"/>
        <pt x="122" y="500" on="1"/>
        <pt x="132" y="500" on="0"/>
        <pt x="153" y="497" on="0"/>
        <pt x="163" y="497" on="1"/>
        <pt x="173" y="497" on="0"/>
        <pt x="191" y="496" on="0"/>
        <pt x="201" y="496" on="1"/>
        <pt x="205" y="494" on="0"/>
        <pt x="213" y="494" on="0"/>
        <pt x="216" y="494" on="1"/>
        <pt x="229" y="508" on="0"/>
        <pt x="257" y="532" on="0"/>
        <pt x="270" y="546" on="1"/>
        <pt x="284" y="558" on="0"/>
        <pt x="308" y="583" on="0"/>
        <pt x="322" y="594" on="1"/>
        <pt x="328" y="599" on="0"/>
        <pt x="344" y="615" on="0"/>
        <pt x="362" y="630" on="0"/>
        <pt x="380" y="642" on="0"/>
        <pt x="388" y="644" on="1"/>
        <pt x="395" y="645" on="0"/>
        <pt x="400" y="640" on="0"/>
        <pt x="404" y="634" on="0"/>
        <pt x="410" y="629" on="0"/>
        <pt x="415" y="629" on="1"/>
        <pt x="422" y="625" on="0"/>
        <pt x="426" y="615" on="0"/>
        <pt x="429" y="610" on="1"/>
        <pt x="447" y="607" on="0"/>
        <pt x="456" y="590" on="1"/>
        <pt x="451" y="582" on="0"/>
        <pt x="439" y="571" on="0"/>
        <pt x="434" y="565" on="1"/>
        <pt x="428" y="563" on="0"/>
        <pt x="420" y="554" on="0"/>
        <pt x="414" y="552" on="1"/>
        <pt x="403" y="541" on="0"/>
        <pt x="383" y="522" on="0"/>
        <pt x="372" y="512" on="1"/>
        <pt x="367" y="507" on="0"/>
        <pt x="349" y="494" on="0"/>
        <pt x="345" y="488" on="1"/>
        <pt x="358" y="487" on="1"/>
        <pt x="364" y="484" on="0"/>
        <pt x="369" y="484" on="1"/>
        <pt x="371" y="482" on="0"/>
        <pt x="376" y="478" on="0"/>
        <pt x="378" y="475" on="1"/>
        <pt x="386" y="475" on="0"/>
        <pt x="386" y="467" on="1"/>
        <pt x="384" y="457" on="0"/>
        <pt x="382" y="446" on="0"/>
        <pt x="380" y="433" on="0"/>
        <pt x="377" y="421" on="0"/>
        <pt x="376" y="419" on="1"/>
        <pt x="378" y="407" on="0"/>
        <pt x="365" y="402" on="0"/>
        <pt x="358" y="400" on="1"/>
        <pt x="350" y="402" on="0"/>
        <pt x="336" y="402" on="0"/>
        <pt x="328" y="402" on="1"/>
        <pt x="311" y="402" on="0"/>
        <pt x="277" y="402" on="0"/>
        <pt x="259" y="403" on="1"/>
        <pt x="244" y="388" on="1"/>
        <pt x="242" y="385" on="0"/>
        <pt x="229" y="380" on="0"/>
        <pt x="229" y="377" on="1"/>
        <pt x="229" y="373" on="0"/>
        <pt x="237" y="369" on="1"/>
        <pt x="248" y="368" on="0"/>
        <pt x="271" y="368" on="0"/>
        <pt x="283" y="368" on="1"/>
        <pt x="291" y="368" on="0"/>
        <pt x="309" y="368" on="0"/>
        <pt x="318" y="369" on="1"/>
        <pt x="324" y="367" on="0"/>
        <pt x="330" y="365" on="0"/>
        <pt x="336" y="365" on="1"/>
        <pt x="338" y="361" on="0"/>
        <pt x="345" y="358" on="0"/>
        <pt x="347" y="356" on="1"/>
        <pt x="355" y="354" on="0"/>
        <pt x="355" y="348" on="1"/>
        <pt x="353" y="332" on="0"/>
        <pt x="349" y="307" on="0"/>
        <pt x="346" y="300" on="1"/>
        <pt x="343" y="289" on="0"/>
        <pt x="336" y="286" on="0"/>
      </contour>
    </TTGlyph>
    <TTGlyph name="F" xMin="61" yMin="-6" xMax="412" yMax="773">
      <contour>
        <pt x="390" y="722" on="1"/>
        <pt x="398" y="710" on="0"/>
        <pt x="409" y="685" on="0"/>
        <pt x="409" y="680" on="1"/>
        <pt x="409" y="673" on="0"/>
        <pt x="405" y="664" on="0"/>
        <pt x="401" y="658" on="1"/>
        <pt x="363" y="641" on="0"/>
        <pt x="286" y="605" on="0"/>
        <pt x="246" y="589" on="1"/>
        <pt x="236" y="585" on="0"/>
        <pt x="218" y="577" on="0"/>
        <pt x="207" y="573" on="1"/>
        <pt x="205" y="571" on="0"/>
        <pt x="192" y="568" on="0"/>
        <pt x="187" y="568" on="1"/>
        <pt x="189" y="548" on="0"/>
        <pt x="190" y="506" on="0"/>
        <pt x="191" y="485" on="1"/>
        <pt x="191" y="479" on="0"/>
        <pt x="195" y="468" on="0"/>
        <pt x="195" y="462" on="1"/>
        <pt x="197" y="443" on="0"/>
        <pt x="197" y="407" on="0"/>
        <pt x="199" y="388" on="1"/>
        <pt x="236" y="404" on="0"/>
        <pt x="309" y="437" on="0"/>
        <pt x="346" y="453" on="1"/>
        <pt x="352" y="452" on="0"/>
        <pt x="366" y="450" on="0"/>
        <pt x="372" y="447" on="1"/>
        <pt x="374" y="445" on="0"/>
        <pt x="378" y="439" on="0"/>
        <pt x="381" y="437" on="1"/>
        <pt x="381" y="432" on="0"/>
        <pt x="394" y="413" on="0"/>
        <pt x="394" y="402" on="1"/>
        <pt x="394" y="400" on="0"/>
        <pt x="400" y="391" on="0"/>
        <pt x="401" y="389" on="1"/>
        <pt x="401" y="379" on="0"/>
        <pt x="400" y="378" on="1"/>
        <pt x="407" y="373" on="0"/>
        <pt x="412" y="357" on="0"/>
        <pt x="412" y="349" on="1"/>
        <pt x="394" y="329" on="0"/>
        <pt x="359" y="315" on="0"/>
        <pt x="341" y="307" on="1"/>
        <pt x="336" y="304" on="0"/>
        <pt x="324" y="298" on="0"/>
        <pt x="318" y="295" on="1"/>
        <pt x="310" y="292" on="0"/>
        <pt x="295" y="287" on="0"/>
        <pt x="287" y="283" on="1"/>
        <pt x="275" y="276" on="0"/>
        <pt x="245" y="258" on="0"/>
        <pt x="233" y="256" on="1"/>
        <pt x="225" y="254" on="0"/>
        <pt x="214" y="253" on="0"/>
        <pt x="207" y="248" on="1"/>
        <pt x="206" y="236" on="0"/>
        <pt x="207" y="213" on="0"/>
        <pt x="207" y="202" on="1"/>
        <pt x="207" y="190" on="0"/>
        <pt x="204" y="167" on="0"/>
        <pt x="204" y="155" on="1"/>
        <pt x="204" y="135" on="0"/>
        <pt x="200" y="96" on="0"/>
        <pt x="200" y="77" on="1"/>
        <pt x="200" y="65" on="0"/>
        <pt x="202" y="42" on="0"/>
        <pt x="202" y="31" on="1"/>
        <pt x="202" y="25" on="0"/>
        <pt x="198" y="15" on="0"/>
        <pt x="196" y="10" on="1"/>
        <pt x="182" y="8" on="0"/>
        <pt x="176" y="13" on="0"/>
        <pt x="172" y="15" on="1"/>
        <pt x="167" y="15" on="0"/>
        <pt x="164" y="7" on="0"/>
        <pt x="159" y="5" on="1"/>
        <pt x="155" y="6" on="0"/>
        <pt x="146" y="5" on="0"/>
        <pt x="143" y="7" on="1"/>
        <pt x="135" y="4" on="0"/>
        <pt x="122" y="-4" on="0"/>
        <pt x="114" y="-6" on="1"/>
        <pt x="99" y="-4" on="0"/>
        <pt x="92" y="-5" on="0"/>
        <pt x="88" y="-6" on="1"/>
        <pt x="81" y="1" on="0"/>
        <pt x="82" y="22" on="0"/>
        <pt x="76" y="30" on="1"/>
        <pt x="76" y="40" on="0"/>
        <pt x="72" y="45" on="0"/>
        <pt x="72" y="47" on="1"/>
        <pt x="72" y="50" on="0"/>
        <pt x="73" y="57" on="0"/>
        <pt x="73" y="61" on="1"/>
        <pt x="73" y="70" on="0"/>
        <pt x="72" y="75" on="1"/>
        <pt x="73" y="81" on="0"/>
        <pt x="75" y="106" on="0"/>
        <pt x="77" y="133" on="0"/>
        <pt x="77" y="159" on="0"/>
        <pt x="77" y="167" on="1"/>
        <pt x="77" y="172" on="0"/>
        <pt x="81" y="179" on="0"/>
        <pt x="81" y="184" on="1"/>
        <pt x="81" y="192" on="0"/>
        <pt x="80" y="205" on="0"/>
        <pt x="80" y="212" on="1"/>
        <pt x="80" y="226" on="0"/>
        <pt x="81" y="254" on="0"/>
        <pt x="81" y="268" on="1"/>
        <pt x="81" y="311" on="0"/>
        <pt x="72" y="394" on="0"/>
        <pt x="72" y="436" on="1"/>
        <pt x="72" y="459" on="0"/>
        <pt x="68" y="514" on="0"/>
        <pt x="65" y="537" on="1"/>
        <pt x="65" y="542" on="0"/>
        <pt x="62" y="549" on="0"/>
        <pt x="62" y="553" on="1"/>
        <pt x="61" y="565" on="0"/>
        <pt x="61" y="590" on="0"/>
        <pt x="61" y="603" on="1"/>
        <pt x="61" y="611" on="0"/>
        <pt x="61" y="640" on="0"/>
        <pt x="61" y="671" on="0"/>
        <pt x="62" y="699" on="0"/>
        <pt x="63" y="705" on="1"/>
        <pt x="63" y="706" on="0"/>
        <pt x="75" y="711" on="0"/>
        <pt x="77" y="711" on="1"/>
        <pt x="82" y="711" on="0"/>
        <pt x="88" y="705" on="0"/>
        <pt x="92" y="702" on="1"/>
        <pt x="96" y="705" on="0"/>
        <pt x="105" y="705" on="0"/>
        <pt x="110" y="705" on="1"/>
        <pt x="125" y="708" on="0"/>
        <pt x="132" y="701" on="0"/>
        <pt x="134" y="701" on="1"/>
        <pt x="137" y="701" on="0"/>
        <pt x="141" y="707" on="0"/>
        <pt x="144" y="707" on="1"/>
        <pt x="152" y="707" on="0"/>
        <pt x="155" y="699" on="0"/>
        <pt x="159" y="699" on="1"/>
        <pt x="163" y="699" on="0"/>
        <pt x="167" y="705" on="0"/>
        <pt x="169" y="705" on="1"/>
        <pt x="172" y="705" on="0"/>
        <pt x="178" y="702" on="0"/>
        <pt x="181" y="702" on="1"/>
        <pt x="186" y="702" on="0"/>
        <pt x="198" y="709" on="0"/>
        <pt x="203" y="711" on="1"/>
        <pt x="211" y="713" on="0"/>
        <pt x="224" y="719" on="0"/>
        <pt x="231" y="721" on="1"/>
        <pt x="246" y="730" on="0"/>
        <pt x="261" y="735" on="0"/>
        <pt x="269" y="739" on="1"/>
        <pt x="286" y="747" on="0"/>
        <pt x="317" y="762" on="0"/>
        <pt x="334" y="769" on="1"/>
        <pt x="343" y="769" on="0"/>
        <pt x="346" y="773" on="1"/>
        <pt x="353" y="770" on="0"/>
        <pt x="364" y="772" on="1"/>
        <pt x="376" y="761" on="0"/>
        <pt x="383" y="749" on="0"/>
        <pt x="388" y="744" on="1"/>
        <pt x="394" y="736" on="0"/>
        <pt x="396" y="736" on="1"/>
        <pt x="396" y="733" on="0"/>
        <pt x="390" y="725" on="0"/>
      </contour>
    </TTGlyph>
    <TTGlyph name="G" xMin="-5" yMin="-15" xMax="595" yMax="773">
      <contour>
        <pt x="581" y="383" on="1"/>
        <pt x="583" y="376" on="0"/>
        <pt x="595" y="360" on="0"/>
        <pt x="595" y="356" on="1"/>
        <pt x="587" y="337" on="0"/>
        <pt x="579" y="316" on="0"/>
        <pt x="570" y="308" on="1"/>
        <pt x="570" y="305" on="0"/>
        <pt x="558" y="285" on="0"/>
        <pt x="543" y="262" on="0"/>
        <pt x="528" y="241" on="0"/>
        <pt x="526" y="237" on="1"/>
        <pt x="521" y="229" on="0"/>
        <pt x="515" y="214" on="0"/>
        <pt x="511" y="207" on="1"/>
        <pt x="502" y="191" on="0"/>
        <pt x="483" y="163" on="0"/>
        <pt x="475" y="146" on="1"/>
        <pt x="470" y="141" on="0"/>
        <pt x="462" y="129" on="0"/>
        <pt x="457" y="124" on="1"/>
        <pt x="445" y="102" on="0"/>
        <pt x="414" y="64" on="0"/>
        <pt x="401" y="41" on="1"/>
        <pt x="412" y="30" on="0"/>
        <pt x="412" y="13" on="1"/>
        <pt x="412" y="4" on="0"/>
        <pt x="402" y="3" on="0"/>
        <pt x="398" y="1" on="1"/>
        <pt x="388" y="-6" on="0"/>
        <pt x="372" y="-8" on="0"/>
        <pt x="367" y="-8" on="1"/>
        <pt x="356" y="-8" on="0"/>
        <pt x="330" y="-7" on="0"/>
        <pt x="321" y="-9" on="1"/>
        <pt x="318" y="-10" on="0"/>
        <pt x="310" y="-15" on="0"/>
        <pt x="308" y="-15" on="1"/>
        <pt x="300" y="-15" on="0"/>
        <pt x="293" y="-10" on="0"/>
        <pt x="287" y="-8" on="1"/>
        <pt x="279" y="1" on="0"/>
        <pt x="266" y="21" on="0"/>
        <pt x="259" y="31" on="1"/>
        <pt x="253" y="38" on="0"/>
        <pt x="239" y="49" on="0"/>
        <pt x="233" y="57" on="1"/>
        <pt x="217" y="80" on="0"/>
        <pt x="184" y="122" on="0"/>
        <pt x="167" y="143" on="1"/>
        <pt x="159" y="154" on="0"/>
        <pt x="140" y="174" on="0"/>
        <pt x="132" y="184" on="1"/>
        <pt x="124" y="195" on="0"/>
        <pt x="110" y="219" on="0"/>
        <pt x="102" y="230" on="1"/>
        <pt x="96" y="240" on="0"/>
        <pt x="74" y="269" on="0"/>
        <pt x="50" y="299" on="0"/>
        <pt x="25" y="326" on="0"/>
        <pt x="16" y="333" on="1"/>
        <pt x="16" y="340" on="0"/>
        <pt x="8" y="346" on="0"/>
        <pt x="3" y="350" on="1"/>
        <pt x="1" y="355" on="0"/>
        <pt x="-5" y="364" on="0"/>
        <pt x="-5" y="370" on="1"/>
        <pt x="-5" y="377" on="0"/>
        <pt x="-2" y="383" on="1"/>
        <pt x="0" y="387" on="0"/>
        <pt x="1" y="394" on="0"/>
        <pt x="3" y="398" on="1"/>
        <pt x="8" y="411" on="0"/>
        <pt x="27" y="431" on="0"/>
        <pt x="32" y="444" on="1"/>
        <pt x="33" y="448" on="0"/>
        <pt x="33" y="455" on="0"/>
        <pt x="35" y="459" on="1"/>
        <pt x="38" y="466" on="0"/>
        <pt x="50" y="477" on="0"/>
        <pt x="55" y="484" on="1"/>
        <pt x="60" y="493" on="0"/>
        <pt x="70" y="511" on="0"/>
        <pt x="75" y="520" on="1"/>
        <pt x="89" y="543" on="0"/>
        <pt x="123" y="586" on="0"/>
        <pt x="138" y="607" on="1"/>
        <pt x="152" y="627" on="0"/>
        <pt x="176" y="666" on="0"/>
        <pt x="190" y="686" on="1"/>
        <pt x="197" y="696" on="0"/>
        <pt x="215" y="721" on="0"/>
        <pt x="234" y="745" on="0"/>
        <pt x="254" y="766" on="0"/>
        <pt x="264" y="771" on="1"/>
        <pt x="281" y="773" on="0"/>
        <pt x="291" y="758" on="0"/>
        <pt x="300" y="758" on="1"/>
        <pt x="314" y="755" on="0"/>
        <pt x="324" y="743" on="0"/>
        <pt x="329" y="738" on="1"/>
        <pt x="342" y="738" on="0"/>
        <pt x="360" y="728" on="0"/>
        <pt x="369" y="718" on="1"/>
        <pt x="365" y="707" on="0"/>
        <pt x="352" y="689" on="0"/>
        <pt x="347" y="679" on="1"/>
        <pt x="339" y="676" on="0"/>
        <pt x="332" y="662" on="0"/>
        <pt x="325" y="657" on="1"/>
        <pt x="314" y="640" on="0"/>
        <pt x="292" y="607" on="0"/>
        <pt x="281" y="592" on="1"/>
        <pt x="276" y="586" on="0"/>
        <pt x="264" y="579" on="0"/>
        <pt x="259" y="572" on="1"/>
        <pt x="257" y="569" on="0"/>
        <pt x="255" y="562" on="0"/>
        <pt x="253" y="559" on="1"/>
        <pt x="241" y="540" on="0"/>
        <pt x="211" y="504" on="0"/>
        <pt x="200" y="484" on="1"/>
        <pt x="195" y="477" on="0"/>
        <pt x="189" y="462" on="0"/>
        <pt x="185" y="455" on="1"/>
        <pt x="181" y="448" on="0"/>
        <pt x="166" y="427" on="0"/>
        <pt x="151" y="405" on="0"/>
        <pt x="140" y="383" on="0"/>
        <pt x="140" y="376" on="1"/>
        <pt x="141" y="371" on="0"/>
        <pt x="165" y="341" on="0"/>
        <pt x="195" y="307" on="0"/>
        <pt x="222" y="276" on="0"/>
        <pt x="225" y="273" on="1"/>
        <pt x="227" y="268" on="0"/>
        <pt x="253" y="235" on="0"/>
        <pt x="286" y="196" on="0"/>
        <pt x="318" y="160" on="0"/>
        <pt x="324" y="152" on="1"/>
        <pt x="332" y="139" on="1"/>
        <pt x="334" y="140" on="0"/>
        <pt x="351" y="166" on="0"/>
        <pt x="369" y="198" on="0"/>
        <pt x="384" y="226" on="0"/>
        <pt x="386" y="230" on="1"/>
        <pt x="389" y="233" on="0"/>
        <pt x="403" y="259" on="0"/>
        <pt x="420" y="289" on="0"/>
        <pt x="433" y="315" on="0"/>
        <pt x="434" y="319" on="1"/>
        <pt x="422" y="319" on="1"/>
        <pt x="406" y="319" on="0"/>
        <pt x="375" y="316" on="0"/>
        <pt x="359" y="311" on="1"/>
        <pt x="352" y="312" on="0"/>
        <pt x="342" y="318" on="0"/>
        <pt x="335" y="321" on="1"/>
        <pt x="332" y="331" on="0"/>
        <pt x="333" y="339" on="0"/>
        <pt x="332" y="341" on="1"/>
        <pt x="331" y="345" on="0"/>
        <pt x="328" y="349" on="0"/>
        <pt x="328" y="353" on="1"/>
        <pt x="328" y="360" on="0"/>
        <pt x="324" y="369" on="0"/>
        <pt x="322" y="375" on="1"/>
        <pt x="322" y="379" on="0"/>
        <pt x="323" y="387" on="0"/>
        <pt x="321" y="390" on="1"/>
        <pt x="323" y="408" on="0"/>
        <pt x="318" y="416" on="1"/>
        <pt x="318" y="430" on="0"/>
        <pt x="326" y="438" on="0"/>
        <pt x="328" y="446" on="1"/>
        <pt x="337" y="443" on="0"/>
        <pt x="350" y="452" on="0"/>
        <pt x="357" y="452" on="1"/>
        <pt x="373" y="452" on="0"/>
        <pt x="383" y="457" on="1"/>
        <pt x="392" y="458" on="0"/>
        <pt x="411" y="458" on="0"/>
        <pt x="420" y="460" on="1"/>
        <pt x="425" y="461" on="0"/>
        <pt x="432" y="463" on="0"/>
        <pt x="437" y="464" on="1"/>
        <pt x="443" y="465" on="0"/>
        <pt x="457" y="465" on="0"/>
        <pt x="463" y="465" on="1"/>
        <pt x="479" y="467" on="0"/>
        <pt x="511" y="468" on="0"/>
        <pt x="527" y="469" on="1"/>
        <pt x="532" y="467" on="0"/>
        <pt x="541" y="465" on="0"/>
        <pt x="545" y="463" on="1"/>
        <pt x="548" y="461" on="0"/>
        <pt x="552" y="456" on="0"/>
        <pt x="557" y="455" on="1"/>
        <pt x="562" y="450" on="0"/>
        <pt x="564" y="445" on="1"/>
        <pt x="562" y="436" on="0"/>
        <pt x="565" y="432" on="1"/>
        <pt x="560" y="427" on="0"/>
        <pt x="559" y="410" on="0"/>
        <pt x="558" y="403" on="1"/>
        <pt x="565" y="401" on="0"/>
        <pt x="575" y="383" on="0"/>
        <pt x="577" y="383" on="1"/>
      </contour>
    </TTGlyph>
    <TTGlyph name="H" xMin="61" yMin="-13" xMax="534" yMax="743">
      <contour>
        <pt x="488" y="740" on="1"/>
        <pt x="500" y="743" on="0"/>
        <pt x="510" y="742" on="0"/>
        <pt x="515" y="741" on="1"/>
        <pt x="521" y="737" on="0"/>
        <pt x="525" y="731" on="1"/>
        <pt x="525" y="710" on="0"/>
        <pt x="524" y="669" on="0"/>
        <pt x="524" y="648" on="1"/>
        <pt x="524" y="610" on="0"/>
        <pt x="526" y="534" on="0"/>
        <pt x="525" y="496" on="1"/>
        <pt x="527" y="487" on="0"/>
        <pt x="525" y="485" on="0"/>
        <pt x="525" y="483" on="1"/>
        <pt x="525" y="445" on="0"/>
        <pt x="529" y="371" on="0"/>
        <pt x="529" y="333" on="1"/>
        <pt x="529" y="200" on="1"/>
        <pt x="529" y="157" on="0"/>
        <pt x="534" y="73" on="0"/>
        <pt x="534" y="31" on="1"/>
        <pt x="534" y="27" on="0"/>
        <pt x="529" y="20" on="1"/>
        <pt x="527" y="12" on="0"/>
        <pt x="523" y="7" on="1"/>
        <pt x="514" y="6" on="0"/>
        <pt x="506" y="10" on="1"/>
        <pt x="502" y="10" on="0"/>
        <pt x="499" y="5" on="0"/>
        <pt x="496" y="3" on="1"/>
        <pt x="488" y="3" on="0"/>
        <pt x="478" y="-5" on="0"/>
        <pt x="471" y="-5" on="1"/>
        <pt x="465" y="-5" on="0"/>
        <pt x="454" y="-2" on="0"/>
        <pt x="447" y="-2" on="1"/>
        <pt x="445" y="-2" on="0"/>
        <pt x="437" y="-9" on="0"/>
        <pt x="435" y="-10" on="1"/>
        <pt x="430" y="-10" on="0"/>
        <pt x="422" y="-13" on="0"/>
        <pt x="417" y="-13" on="1"/>
        <pt x="412" y="-9" on="0"/>
        <pt x="413" y="7" on="0"/>
        <pt x="406" y="9" on="1"/>
        <pt x="406" y="14" on="0"/>
        <pt x="407" y="26" on="0"/>
        <pt x="407" y="32" on="1"/>
        <pt x="407" y="71" on="0"/>
        <pt x="403" y="150" on="0"/>
        <pt x="402" y="189" on="1"/>
        <pt x="401" y="206" on="0"/>
        <pt x="402" y="239" on="0"/>
        <pt x="402" y="256" on="1"/>
        <pt x="402" y="265" on="0"/>
        <pt x="402" y="283" on="0"/>
        <pt x="400" y="291" on="1"/>
        <pt x="394" y="292" on="0"/>
        <pt x="385" y="287" on="0"/>
        <pt x="380" y="287" on="1"/>
        <pt x="359" y="280" on="0"/>
        <pt x="352" y="273" on="1"/>
        <pt x="346" y="273" on="0"/>
        <pt x="338" y="269" on="0"/>
        <pt x="333" y="267" on="1"/>
        <pt x="325" y="265" on="0"/>
        <pt x="310" y="262" on="0"/>
        <pt x="302" y="259" on="1"/>
        <pt x="297" y="257" on="0"/>
        <pt x="287" y="253" on="0"/>
        <pt x="282" y="251" on="1"/>
        <pt x="271" y="247" on="0"/>
        <pt x="249" y="240" on="0"/>
        <pt x="238" y="236" on="1"/>
        <pt x="227" y="234" on="0"/>
        <pt x="211" y="226" on="0"/>
        <pt x="203" y="222" on="1"/>
        <pt x="196" y="175" on="0"/>
        <pt x="195" y="90" on="0"/>
        <pt x="198" y="48" on="1"/>
        <pt x="196" y="42" on="0"/>
        <pt x="196" y="27" on="0"/>
        <pt x="193" y="22" on="1"/>
        <pt x="182" y="19" on="0"/>
        <pt x="175" y="24" on="0"/>
        <pt x="171" y="26" on="1"/>
        <pt x="167" y="25" on="0"/>
        <pt x="162" y="19" on="0"/>
        <pt x="160" y="17" on="1"/>
        <pt x="152" y="17" on="0"/>
        <pt x="143" y="10" on="0"/>
        <pt x="139" y="8" on="1"/>
        <pt x="136" y="7" on="0"/>
        <pt x="130" y="9" on="0"/>
        <pt x="126" y="7" on="1"/>
        <pt x="116" y="7" on="0"/>
        <pt x="117" y="12" on="0"/>
        <pt x="114" y="12" on="1"/>
        <pt x="110" y="12" on="0"/>
        <pt x="107" y="5" on="0"/>
        <pt x="103" y="3" on="1"/>
        <pt x="99" y="1" on="0"/>
        <pt x="89" y="0" on="0"/>
        <pt x="84" y="-2" on="1"/>
        <pt x="79" y="3" on="0"/>
        <pt x="79" y="15" on="0"/>
        <pt x="74" y="20" on="1"/>
        <pt x="72" y="34" on="0"/>
        <pt x="71" y="61" on="0"/>
        <pt x="68" y="75" on="1"/>
        <pt x="70" y="103" on="0"/>
        <pt x="69" y="137" on="0"/>
        <pt x="69" y="155" on="1"/>
        <pt x="69" y="171" on="0"/>
        <pt x="67" y="203" on="0"/>
        <pt x="66" y="219" on="1"/>
        <pt x="64" y="248" on="0"/>
        <pt x="61" y="308" on="0"/>
        <pt x="61" y="338" on="1"/>
        <pt x="61" y="363" on="0"/>
        <pt x="66" y="411" on="0"/>
        <pt x="66" y="436" on="1"/>
        <pt x="66" y="453" on="0"/>
        <pt x="67" y="486" on="0"/>
        <pt x="67" y="503" on="1"/>
        <pt x="67" y="517" on="0"/>
        <pt x="66" y="544" on="0"/>
        <pt x="66" y="557" on="1"/>
        <pt x="66" y="572" on="0"/>
        <pt x="70" y="601" on="0"/>
        <pt x="70" y="615" on="1"/>
        <pt x="70" y="632" on="0"/>
        <pt x="66" y="665" on="0"/>
        <pt x="66" y="682" on="1"/>
        <pt x="66" y="687" on="0"/>
        <pt x="68" y="696" on="0"/>
        <pt x="68" y="701" on="1"/>
        <pt x="67" y="712" on="0"/>
        <pt x="71" y="717" on="0"/>
        <pt x="73" y="721" on="1"/>
        <pt x="78" y="722" on="0"/>
        <pt x="90" y="726" on="0"/>
        <pt x="95" y="724" on="1"/>
        <pt x="101" y="730" on="0"/>
        <pt x="122" y="730" on="0"/>
        <pt x="127" y="737" on="1"/>
        <pt x="134" y="736" on="0"/>
        <pt x="139" y="737" on="0"/>
        <pt x="141" y="737" on="1"/>
        <pt x="150" y="735" on="0"/>
        <pt x="151" y="740" on="0"/>
        <pt x="154" y="740" on="1"/>
        <pt x="159" y="740" on="0"/>
        <pt x="180" y="739" on="0"/>
        <pt x="184" y="735" on="1"/>
        <pt x="194" y="682" on="0"/>
        <pt x="196" y="572" on="0"/>
        <pt x="196" y="518" on="1"/>
        <pt x="196" y="504" on="0"/>
        <pt x="198" y="475" on="0"/>
        <pt x="196" y="461" on="1"/>
        <pt x="196" y="455" on="0"/>
        <pt x="194" y="444" on="0"/>
        <pt x="194" y="438" on="1"/>
        <pt x="194" y="421" on="0"/>
        <pt x="190" y="384" on="0"/>
        <pt x="190" y="367" on="1"/>
        <pt x="202" y="360" on="0"/>
        <pt x="219" y="365" on="0"/>
        <pt x="227" y="368" on="1"/>
        <pt x="237" y="371" on="0"/>
        <pt x="254" y="378" on="0"/>
        <pt x="263" y="381" on="1"/>
        <pt x="271" y="385" on="0"/>
        <pt x="290" y="390" on="0"/>
        <pt x="298" y="392" on="1"/>
        <pt x="324" y="401" on="0"/>
        <pt x="374" y="427" on="0"/>
        <pt x="400" y="435" on="1"/>
        <pt x="398" y="490" on="0"/>
        <pt x="398" y="599" on="0"/>
        <pt x="398" y="653" on="1"/>
        <pt x="398" y="668" on="0"/>
        <pt x="398" y="700" on="0"/>
        <pt x="400" y="715" on="1"/>
        <pt x="401" y="719" on="0"/>
        <pt x="404" y="724" on="0"/>
        <pt x="404" y="729" on="1"/>
        <pt x="407" y="734" on="0"/>
        <pt x="415" y="738" on="0"/>
        <pt x="417" y="742" on="1"/>
        <pt x="419" y="740" on="0"/>
        <pt x="424" y="737" on="0"/>
        <pt x="427" y="736" on="1"/>
        <pt x="435" y="738" on="0"/>
        <pt x="438" y="740" on="0"/>
        <pt x="440" y="741" on="1"/>
        <pt x="445" y="743" on="0"/>
        <pt x="461" y="743" on="0"/>
        <pt x="466" y="743" on="1"/>
        <pt x="478" y="743" on="1"/>
      </contour>
    </TTGlyph>
    <TTGlyph name="I" xMin="10" yMin="-17" xMax="367" yMax="764">
      <contour>
        <pt x="366" y="115" on="1"/>
        <pt x="364" y="109" on="0"/>
        <pt x="364" y="104" on="1"/>
        <pt x="364" y="98" on="0"/>
        <pt x="367" y="86" on="0"/>
        <pt x="367" y="80" on="1"/>
        <pt x="365" y="62" on="0"/>
        <pt x="364" y="58" on="1"/>
        <pt x="358" y="53" on="0"/>
        <pt x="321" y="40" on="0"/>
        <pt x="270" y="27" on="0"/>
        <pt x="211" y="14" on="0"/>
        <pt x="157" y="2" on="0"/>
        <pt x="112" y="-7" on="0"/>
        <pt x="101" y="-9" on="1"/>
        <pt x="96" y="-10" on="0"/>
        <pt x="87" y="-13" on="0"/>
        <pt x="82" y="-15" on="1"/>
        <pt x="77" y="-16" on="0"/>
        <pt x="67" y="-15" on="0"/>
        <pt x="62" y="-17" on="1"/>
        <pt x="59" y="-17" on="0"/>
        <pt x="54" y="-11" on="0"/>
        <pt x="52" y="-9" on="1"/>
        <pt x="52" y="-3" on="0"/>
        <pt x="48" y="3" on="0"/>
        <pt x="43" y="7" on="0"/>
        <pt x="39" y="12" on="0"/>
        <pt x="39" y="18" on="1"/>
        <pt x="37" y="26" on="0"/>
        <pt x="30" y="35" on="0"/>
        <pt x="30" y="39" on="1"/>
        <pt x="26" y="52" on="0"/>
        <pt x="26" y="62" on="1"/>
        <pt x="26" y="67" on="0"/>
        <pt x="28" y="73" on="0"/>
        <pt x="30" y="76" on="1"/>
        <pt x="36" y="78" on="0"/>
        <pt x="42" y="84" on="0"/>
        <pt x="47" y="86" on="1"/>
        <pt x="53" y="89" on="0"/>
        <pt x="75" y="94" on="0"/>
        <pt x="101" y="100" on="0"/>
        <pt x="125" y="106" on="0"/>
        <pt x="133" y="109" on="1"/>
        <pt x="136" y="110" on="0"/>
        <pt x="142" y="110" on="0"/>
        <pt x="144" y="112" on="1"/>
        <pt x="142" y="128" on="0"/>
        <pt x="141" y="160" on="0"/>
        <pt x="139" y="175" on="1"/>
        <pt x="139" y="182" on="0"/>
        <pt x="137" y="196" on="0"/>
        <pt x="137" y="202" on="1"/>
        <pt x="138" y="223" on="1"/>
        <pt x="138" y="261" on="0"/>
        <pt x="132" y="337" on="0"/>
        <pt x="132" y="375" on="1"/>
        <pt x="132" y="409" on="1"/>
        <pt x="132" y="417" on="0"/>
        <pt x="131" y="431" on="0"/>
        <pt x="131" y="439" on="1"/>
        <pt x="131" y="458" on="0"/>
        <pt x="132" y="493" on="0"/>
        <pt x="132" y="512" on="1"/>
        <pt x="132" y="604" on="1"/>
        <pt x="110" y="609" on="0"/>
        <pt x="72" y="598" on="0"/>
        <pt x="52" y="596" on="1"/>
        <pt x="45" y="603" on="0"/>
        <pt x="44" y="611" on="1"/>
        <pt x="36" y="622" on="0"/>
        <pt x="30" y="628" on="0"/>
        <pt x="26" y="642" on="1"/>
        <pt x="19" y="656" on="0"/>
        <pt x="10" y="663" on="0"/>
        <pt x="10" y="671" on="1"/>
        <pt x="10" y="676" on="0"/>
        <pt x="15" y="680" on="0"/>
        <pt x="17" y="685" on="1"/>
        <pt x="26" y="689" on="0"/>
        <pt x="29" y="692" on="0"/>
        <pt x="31" y="693" on="1"/>
        <pt x="41" y="700" on="0"/>
        <pt x="67" y="706" on="0"/>
        <pt x="79" y="710" on="1"/>
        <pt x="89" y="713" on="0"/>
        <pt x="107" y="721" on="0"/>
        <pt x="118" y="724" on="1"/>
        <pt x="131" y="728" on="0"/>
        <pt x="157" y="736" on="0"/>
        <pt x="169" y="739" on="1"/>
        <pt x="177" y="741" on="0"/>
        <pt x="192" y="740" on="0"/>
        <pt x="200" y="745" on="1"/>
        <pt x="213" y="743" on="0"/>
        <pt x="242" y="748" on="0"/>
        <pt x="276" y="756" on="0"/>
        <pt x="308" y="762" on="0"/>
        <pt x="316" y="764" on="1"/>
        <pt x="321" y="762" on="0"/>
        <pt x="325" y="756" on="0"/>
        <pt x="329" y="755" on="1"/>
        <pt x="330" y="752" on="0"/>
        <pt x="332" y="743" on="0"/>
        <pt x="335" y="741" on="1"/>
        <pt x="335" y="730" on="0"/>
        <pt x="340" y="725" on="1"/>
        <pt x="339" y="715" on="0"/>
        <pt x="348" y="690" on="0"/>
        <pt x="348" y="679" on="1"/>
        <pt x="343" y="664" on="0"/>
        <pt x="320" y="656" on="0"/>
        <pt x="293" y="650" on="0"/>
        <pt x="267" y="645" on="0"/>
        <pt x="259" y="642" on="1"/>
        <pt x="259" y="628" on="0"/>
        <pt x="260" y="598" on="0"/>
        <pt x="260" y="583" on="1"/>
        <pt x="260" y="569" on="0"/>
        <pt x="259" y="541" on="0"/>
        <pt x="259" y="527" on="1"/>
        <pt x="259" y="506" on="0"/>
        <pt x="258" y="462" on="0"/>
        <pt x="258" y="440" on="1"/>
        <pt x="258" y="409" on="0"/>
        <pt x="260" y="347" on="0"/>
        <pt x="262" y="316" on="1"/>
        <pt x="263" y="311" on="0"/>
        <pt x="263" y="301" on="1"/>
        <pt x="263" y="261" on="0"/>
        <pt x="266" y="184" on="0"/>
        <pt x="270" y="143" on="1"/>
        <pt x="283" y="142" on="0"/>
        <pt x="290" y="147" on="1"/>
        <pt x="295" y="147" on="0"/>
        <pt x="304" y="151" on="0"/>
        <pt x="308" y="153" on="1"/>
        <pt x="314" y="154" on="0"/>
        <pt x="335" y="159" on="0"/>
        <pt x="338" y="159" on="1"/>
        <pt x="347" y="158" on="0"/>
        <pt x="349" y="159" on="1"/>
        <pt x="352" y="153" on="0"/>
        <pt x="358" y="150" on="1"/>
        <pt x="360" y="141" on="0"/>
        <pt x="363" y="124" on="0"/>
      </contour>
    </TTGlyph>
    <TTGlyph name="Iacute" xMin="10" yMin="-17" xMax="367" yMax="982">
      <component glyphName="I" x="0" y="0" flags="0x204"/>
      <component glyphName="acute" x="10" y="215" flags="0x4"/>
    </TTGlyph>
    <TTGlyph name="Icircumflex" xMin="10" yMin="-17" xMax="367" yMax="970">
      <component glyphName="I" x="0" y="0" flags="0x204"/>
      <component glyphName="circumflex" x="-40" y="143" flags="0x4"/>
    </TTGlyph>
    <TTGlyph name="Idieresis" xMin="10" yMin="-17" xMax="367" yMax="928">
      <component glyphName="I" x="0" y="0" flags="0x204"/>
      <component glyphName="dieresis" x="-30" y="164" flags="0x4"/>
    </TTGlyph>
    <TTGlyph name="Igrave" xMin="10" yMin="-17" xMax="367" yMax="972">
      <component glyphName="I" x="0" y="0" flags="0x204"/>
      <component glyphName="grave" x="-50" y="205" flags="0x4"/>
    </TTGlyph>
    <TTGlyph name="J" xMin="15" yMin="-12" xMax="375" yMax="750">
      <contour>
        <pt x="368" y="5" on="1"/>
        <pt x="362" y="5" on="0"/>
        <pt x="354" y="0" on="0"/>
        <pt x="349" y="-2" on="1"/>
        <pt x="341" y="-7" on="0"/>
        <pt x="342" y="-12" on="0"/>
        <pt x="339" y="-12" on="1"/>
        <pt x="330" y="-12" on="0"/>
        <pt x="313" y="-6" on="0"/>
        <pt x="304" y="-6" on="1"/>
        <pt x="296" y="-2" on="0"/>
        <pt x="282" y="7" on="0"/>
        <pt x="275" y="14" on="1"/>
        <pt x="266" y="14" on="0"/>
        <pt x="259" y="11" on="0"/>
        <pt x="254" y="12" on="1"/>
        <pt x="241" y="17" on="0"/>
        <pt x="219" y="36" on="0"/>
        <pt x="205" y="41" on="1"/>
        <pt x="201" y="46" on="0"/>
        <pt x="191" y="51" on="0"/>
        <pt x="186" y="55" on="1"/>
        <pt x="177" y="59" on="0"/>
        <pt x="142" y="81" on="0"/>
        <pt x="103" y="106" on="0"/>
        <pt x="69" y="130" on="0"/>
        <pt x="62" y="137" on="1"/>
        <pt x="58" y="138" on="0"/>
        <pt x="42" y="149" on="0"/>
        <pt x="27" y="163" on="0"/>
        <pt x="15" y="177" on="0"/>
        <pt x="15" y="182" on="1"/>
        <pt x="15" y="187" on="0"/>
        <pt x="25" y="194" on="0"/>
        <pt x="27" y="199" on="1"/>
        <pt x="28" y="201" on="0"/>
        <pt x="27" y="208" on="0"/>
        <pt x="28" y="210" on="1"/>
        <pt x="33" y="218" on="0"/>
        <pt x="34" y="227" on="0"/>
        <pt x="35" y="231" on="1"/>
        <pt x="40" y="237" on="0"/>
        <pt x="48" y="247" on="0"/>
        <pt x="53" y="253" on="1"/>
        <pt x="52" y="264" on="0"/>
        <pt x="62" y="274" on="0"/>
        <pt x="68" y="279" on="1"/>
        <pt x="73" y="279" on="0"/>
        <pt x="87" y="277" on="0"/>
        <pt x="92" y="275" on="1"/>
        <pt x="102" y="270" on="0"/>
        <pt x="102" y="267" on="0"/>
        <pt x="104" y="265" on="1"/>
        <pt x="109" y="261" on="0"/>
        <pt x="119" y="255" on="0"/>
        <pt x="124" y="252" on="1"/>
        <pt x="135" y="244" on="0"/>
        <pt x="158" y="228" on="0"/>
        <pt x="170" y="220" on="1"/>
        <pt x="184" y="212" on="0"/>
        <pt x="223" y="186" on="0"/>
        <pt x="239" y="180" on="1"/>
        <pt x="241" y="186" on="0"/>
        <pt x="241" y="196" on="1"/>
        <pt x="241" y="203" on="0"/>
        <pt x="240" y="217" on="0"/>
        <pt x="240" y="225" on="1"/>
        <pt x="240" y="236" on="0"/>
        <pt x="236" y="258" on="0"/>
        <pt x="234" y="268" on="1"/>
        <pt x="229" y="316" on="0"/>
        <pt x="228" y="362" on="1"/>
        <pt x="227" y="376" on="0"/>
        <pt x="225" y="402" on="0"/>
        <pt x="225" y="416" on="1"/>
        <pt x="225" y="435" on="0"/>
        <pt x="226" y="473" on="0"/>
        <pt x="226" y="493" on="1"/>
        <pt x="226" y="510" on="0"/>
        <pt x="228" y="544" on="0"/>
        <pt x="228" y="561" on="1"/>
        <pt x="228" y="578" on="0"/>
        <pt x="229" y="608" on="0"/>
        <pt x="229" y="625" on="1"/>
        <pt x="229" y="650" on="0"/>
        <pt x="228" y="710" on="0"/>
        <pt x="231" y="735" on="1"/>
        <pt x="233" y="745" on="0"/>
        <pt x="237" y="750" on="1"/>
        <pt x="255" y="749" on="0"/>
        <pt x="277" y="748" on="0"/>
        <pt x="291" y="748" on="1"/>
        <pt x="295" y="748" on="0"/>
        <pt x="300" y="743" on="0"/>
        <pt x="303" y="743" on="1"/>
        <pt x="307" y="743" on="0"/>
        <pt x="312" y="746" on="0"/>
        <pt x="316" y="746" on="1"/>
        <pt x="323" y="746" on="0"/>
        <pt x="329" y="740" on="1"/>
        <pt x="340" y="743" on="0"/>
        <pt x="346" y="741" on="1"/>
        <pt x="351" y="736" on="0"/>
        <pt x="354" y="718" on="0"/>
        <pt x="356" y="710" on="1"/>
        <pt x="356" y="701" on="0"/>
        <pt x="357" y="691" on="0"/>
        <pt x="357" y="686" on="1"/>
        <pt x="357" y="675" on="0"/>
        <pt x="355" y="653" on="0"/>
        <pt x="355" y="642" on="1"/>
        <pt x="355" y="629" on="0"/>
        <pt x="358" y="603" on="0"/>
        <pt x="358" y="590" on="1"/>
        <pt x="358" y="576" on="0"/>
        <pt x="356" y="552" on="0"/>
        <pt x="356" y="539" on="1"/>
        <pt x="356" y="529" on="0"/>
        <pt x="357" y="511" on="0"/>
        <pt x="357" y="502" on="1"/>
        <pt x="357" y="481" on="0"/>
        <pt x="356" y="439" on="0"/>
        <pt x="356" y="418" on="1"/>
        <pt x="356" y="413" on="0"/>
        <pt x="357" y="399" on="0"/>
        <pt x="356" y="393" on="1"/>
        <pt x="356" y="388" on="0"/>
        <pt x="352" y="382" on="1"/>
        <pt x="354" y="349" on="0"/>
        <pt x="357" y="283" on="0"/>
        <pt x="359" y="250" on="1"/>
        <pt x="359" y="242" on="0"/>
        <pt x="361" y="223" on="0"/>
        <pt x="362" y="214" on="1"/>
        <pt x="364" y="203" on="0"/>
        <pt x="364" y="181" on="0"/>
        <pt x="365" y="170" on="1"/>
        <pt x="366" y="156" on="0"/>
        <pt x="369" y="129" on="0"/>
        <pt x="370" y="115" on="1"/>
        <pt x="371" y="104" on="0"/>
        <pt x="375" y="82" on="0"/>
        <pt x="375" y="71" on="1"/>
        <pt x="375" y="57" on="0"/>
        <pt x="373" y="18" on="0"/>
      </contour>
    </TTGlyph>
    <TTGlyph name="K" xMin="61" yMin="-22" xMax="552" yMax="760">
      <contour>
        <pt x="480" y="-2" on="1"/>
        <pt x="475" y="-14" on="0"/>
        <pt x="459" y="-22" on="1"/>
        <pt x="452" y="-18" on="0"/>
        <pt x="441" y="-7" on="0"/>
        <pt x="433" y="-4" on="1"/>
        <pt x="427" y="8" on="0"/>
        <pt x="421" y="13" on="0"/>
        <pt x="417" y="14" on="1"/>
        <pt x="411" y="19" on="0"/>
        <pt x="403" y="33" on="0"/>
        <pt x="398" y="38" on="1"/>
        <pt x="396" y="39" on="0"/>
        <pt x="385" y="50" on="0"/>
        <pt x="373" y="62" on="0"/>
        <pt x="363" y="73" on="0"/>
        <pt x="362" y="73" on="1"/>
        <pt x="353" y="79" on="0"/>
        <pt x="346" y="86" on="1"/>
        <pt x="344" y="89" on="0"/>
        <pt x="339" y="96" on="0"/>
        <pt x="337" y="98" on="1"/>
        <pt x="329" y="101" on="0"/>
        <pt x="319" y="112" on="0"/>
        <pt x="310" y="126" on="0"/>
        <pt x="299" y="137" on="0"/>
        <pt x="292" y="140" on="1"/>
        <pt x="285" y="150" on="0"/>
        <pt x="265" y="163" on="0"/>
        <pt x="258" y="172" on="1"/>
        <pt x="252" y="179" on="0"/>
        <pt x="238" y="192" on="0"/>
        <pt x="230" y="198" on="1"/>
        <pt x="226" y="204" on="0"/>
        <pt x="208" y="227" on="0"/>
        <pt x="201" y="228" on="1"/>
        <pt x="200" y="205" on="0"/>
        <pt x="199" y="159" on="0"/>
        <pt x="198" y="136" on="1"/>
        <pt x="198" y="124" on="0"/>
        <pt x="199" y="98" on="0"/>
        <pt x="198" y="85" on="1"/>
        <pt x="197" y="80" on="0"/>
        <pt x="194" y="69" on="0"/>
        <pt x="194" y="63" on="1"/>
        <pt x="194" y="51" on="0"/>
        <pt x="191" y="44" on="0"/>
        <pt x="190" y="41" on="1"/>
        <pt x="187" y="31" on="0"/>
        <pt x="182" y="2" on="0"/>
        <pt x="174" y="-6" on="1"/>
        <pt x="163" y="-7" on="0"/>
        <pt x="157" y="-4" on="1"/>
        <pt x="155" y="-6" on="0"/>
        <pt x="151" y="-10" on="0"/>
        <pt x="147" y="-10" on="1"/>
        <pt x="145" y="-8" on="0"/>
        <pt x="136" y="-5" on="0"/>
        <pt x="134" y="-5" on="1"/>
        <pt x="129" y="-5" on="0"/>
        <pt x="118" y="-9" on="0"/>
        <pt x="113" y="-9" on="1"/>
        <pt x="108" y="-9" on="0"/>
        <pt x="101" y="-4" on="0"/>
        <pt x="96" y="-4" on="1"/>
        <pt x="93" y="-4" on="0"/>
        <pt x="85" y="-10" on="0"/>
        <pt x="81" y="-10" on="1"/>
        <pt x="76" y="-10" on="0"/>
        <pt x="69" y="-7" on="0"/>
        <pt x="65" y="-6" on="1"/>
        <pt x="65" y="-3" on="0"/>
        <pt x="66" y="3" on="0"/>
        <pt x="65" y="6" on="1"/>
        <pt x="61" y="31" on="1"/>
        <pt x="62" y="38" on="0"/>
        <pt x="65" y="52" on="0"/>
        <pt x="66" y="58" on="1"/>
        <pt x="67" y="74" on="0"/>
        <pt x="68" y="103" on="0"/>
        <pt x="68" y="118" on="1"/>
        <pt x="68" y="144" on="0"/>
        <pt x="67" y="194" on="0"/>
        <pt x="68" y="220" on="1"/>
        <pt x="69" y="229" on="0"/>
        <pt x="72" y="248" on="0"/>
        <pt x="72" y="257" on="1"/>
        <pt x="72" y="283" on="0"/>
        <pt x="78" y="333" on="0"/>
        <pt x="80" y="359" on="1"/>
        <pt x="82" y="379" on="0"/>
        <pt x="82" y="417" on="0"/>
        <pt x="82" y="436" on="1"/>
        <pt x="82" y="473" on="0"/>
        <pt x="80" y="546" on="0"/>
        <pt x="80" y="582" on="1"/>
        <pt x="80" y="594" on="0"/>
        <pt x="82" y="635" on="0"/>
        <pt x="79" y="646" on="1"/>
        <pt x="80" y="675" on="0"/>
        <pt x="79" y="703" on="1"/>
        <pt x="83" y="705" on="0"/>
        <pt x="84" y="713" on="0"/>
        <pt x="84" y="717" on="1"/>
        <pt x="84" y="731" on="1"/>
        <pt x="93" y="741" on="0"/>
        <pt x="99" y="741" on="1"/>
        <pt x="104" y="741" on="0"/>
        <pt x="114" y="739" on="0"/>
        <pt x="119" y="736" on="1"/>
        <pt x="132" y="739" on="0"/>
        <pt x="140" y="735" on="0"/>
        <pt x="145" y="733" on="1"/>
        <pt x="153" y="734" on="0"/>
        <pt x="156" y="740" on="1"/>
        <pt x="167" y="738" on="0"/>
        <pt x="167" y="732" on="0"/>
        <pt x="169" y="729" on="1"/>
        <pt x="179" y="728" on="0"/>
        <pt x="186" y="733" on="0"/>
        <pt x="191" y="734" on="1"/>
        <pt x="200" y="732" on="0"/>
        <pt x="203" y="729" on="1"/>
        <pt x="203" y="723" on="0"/>
        <pt x="209" y="708" on="0"/>
        <pt x="209" y="696" on="1"/>
        <pt x="209" y="687" on="0"/>
        <pt x="207" y="670" on="0"/>
        <pt x="207" y="662" on="1"/>
        <pt x="207" y="648" on="0"/>
        <pt x="209" y="622" on="0"/>
        <pt x="209" y="608" on="1"/>
        <pt x="209" y="604" on="0"/>
        <pt x="208" y="597" on="0"/>
        <pt x="208" y="593" on="1"/>
        <pt x="208" y="555" on="0"/>
        <pt x="212" y="477" on="0"/>
        <pt x="212" y="438" on="1"/>
        <pt x="212" y="436" on="0"/>
        <pt x="210" y="429" on="0"/>
        <pt x="212" y="427" on="1"/>
        <pt x="229" y="445" on="0"/>
        <pt x="253" y="486" on="0"/>
        <pt x="267" y="506" on="1"/>
        <pt x="279" y="521" on="0"/>
        <pt x="304" y="563" on="0"/>
        <pt x="313" y="580" on="1"/>
        <pt x="317" y="586" on="0"/>
        <pt x="323" y="598" on="0"/>
        <pt x="327" y="604" on="1"/>
        <pt x="329" y="609" on="0"/>
        <pt x="336" y="618" on="0"/>
        <pt x="338" y="624" on="1"/>
        <pt x="343" y="632" on="0"/>
        <pt x="351" y="647" on="0"/>
        <pt x="356" y="655" on="1"/>
        <pt x="361" y="663" on="0"/>
        <pt x="372" y="676" on="0"/>
        <pt x="377" y="683" on="1"/>
        <pt x="385" y="696" on="0"/>
        <pt x="403" y="723" on="0"/>
        <pt x="410" y="737" on="1"/>
        <pt x="420" y="742" on="0"/>
        <pt x="436" y="755" on="0"/>
        <pt x="445" y="760" on="1"/>
        <pt x="455" y="747" on="0"/>
        <pt x="464" y="737" on="0"/>
        <pt x="472" y="736" on="1"/>
        <pt x="474" y="733" on="0"/>
        <pt x="475" y="725" on="0"/>
        <pt x="478" y="723" on="1"/>
        <pt x="490" y="722" on="0"/>
        <pt x="492" y="723" on="1"/>
        <pt x="495" y="718" on="0"/>
        <pt x="506" y="713" on="0"/>
        <pt x="511" y="711" on="1"/>
        <pt x="511" y="708" on="0"/>
        <pt x="511" y="701" on="0"/>
        <pt x="512" y="699" on="1"/>
        <pt x="524" y="694" on="0"/>
        <pt x="524" y="680" on="1"/>
        <pt x="505" y="646" on="0"/>
        <pt x="460" y="585" on="0"/>
        <pt x="443" y="550" on="1"/>
        <pt x="438" y="539" on="0"/>
        <pt x="425" y="519" on="0"/>
        <pt x="421" y="508" on="1"/>
        <pt x="414" y="501" on="0"/>
        <pt x="406" y="486" on="0"/>
        <pt x="400" y="479" on="1"/>
        <pt x="396" y="474" on="0"/>
        <pt x="388" y="463" on="0"/>
        <pt x="384" y="458" on="1"/>
        <pt x="376" y="447" on="0"/>
        <pt x="363" y="424" on="0"/>
        <pt x="354" y="413" on="1"/>
        <pt x="348" y="403" on="0"/>
        <pt x="340" y="393" on="1"/>
        <pt x="332" y="382" on="0"/>
        <pt x="321" y="355" on="0"/>
        <pt x="313" y="344" on="1"/>
        <pt x="305" y="332" on="0"/>
        <pt x="304" y="321" on="0"/>
        <pt x="299" y="308" on="1"/>
        <pt x="306" y="297" on="0"/>
        <pt x="324" y="279" on="0"/>
        <pt x="334" y="271" on="1"/>
        <pt x="342" y="260" on="0"/>
        <pt x="363" y="243" on="0"/>
        <pt x="374" y="233" on="1"/>
        <pt x="378" y="229" on="0"/>
        <pt x="384" y="222" on="0"/>
        <pt x="388" y="219" on="1"/>
        <pt x="399" y="207" on="0"/>
        <pt x="430" y="185" on="0"/>
        <pt x="444" y="175" on="1"/>
        <pt x="455" y="165" on="0"/>
        <pt x="488" y="136" on="0"/>
        <pt x="524" y="103" on="0"/>
        <pt x="552" y="74" on="0"/>
        <pt x="552" y="70" on="1"/>
        <pt x="547" y="55" on="0"/>
        <pt x="534" y="48" on="0"/>
        <pt x="531" y="41" on="1"/>
        <pt x="525" y="39" on="0"/>
        <pt x="525" y="35" on="0"/>
        <pt x="522" y="30" on="1"/>
        <pt x="515" y="25" on="0"/>
        <pt x="505" y="12" on="0"/>
        <pt x="500" y="6" on="1"/>
        <pt x="496" y="4" on="0"/>
        <pt x="489" y="1" on="0"/>
        <pt x="487" y="-3" on="1"/>
      </contour>
    </TTGlyph>
    <TTGlyph name="L" xMin="61" yMin="-3" xMax="454" yMax="750">
      <contour>
        <pt x="437" y="171" on="1"/>
        <pt x="444" y="162" on="0"/>
        <pt x="447" y="151" on="0"/>
        <pt x="451" y="140" on="0"/>
        <pt x="454" y="130" on="0"/>
        <pt x="454" y="129" on="1"/>
        <pt x="454" y="122" on="0"/>
        <pt x="449" y="113" on="0"/>
        <pt x="444" y="106" on="1"/>
        <pt x="404" y="91" on="0"/>
        <pt x="326" y="62" on="0"/>
        <pt x="285" y="48" on="1"/>
        <pt x="274" y="45" on="0"/>
        <pt x="256" y="38" on="0"/>
        <pt x="245" y="36" on="1"/>
        <pt x="243" y="34" on="0"/>
        <pt x="234" y="31" on="0"/>
        <pt x="222" y="27" on="0"/>
        <pt x="211" y="24" on="0"/>
        <pt x="209" y="24" on="1"/>
        <pt x="201" y="22" on="0"/>
        <pt x="182" y="23" on="0"/>
        <pt x="173" y="22" on="1"/>
        <pt x="168" y="21" on="0"/>
        <pt x="164" y="13" on="0"/>
        <pt x="159" y="4" on="0"/>
        <pt x="149" y="-3" on="0"/>
        <pt x="140" y="-3" on="1"/>
        <pt x="131" y="-3" on="0"/>
        <pt x="113" y="-1" on="0"/>
        <pt x="103" y="3" on="1"/>
        <pt x="101" y="6" on="0"/>
        <pt x="102" y="15" on="0"/>
        <pt x="100" y="18" on="1"/>
        <pt x="91" y="19" on="0"/>
        <pt x="81" y="14" on="0"/>
        <pt x="76" y="13" on="1"/>
        <pt x="73" y="17" on="0"/>
        <pt x="70" y="28" on="0"/>
        <pt x="66" y="32" on="1"/>
        <pt x="65" y="37" on="0"/>
        <pt x="65" y="47" on="0"/>
        <pt x="65" y="52" on="1"/>
        <pt x="65" y="59" on="0"/>
        <pt x="66" y="78" on="0"/>
        <pt x="69" y="83" on="1"/>
        <pt x="72" y="140" on="0"/>
        <pt x="72" y="255" on="0"/>
        <pt x="72" y="312" on="1"/>
        <pt x="72" y="317" on="0"/>
        <pt x="72" y="336" on="0"/>
        <pt x="71" y="356" on="0"/>
        <pt x="70" y="373" on="0"/>
        <pt x="69" y="377" on="1"/>
        <pt x="70" y="384" on="0"/>
        <pt x="70" y="397" on="0"/>
        <pt x="70" y="404" on="1"/>
        <pt x="70" y="410" on="0"/>
        <pt x="70" y="420" on="0"/>
        <pt x="68" y="425" on="1"/>
        <pt x="69" y="429" on="0"/>
        <pt x="69" y="436" on="1"/>
        <pt x="69" y="441" on="0"/>
        <pt x="67" y="451" on="0"/>
        <pt x="67" y="456" on="1"/>
        <pt x="67" y="464" on="0"/>
        <pt x="68" y="479" on="0"/>
        <pt x="68" y="487" on="1"/>
        <pt x="68" y="513" on="0"/>
        <pt x="63" y="564" on="0"/>
        <pt x="63" y="590" on="1"/>
        <pt x="63" y="624" on="0"/>
        <pt x="62" y="692" on="0"/>
        <pt x="61" y="726" on="1"/>
        <pt x="65" y="736" on="0"/>
        <pt x="65" y="743" on="1"/>
        <pt x="79" y="750" on="0"/>
        <pt x="95" y="746" on="0"/>
        <pt x="103" y="746" on="1"/>
        <pt x="108" y="746" on="0"/>
        <pt x="116" y="748" on="0"/>
        <pt x="120" y="750" on="1"/>
        <pt x="125" y="749" on="0"/>
        <pt x="132" y="746" on="0"/>
        <pt x="137" y="746" on="1"/>
        <pt x="152" y="749" on="0"/>
        <pt x="155" y="745" on="0"/>
        <pt x="158" y="743" on="1"/>
        <pt x="162" y="744" on="0"/>
        <pt x="167" y="749" on="0"/>
        <pt x="171" y="749" on="1"/>
        <pt x="177" y="749" on="0"/>
        <pt x="183" y="734" on="0"/>
        <pt x="187" y="729" on="1"/>
        <pt x="187" y="718" on="0"/>
        <pt x="191" y="709" on="1"/>
        <pt x="193" y="668" on="0"/>
        <pt x="192" y="588" on="0"/>
        <pt x="195" y="548" on="1"/>
        <pt x="196" y="530" on="0"/>
        <pt x="199" y="491" on="0"/>
        <pt x="199" y="473" on="1"/>
        <pt x="199" y="443" on="0"/>
        <pt x="200" y="382" on="0"/>
        <pt x="200" y="351" on="1"/>
        <pt x="200" y="346" on="0"/>
        <pt x="201" y="338" on="0"/>
        <pt x="201" y="333" on="1"/>
        <pt x="201" y="321" on="0"/>
        <pt x="199" y="299" on="0"/>
        <pt x="199" y="288" on="1"/>
        <pt x="199" y="210" on="1"/>
        <pt x="199" y="200" on="0"/>
        <pt x="198" y="179" on="0"/>
        <pt x="199" y="169" on="1"/>
        <pt x="203" y="157" on="1"/>
        <pt x="214" y="161" on="0"/>
        <pt x="237" y="170" on="0"/>
        <pt x="250" y="172" on="1"/>
        <pt x="258" y="174" on="0"/>
        <pt x="272" y="178" on="0"/>
        <pt x="280" y="180" on="1"/>
        <pt x="294" y="188" on="0"/>
        <pt x="310" y="194" on="0"/>
        <pt x="318" y="197" on="1"/>
        <pt x="335" y="203" on="0"/>
        <pt x="367" y="216" on="0"/>
        <pt x="384" y="222" on="1"/>
        <pt x="392" y="220" on="0"/>
        <pt x="397" y="224" on="1"/>
        <pt x="407" y="222" on="0"/>
        <pt x="415" y="222" on="1"/>
        <pt x="426" y="211" on="0"/>
        <pt x="431" y="199" on="0"/>
        <pt x="436" y="194" on="1"/>
        <pt x="434" y="189" on="0"/>
        <pt x="439" y="187" on="0"/>
        <pt x="440" y="183" on="1"/>
        <pt x="444" y="181" on="0"/>
        <pt x="438" y="174" on="0"/>
      </contour>
    </TTGlyph>
    <TTGlyph name="Lslash" xMin="0" yMin="-3" xMax="459" yMax="750">
      <contour>
        <pt x="276" y="487" on="1"/>
        <pt x="276" y="478" on="0"/>
        <pt x="274" y="474" on="1"/>
        <pt x="274" y="461" on="0"/>
        <pt x="275" y="455" on="0"/>
        <pt x="275" y="450" on="1"/>
        <pt x="273" y="438" on="0"/>
        <pt x="278" y="434" on="1"/>
        <pt x="276" y="429" on="0"/>
        <pt x="277" y="417" on="0"/>
        <pt x="275" y="411" on="1"/>
        <pt x="268" y="406" on="0"/>
        <pt x="251" y="400" on="0"/>
        <pt x="243" y="398" on="1"/>
        <pt x="233" y="396" on="0"/>
        <pt x="214" y="387" on="0"/>
        <pt x="205" y="383" on="1"/>
        <pt x="205" y="371" on="0"/>
        <pt x="207" y="345" on="0"/>
        <pt x="207" y="333" on="1"/>
        <pt x="207" y="321" on="0"/>
        <pt x="204" y="299" on="0"/>
        <pt x="204" y="288" on="1"/>
        <pt x="204" y="260" on="0"/>
        <pt x="203" y="196" on="0"/>
        <pt x="205" y="169" on="1"/>
        <pt x="208" y="157" on="1"/>
        <pt x="227" y="162" on="0"/>
        <pt x="265" y="175" on="0"/>
        <pt x="285" y="180" on="1"/>
        <pt x="300" y="188" on="0"/>
        <pt x="316" y="194" on="0"/>
        <pt x="324" y="197" on="1"/>
        <pt x="341" y="203" on="0"/>
        <pt x="373" y="216" on="0"/>
        <pt x="390" y="222" on="1"/>
        <pt x="399" y="221" on="0"/>
        <pt x="402" y="224" on="1"/>
        <pt x="407" y="223" on="0"/>
        <pt x="416" y="222" on="0"/>
        <pt x="420" y="222" on="1"/>
        <pt x="432" y="211" on="0"/>
        <pt x="437" y="199" on="0"/>
        <pt x="442" y="194" on="1"/>
        <pt x="441" y="188" on="0"/>
        <pt x="445" y="185" on="0"/>
        <pt x="445" y="183" on="1"/>
        <pt x="451" y="182" on="0"/>
        <pt x="443" y="173" on="0"/>
        <pt x="442" y="171" on="1"/>
        <pt x="451" y="159" on="0"/>
        <pt x="459" y="134" on="0"/>
        <pt x="459" y="129" on="1"/>
        <pt x="459" y="122" on="0"/>
        <pt x="454" y="113" on="0"/>
        <pt x="451" y="106" on="1"/>
        <pt x="410" y="91" on="0"/>
        <pt x="331" y="62" on="0"/>
        <pt x="290" y="48" on="1"/>
        <pt x="279" y="45" on="0"/>
        <pt x="261" y="38" on="0"/>
        <pt x="250" y="36" on="1"/>
        <pt x="248" y="34" on="0"/>
        <pt x="239" y="31" on="0"/>
        <pt x="227" y="27" on="0"/>
        <pt x="217" y="24" on="0"/>
        <pt x="215" y="24" on="1"/>
        <pt x="179" y="22" on="1"/>
        <pt x="174" y="21" on="0"/>
        <pt x="170" y="13" on="0"/>
        <pt x="164" y="4" on="0"/>
        <pt x="154" y="-3" on="0"/>
        <pt x="145" y="-3" on="1"/>
        <pt x="136" y="-3" on="0"/>
        <pt x="118" y="-1" on="0"/>
        <pt x="110" y="3" on="1"/>
        <pt x="106" y="6" on="0"/>
        <pt x="108" y="15" on="0"/>
        <pt x="106" y="19" on="1"/>
        <pt x="97" y="19" on="0"/>
        <pt x="87" y="14" on="0"/>
        <pt x="82" y="13" on="1"/>
        <pt x="79" y="17" on="0"/>
        <pt x="75" y="28" on="0"/>
        <pt x="72" y="32" on="1"/>
        <pt x="70" y="37" on="0"/>
        <pt x="70" y="47" on="0"/>
        <pt x="70" y="52" on="1"/>
        <pt x="70" y="58" on="0"/>
        <pt x="71" y="78" on="0"/>
        <pt x="75" y="83" on="1"/>
        <pt x="77" y="140" on="0"/>
        <pt x="77" y="256" on="0"/>
        <pt x="77" y="313" on="1"/>
        <pt x="77" y="341" on="1"/>
        <pt x="61" y="333" on="0"/>
        <pt x="30" y="321" on="0"/>
        <pt x="14" y="314" on="1"/>
        <pt x="11" y="320" on="0"/>
        <pt x="12" y="328" on="0"/>
        <pt x="12" y="332" on="1"/>
        <pt x="5" y="344" on="0"/>
        <pt x="4" y="374" on="0"/>
        <pt x="5" y="383" on="1"/>
        <pt x="4" y="385" on="0"/>
        <pt x="0" y="391" on="0"/>
        <pt x="0" y="393" on="1"/>
        <pt x="0" y="395" on="0"/>
        <pt x="2" y="402" on="0"/>
        <pt x="2" y="406" on="1"/>
        <pt x="8" y="411" on="0"/>
        <pt x="13" y="417" on="1"/>
        <pt x="28" y="425" on="0"/>
        <pt x="59" y="437" on="0"/>
        <pt x="74" y="444" on="1"/>
        <pt x="73" y="455" on="0"/>
        <pt x="74" y="475" on="0"/>
        <pt x="74" y="486" on="1"/>
        <pt x="74" y="516" on="0"/>
        <pt x="70" y="575" on="0"/>
        <pt x="70" y="604" on="1"/>
        <pt x="70" y="664" on="0"/>
        <pt x="67" y="726" on="1"/>
        <pt x="69" y="730" on="0"/>
        <pt x="70" y="738" on="0"/>
        <pt x="71" y="743" on="1"/>
        <pt x="85" y="750" on="0"/>
        <pt x="101" y="746" on="0"/>
        <pt x="109" y="746" on="1"/>
        <pt x="116" y="746" on="0"/>
        <pt x="126" y="750" on="1"/>
        <pt x="130" y="749" on="0"/>
        <pt x="138" y="746" on="0"/>
        <pt x="143" y="746" on="1"/>
        <pt x="158" y="749" on="0"/>
        <pt x="160" y="745" on="0"/>
        <pt x="164" y="743" on="1"/>
        <pt x="168" y="744" on="0"/>
        <pt x="172" y="749" on="0"/>
        <pt x="177" y="749" on="1"/>
        <pt x="182" y="749" on="0"/>
        <pt x="189" y="733" on="0"/>
        <pt x="193" y="729" on="1"/>
        <pt x="193" y="724" on="0"/>
        <pt x="195" y="714" on="0"/>
        <pt x="197" y="709" on="1"/>
        <pt x="198" y="654" on="0"/>
        <pt x="198" y="544" on="0"/>
        <pt x="203" y="489" on="1"/>
        <pt x="213" y="493" on="0"/>
        <pt x="232" y="500" on="0"/>
        <pt x="243" y="504" on="1"/>
        <pt x="249" y="504" on="0"/>
        <pt x="261" y="509" on="0"/>
        <pt x="267" y="511" on="1"/>
        <pt x="270" y="499" on="0"/>
        <pt x="270" y="494" on="1"/>
      </contour>
    </TTGlyph>
    <TTGlyph name="M" xMin="46" yMin="-24" xMax="756" yMax="756">
      <contour>
        <pt x="756" y="3" on="1"/>
        <pt x="751" y="-2" on="0"/>
        <pt x="739" y="-4" on="0"/>
        <pt x="733" y="-4" on="1"/>
        <pt x="718" y="-11" on="0"/>
        <pt x="701" y="-11" on="1"/>
        <pt x="690" y="-5" on="0"/>
        <pt x="688" y="-9" on="0"/>
        <pt x="685" y="-11" on="1"/>
        <pt x="670" y="-18" on="0"/>
        <pt x="646" y="-19" on="0"/>
        <pt x="638" y="-24" on="1"/>
        <pt x="630" y="-18" on="0"/>
        <pt x="629" y="5" on="0"/>
        <pt x="627" y="13" on="1"/>
        <pt x="622" y="20" on="0"/>
        <pt x="618" y="41" on="0"/>
        <pt x="616" y="63" on="0"/>
        <pt x="613" y="84" on="0"/>
        <pt x="609" y="92" on="1"/>
        <pt x="608" y="97" on="0"/>
        <pt x="609" y="105" on="0"/>
        <pt x="607" y="110" on="1"/>
        <pt x="608" y="127" on="0"/>
        <pt x="604" y="147" on="0"/>
        <pt x="602" y="158" on="1"/>
        <pt x="601" y="164" on="0"/>
        <pt x="601" y="179" on="0"/>
        <pt x="595" y="183" on="1"/>
        <pt x="598" y="197" on="0"/>
        <pt x="594" y="211" on="0"/>
        <pt x="593" y="217" on="1"/>
        <pt x="592" y="225" on="0"/>
        <pt x="592" y="244" on="0"/>
        <pt x="590" y="252" on="1"/>
        <pt x="584" y="300" on="0"/>
        <pt x="570" y="396" on="0"/>
        <pt x="564" y="444" on="1"/>
        <pt x="558" y="439" on="0"/>
        <pt x="553" y="419" on="0"/>
        <pt x="551" y="411" on="1"/>
        <pt x="545" y="393" on="0"/>
        <pt x="535" y="355" on="0"/>
        <pt x="530" y="337" on="1"/>
        <pt x="528" y="329" on="0"/>
        <pt x="525" y="308" on="0"/>
        <pt x="522" y="300" on="1"/>
        <pt x="512" y="271" on="0"/>
        <pt x="497" y="229" on="0"/>
        <pt x="490" y="207" on="1"/>
        <pt x="488" y="195" on="0"/>
        <pt x="484" y="173" on="0"/>
        <pt x="482" y="162" on="1"/>
        <pt x="481" y="156" on="0"/>
        <pt x="477" y="134" on="0"/>
        <pt x="475" y="129" on="1"/>
        <pt x="473" y="124" on="0"/>
        <pt x="470" y="120" on="0"/>
        <pt x="471" y="115" on="1"/>
        <pt x="461" y="100" on="0"/>
        <pt x="454" y="64" on="0"/>
        <pt x="445" y="47" on="1"/>
        <pt x="445" y="35" on="0"/>
        <pt x="436" y="26" on="1"/>
        <pt x="431" y="25" on="0"/>
        <pt x="422" y="23" on="0"/>
        <pt x="417" y="20" on="1"/>
        <pt x="412" y="22" on="0"/>
        <pt x="399" y="23" on="0"/>
        <pt x="393" y="23" on="1"/>
        <pt x="388" y="24" on="0"/>
        <pt x="380" y="29" on="0"/>
        <pt x="375" y="30" on="1"/>
        <pt x="370" y="36" on="0"/>
        <pt x="358" y="45" on="0"/>
        <pt x="352" y="50" on="1"/>
        <pt x="346" y="65" on="0"/>
        <pt x="341" y="70" on="1"/>
        <pt x="338" y="81" on="0"/>
        <pt x="328" y="100" on="0"/>
        <pt x="326" y="112" on="1"/>
        <pt x="323" y="123" on="0"/>
        <pt x="314" y="142" on="0"/>
        <pt x="309" y="153" on="1"/>
        <pt x="307" y="160" on="0"/>
        <pt x="302" y="173" on="0"/>
        <pt x="299" y="180" on="1"/>
        <pt x="298" y="188" on="0"/>
        <pt x="289" y="212" on="0"/>
        <pt x="287" y="221" on="1"/>
        <pt x="287" y="222" on="0"/>
        <pt x="280" y="241" on="0"/>
        <pt x="273" y="263" on="0"/>
        <pt x="266" y="281" on="0"/>
        <pt x="265" y="282" on="1"/>
        <pt x="263" y="287" on="0"/>
        <pt x="260" y="296" on="0"/>
        <pt x="258" y="302" on="1"/>
        <pt x="254" y="315" on="0"/>
        <pt x="242" y="342" on="0"/>
        <pt x="236" y="354" on="1"/>
        <pt x="231" y="364" on="0"/>
        <pt x="227" y="383" on="0"/>
        <pt x="224" y="392" on="1"/>
        <pt x="222" y="397" on="0"/>
        <pt x="219" y="405" on="0"/>
        <pt x="217" y="410" on="1"/>
        <pt x="215" y="416" on="0"/>
        <pt x="211" y="429" on="0"/>
        <pt x="209" y="436" on="1"/>
        <pt x="204" y="434" on="0"/>
        <pt x="205" y="421" on="0"/>
        <pt x="204" y="416" on="1"/>
        <pt x="202" y="405" on="0"/>
        <pt x="202" y="384" on="0"/>
        <pt x="201" y="373" on="1"/>
        <pt x="199" y="361" on="0"/>
        <pt x="195" y="339" on="0"/>
        <pt x="194" y="328" on="1"/>
        <pt x="194" y="301" on="0"/>
        <pt x="191" y="274" on="1"/>
        <pt x="189" y="250" on="0"/>
        <pt x="183" y="201" on="0"/>
        <pt x="182" y="175" on="1"/>
        <pt x="182" y="156" on="0"/>
        <pt x="174" y="119" on="0"/>
        <pt x="176" y="99" on="1"/>
        <pt x="174" y="95" on="0"/>
        <pt x="174" y="91" on="0"/>
        <pt x="174" y="87" on="1"/>
        <pt x="174" y="82" on="0"/>
        <pt x="173" y="70" on="0"/>
        <pt x="173" y="65" on="1"/>
        <pt x="173" y="56" on="0"/>
        <pt x="175" y="53" on="1"/>
        <pt x="172" y="44" on="0"/>
        <pt x="172" y="23" on="0"/>
        <pt x="172" y="13" on="1"/>
        <pt x="170" y="9" on="0"/>
        <pt x="169" y="1" on="0"/>
        <pt x="166" y="-3" on="1"/>
        <pt x="167" y="-20" on="0"/>
        <pt x="156" y="-20" on="1"/>
        <pt x="153" y="-20" on="0"/>
        <pt x="146" y="-17" on="0"/>
        <pt x="144" y="-14" on="1"/>
        <pt x="133" y="-15" on="0"/>
        <pt x="130" y="-3" on="0"/>
        <pt x="125" y="-4" on="1"/>
        <pt x="113" y="-9" on="0"/>
        <pt x="110" y="-5" on="0"/>
        <pt x="105" y="-6" on="1"/>
        <pt x="97" y="2" on="0"/>
        <pt x="92" y="0" on="0"/>
        <pt x="90" y="0" on="1"/>
        <pt x="81" y="3" on="0"/>
        <pt x="79" y="0" on="0"/>
        <pt x="76" y="0" on="1"/>
        <pt x="71" y="5" on="0"/>
        <pt x="54" y="5" on="0"/>
        <pt x="48" y="6" on="1"/>
        <pt x="47" y="10" on="0"/>
        <pt x="46" y="17" on="0"/>
        <pt x="46" y="22" on="1"/>
        <pt x="46" y="28" on="0"/>
        <pt x="47" y="39" on="0"/>
        <pt x="47" y="45" on="1"/>
        <pt x="47" y="50" on="0"/>
        <pt x="46" y="61" on="0"/>
        <pt x="46" y="68" on="1"/>
        <pt x="46" y="75" on="0"/>
        <pt x="48" y="88" on="0"/>
        <pt x="48" y="96" on="1"/>
        <pt x="48" y="99" on="0"/>
        <pt x="46" y="104" on="0"/>
        <pt x="46" y="108" on="1"/>
        <pt x="52" y="121" on="0"/>
        <pt x="51" y="136" on="0"/>
        <pt x="52" y="143" on="1"/>
        <pt x="54" y="160" on="0"/>
        <pt x="57" y="193" on="0"/>
        <pt x="59" y="210" on="1"/>
        <pt x="59" y="238" on="0"/>
        <pt x="62" y="275" on="0"/>
        <pt x="65" y="294" on="1"/>
        <pt x="67" y="303" on="0"/>
        <pt x="70" y="319" on="0"/>
        <pt x="72" y="328" on="1"/>
        <pt x="74" y="343" on="0"/>
        <pt x="75" y="376" on="0"/>
        <pt x="77" y="392" on="1"/>
        <pt x="79" y="417" on="0"/>
        <pt x="85" y="466" on="0"/>
        <pt x="87" y="490" on="1"/>
        <pt x="89" y="509" on="0"/>
        <pt x="94" y="546" on="0"/>
        <pt x="94" y="563" on="1"/>
        <pt x="94" y="572" on="0"/>
        <pt x="99" y="600" on="0"/>
        <pt x="100" y="610" on="1"/>
        <pt x="102" y="634" on="0"/>
        <pt x="105" y="680" on="0"/>
        <pt x="105" y="703" on="1"/>
        <pt x="105" y="714" on="1"/>
        <pt x="105" y="716" on="0"/>
        <pt x="109" y="720" on="0"/>
        <pt x="109" y="725" on="1"/>
        <pt x="109" y="734" on="0"/>
        <pt x="118" y="741" on="0"/>
        <pt x="121" y="749" on="1"/>
        <pt x="126" y="749" on="0"/>
        <pt x="139" y="747" on="0"/>
        <pt x="142" y="742" on="1"/>
        <pt x="149" y="744" on="0"/>
        <pt x="163" y="744" on="0"/>
        <pt x="168" y="749" on="1"/>
        <pt x="174" y="749" on="0"/>
        <pt x="180" y="743" on="0"/>
        <pt x="185" y="741" on="1"/>
        <pt x="189" y="743" on="0"/>
        <pt x="197" y="746" on="0"/>
        <pt x="201" y="748" on="1"/>
        <pt x="204" y="746" on="0"/>
        <pt x="207" y="741" on="0"/>
        <pt x="210" y="740" on="1"/>
        <pt x="225" y="744" on="0"/>
        <pt x="230" y="741" on="1"/>
        <pt x="232" y="737" on="0"/>
        <pt x="233" y="729" on="0"/>
        <pt x="234" y="725" on="1"/>
        <pt x="244" y="715" on="0"/>
        <pt x="250" y="690" on="0"/>
        <pt x="258" y="680" on="1"/>
        <pt x="260" y="674" on="0"/>
        <pt x="265" y="662" on="0"/>
        <pt x="267" y="654" on="1"/>
        <pt x="270" y="642" on="1"/>
        <pt x="274" y="632" on="0"/>
        <pt x="280" y="618" on="1"/>
        <pt x="285" y="599" on="0"/>
        <pt x="293" y="559" on="0"/>
        <pt x="302" y="542" on="1"/>
        <pt x="303" y="536" on="0"/>
        <pt x="308" y="519" on="0"/>
        <pt x="310" y="513" on="1"/>
        <pt x="317" y="496" on="0"/>
        <pt x="332" y="463" on="0"/>
        <pt x="338" y="444" on="1"/>
        <pt x="344" y="425" on="0"/>
        <pt x="353" y="385" on="0"/>
        <pt x="360" y="366" on="1"/>
        <pt x="366" y="348" on="0"/>
        <pt x="372" y="332" on="0"/>
        <pt x="377" y="324" on="1"/>
        <pt x="377" y="321" on="0"/>
        <pt x="380" y="307" on="0"/>
        <pt x="386" y="292" on="0"/>
        <pt x="392" y="279" on="0"/>
        <pt x="395" y="278" on="1"/>
        <pt x="398" y="280" on="0"/>
        <pt x="399" y="288" on="0"/>
        <pt x="402" y="291" on="1"/>
        <pt x="403" y="302" on="0"/>
        <pt x="408" y="334" on="0"/>
        <pt x="413" y="344" on="1"/>
        <pt x="413" y="349" on="0"/>
        <pt x="418" y="376" on="0"/>
        <pt x="426" y="407" on="0"/>
        <pt x="433" y="433" on="0"/>
        <pt x="436" y="436" on="1"/>
        <pt x="438" y="449" on="0"/>
        <pt x="441" y="455" on="0"/>
        <pt x="443" y="457" on="1"/>
        <pt x="444" y="465" on="0"/>
        <pt x="450" y="479" on="0"/>
        <pt x="451" y="487" on="1"/>
        <pt x="453" y="504" on="0"/>
        <pt x="459" y="526" on="0"/>
        <pt x="464" y="542" on="1"/>
        <pt x="468" y="556" on="0"/>
        <pt x="475" y="585" on="0"/>
        <pt x="480" y="599" on="1"/>
        <pt x="492" y="637" on="0"/>
        <pt x="511" y="696" on="0"/>
        <pt x="525" y="724" on="1"/>
        <pt x="528" y="733" on="0"/>
        <pt x="532" y="737" on="0"/>
        <pt x="534" y="739" on="1"/>
        <pt x="542" y="742" on="0"/>
        <pt x="559" y="742" on="0"/>
        <pt x="568" y="741" on="1"/>
        <pt x="578" y="745" on="0"/>
        <pt x="583" y="750" on="1"/>
        <pt x="587" y="745" on="0"/>
        <pt x="595" y="745" on="1"/>
        <pt x="605" y="745" on="0"/>
        <pt x="609" y="751" on="1"/>
        <pt x="613" y="749" on="0"/>
        <pt x="618" y="751" on="0"/>
        <pt x="623" y="749" on="1"/>
        <pt x="625" y="751" on="0"/>
        <pt x="631" y="756" on="0"/>
        <pt x="634" y="756" on="1"/>
        <pt x="642" y="746" on="0"/>
        <pt x="651" y="735" on="0"/>
        <pt x="653" y="728" on="1"/>
        <pt x="656" y="719" on="0"/>
        <pt x="657" y="698" on="0"/>
        <pt x="662" y="689" on="1"/>
        <pt x="661" y="676" on="0"/>
        <pt x="666" y="623" on="0"/>
        <pt x="673" y="564" on="0"/>
        <pt x="681" y="514" on="0"/>
        <pt x="684" y="508" on="1"/>
        <pt x="683" y="495" on="0"/>
        <pt x="687" y="477" on="0"/>
        <pt x="687" y="468" on="1"/>
        <pt x="687" y="465" on="0"/>
        <pt x="689" y="446" on="0"/>
        <pt x="691" y="425" on="0"/>
        <pt x="694" y="406" on="0"/>
        <pt x="695" y="402" on="1"/>
        <pt x="695" y="384" on="0"/>
        <pt x="701" y="374" on="1"/>
        <pt x="706" y="349" on="0"/>
        <pt x="713" y="299" on="0"/>
        <pt x="716" y="273" on="1"/>
        <pt x="718" y="260" on="0"/>
        <pt x="719" y="236" on="0"/>
        <pt x="721" y="223" on="1"/>
        <pt x="722" y="218" on="0"/>
        <pt x="725" y="208" on="0"/>
        <pt x="726" y="203" on="1"/>
        <pt x="728" y="193" on="0"/>
        <pt x="730" y="175" on="0"/>
        <pt x="732" y="166" on="1"/>
        <pt x="733" y="161" on="0"/>
        <pt x="737" y="150" on="0"/>
        <pt x="735" y="144" on="1"/>
        <pt x="737" y="137" on="0"/>
        <pt x="736" y="121" on="0"/>
        <pt x="740" y="115" on="1"/>
        <pt x="740" y="94" on="0"/>
        <pt x="743" y="78" on="1"/>
        <pt x="744" y="66" on="0"/>
        <pt x="749" y="54" on="1"/>
        <pt x="751" y="42" on="0"/>
        <pt x="754" y="16" on="0"/>
      </contour>
    </TTGlyph>
    <TTGlyph name="N" xMin="61" yMin="-15" xMax="516" yMax="759">
      <contour>
        <pt x="487" y="751" on="1"/>
        <pt x="498" y="751" on="0"/>
        <pt x="503" y="748" on="1"/>
        <pt x="508" y="738" on="0"/>
        <pt x="511" y="723" on="0"/>
        <pt x="511" y="713" on="1"/>
        <pt x="512" y="698" on="0"/>
        <pt x="511" y="685" on="0"/>
        <pt x="510" y="678" on="1"/>
        <pt x="509" y="662" on="0"/>
        <pt x="509" y="633" on="0"/>
        <pt x="509" y="617" on="1"/>
        <pt x="509" y="582" on="0"/>
        <pt x="511" y="510" on="0"/>
        <pt x="511" y="475" on="1"/>
        <pt x="511" y="461" on="0"/>
        <pt x="510" y="434" on="0"/>
        <pt x="510" y="420" on="1"/>
        <pt x="510" y="417" on="0"/>
        <pt x="511" y="410" on="0"/>
        <pt x="511" y="407" on="1"/>
        <pt x="511" y="398" on="0"/>
        <pt x="510" y="381" on="0"/>
        <pt x="510" y="373" on="1"/>
        <pt x="510" y="369" on="0"/>
        <pt x="510" y="363" on="0"/>
        <pt x="511" y="358" on="1"/>
        <pt x="509" y="350" on="0"/>
        <pt x="509" y="347" on="1"/>
        <pt x="509" y="331" on="0"/>
        <pt x="511" y="298" on="0"/>
        <pt x="511" y="282" on="1"/>
        <pt x="511" y="267" on="0"/>
        <pt x="512" y="239" on="0"/>
        <pt x="512" y="224" on="1"/>
        <pt x="512" y="216" on="0"/>
        <pt x="511" y="198" on="0"/>
        <pt x="511" y="189" on="1"/>
        <pt x="511" y="168" on="0"/>
        <pt x="513" y="125" on="0"/>
        <pt x="514" y="104" on="1"/>
        <pt x="514" y="90" on="0"/>
        <pt x="514" y="63" on="0"/>
        <pt x="516" y="49" on="1"/>
        <pt x="516" y="33" on="0"/>
        <pt x="513" y="18" on="0"/>
        <pt x="511" y="11" on="1"/>
        <pt x="503" y="9" on="0"/>
        <pt x="498" y="10" on="0"/>
        <pt x="495" y="10" on="1"/>
        <pt x="481" y="6" on="0"/>
        <pt x="473" y="-1" on="0"/>
        <pt x="468" y="-5" on="1"/>
        <pt x="464" y="-5" on="0"/>
        <pt x="453" y="-6" on="0"/>
        <pt x="450" y="-9" on="1"/>
        <pt x="445" y="-7" on="0"/>
        <pt x="439" y="-9" on="0"/>
        <pt x="436" y="-9" on="1"/>
        <pt x="422" y="-10" on="0"/>
        <pt x="412" y="-15" on="0"/>
        <pt x="403" y="-15" on="1"/>
        <pt x="395" y="-2" on="0"/>
        <pt x="387" y="13" on="0"/>
        <pt x="378" y="12" on="1"/>
        <pt x="365" y="32" on="0"/>
        <pt x="354" y="76" on="0"/>
        <pt x="341" y="94" on="1"/>
        <pt x="340" y="102" on="0"/>
        <pt x="336" y="106" on="0"/>
        <pt x="334" y="112" on="1"/>
        <pt x="330" y="120" on="0"/>
        <pt x="324" y="138" on="0"/>
        <pt x="319" y="146" on="1"/>
        <pt x="311" y="163" on="0"/>
        <pt x="295" y="196" on="0"/>
        <pt x="288" y="214" on="1"/>
        <pt x="285" y="222" on="0"/>
        <pt x="281" y="239" on="0"/>
        <pt x="278" y="247" on="1"/>
        <pt x="276" y="251" on="0"/>
        <pt x="271" y="259" on="0"/>
        <pt x="269" y="262" on="1"/>
        <pt x="263" y="273" on="0"/>
        <pt x="252" y="295" on="0"/>
        <pt x="245" y="306" on="1"/>
        <pt x="243" y="311" on="0"/>
        <pt x="236" y="320" on="0"/>
        <pt x="232" y="325" on="1"/>
        <pt x="229" y="332" on="0"/>
        <pt x="224" y="346" on="0"/>
        <pt x="221" y="353" on="1"/>
        <pt x="219" y="359" on="0"/>
        <pt x="211" y="372" on="0"/>
        <pt x="209" y="378" on="1"/>
        <pt x="207" y="383" on="0"/>
        <pt x="205" y="393" on="0"/>
        <pt x="200" y="397" on="1"/>
        <pt x="193" y="385" on="0"/>
        <pt x="193" y="381" on="1"/>
        <pt x="192" y="369" on="0"/>
        <pt x="191" y="354" on="0"/>
        <pt x="191" y="348" on="1"/>
        <pt x="191" y="341" on="0"/>
        <pt x="194" y="328" on="0"/>
        <pt x="194" y="322" on="1"/>
        <pt x="196" y="298" on="0"/>
        <pt x="198" y="249" on="0"/>
        <pt x="198" y="225" on="1"/>
        <pt x="197" y="206" on="0"/>
        <pt x="198" y="186" on="0"/>
        <pt x="199" y="176" on="1"/>
        <pt x="200" y="166" on="0"/>
        <pt x="199" y="145" on="0"/>
        <pt x="200" y="135" on="1"/>
        <pt x="200" y="112" on="0"/>
        <pt x="201" y="69" on="0"/>
        <pt x="201" y="46" on="1"/>
        <pt x="201" y="22" on="1"/>
        <pt x="201" y="11" on="0"/>
        <pt x="198" y="2" on="1"/>
        <pt x="183" y="2" on="0"/>
        <pt x="174" y="4" on="0"/>
        <pt x="169" y="6" on="1"/>
        <pt x="163" y="5" on="0"/>
        <pt x="156" y="-2" on="0"/>
        <pt x="151" y="-5" on="1"/>
        <pt x="140" y="-4" on="0"/>
        <pt x="138" y="-7" on="0"/>
        <pt x="135" y="-9" on="1"/>
        <pt x="132" y="-10" on="0"/>
        <pt x="127" y="-8" on="0"/>
        <pt x="124" y="-8" on="1"/>
        <pt x="116" y="-6" on="0"/>
        <pt x="111" y="-6" on="1"/>
        <pt x="105" y="-8" on="0"/>
        <pt x="94" y="-12" on="0"/>
        <pt x="88" y="-13" on="1"/>
        <pt x="82" y="-2" on="0"/>
        <pt x="80" y="28" on="0"/>
        <pt x="73" y="39" on="1"/>
        <pt x="75" y="43" on="0"/>
        <pt x="76" y="45" on="0"/>
        <pt x="76" y="50" on="1"/>
        <pt x="76" y="73" on="0"/>
        <pt x="74" y="119" on="0"/>
        <pt x="74" y="142" on="1"/>
        <pt x="74" y="161" on="0"/>
        <pt x="69" y="197" on="0"/>
        <pt x="69" y="216" on="1"/>
        <pt x="69" y="222" on="0"/>
        <pt x="71" y="234" on="0"/>
        <pt x="71" y="241" on="1"/>
        <pt x="71" y="244" on="0"/>
        <pt x="70" y="250" on="0"/>
        <pt x="70" y="252" on="1"/>
        <pt x="68" y="270" on="0"/>
        <pt x="67" y="308" on="0"/>
        <pt x="67" y="327" on="1"/>
        <pt x="66" y="338" on="0"/>
        <pt x="65" y="362" on="0"/>
        <pt x="65" y="375" on="1"/>
        <pt x="65" y="380" on="0"/>
        <pt x="67" y="392" on="0"/>
        <pt x="67" y="398" on="1"/>
        <pt x="67" y="440" on="1"/>
        <pt x="65" y="452" on="0"/>
        <pt x="66" y="460" on="0"/>
        <pt x="66" y="464" on="1"/>
        <pt x="66" y="473" on="0"/>
        <pt x="63" y="490" on="0"/>
        <pt x="63" y="500" on="1"/>
        <pt x="63" y="507" on="0"/>
        <pt x="66" y="520" on="0"/>
        <pt x="66" y="527" on="1"/>
        <pt x="66" y="542" on="0"/>
        <pt x="63" y="570" on="0"/>
        <pt x="63" y="585" on="1"/>
        <pt x="63" y="670" on="1"/>
        <pt x="63" y="677" on="0"/>
        <pt x="61" y="691" on="0"/>
        <pt x="61" y="699" on="1"/>
        <pt x="67" y="713" on="0"/>
        <pt x="77" y="714" on="0"/>
        <pt x="81" y="717" on="1"/>
        <pt x="92" y="715" on="0"/>
        <pt x="100" y="719" on="1"/>
        <pt x="113" y="718" on="0"/>
        <pt x="116" y="722" on="1"/>
        <pt x="118" y="720" on="0"/>
        <pt x="125" y="721" on="0"/>
        <pt x="128" y="720" on="1"/>
        <pt x="131" y="722" on="0"/>
        <pt x="135" y="726" on="0"/>
        <pt x="139" y="728" on="1"/>
        <pt x="150" y="734" on="0"/>
        <pt x="154" y="737" on="0"/>
        <pt x="157" y="739" on="1"/>
        <pt x="162" y="739" on="0"/>
        <pt x="165" y="733" on="0"/>
        <pt x="170" y="733" on="1"/>
        <pt x="172" y="729" on="0"/>
        <pt x="178" y="721" on="0"/>
        <pt x="182" y="719" on="1"/>
        <pt x="190" y="702" on="0"/>
        <pt x="201" y="690" on="1"/>
        <pt x="210" y="664" on="0"/>
        <pt x="233" y="616" on="0"/>
        <pt x="246" y="592" on="1"/>
        <pt x="246" y="589" on="0"/>
        <pt x="248" y="580" on="0"/>
        <pt x="249" y="578" on="1"/>
        <pt x="254" y="567" on="0"/>
        <pt x="273" y="532" on="0"/>
        <pt x="280" y="521" on="1"/>
        <pt x="282" y="517" on="0"/>
        <pt x="288" y="511" on="0"/>
        <pt x="290" y="507" on="1"/>
        <pt x="293" y="502" on="0"/>
        <pt x="297" y="490" on="0"/>
        <pt x="300" y="485" on="1"/>
        <pt x="305" y="473" on="0"/>
        <pt x="318" y="450" on="0"/>
        <pt x="325" y="438" on="1"/>
        <pt x="327" y="432" on="0"/>
        <pt x="332" y="420" on="0"/>
        <pt x="335" y="414" on="1"/>
        <pt x="343" y="396" on="0"/>
        <pt x="356" y="377" on="0"/>
        <pt x="359" y="366" on="1"/>
        <pt x="366" y="358" on="0"/>
        <pt x="374" y="339" on="0"/>
        <pt x="382" y="333" on="1"/>
        <pt x="383" y="338" on="0"/>
        <pt x="385" y="387" on="0"/>
        <pt x="385" y="445" on="0"/>
        <pt x="385" y="497" on="0"/>
        <pt x="385" y="506" on="1"/>
        <pt x="385" y="533" on="0"/>
        <pt x="383" y="586" on="0"/>
        <pt x="383" y="612" on="1"/>
        <pt x="383" y="633" on="0"/>
        <pt x="384" y="676" on="0"/>
        <pt x="385" y="697" on="1"/>
        <pt x="386" y="708" on="0"/>
        <pt x="385" y="727" on="0"/>
        <pt x="386" y="737" on="1"/>
        <pt x="387" y="742" on="0"/>
        <pt x="393" y="752" on="0"/>
        <pt x="395" y="757" on="1"/>
        <pt x="408" y="759" on="0"/>
        <pt x="415" y="752" on="1"/>
        <pt x="421" y="755" on="0"/>
        <pt x="438" y="755" on="0"/>
        <pt x="444" y="756" on="1"/>
        <pt x="452" y="757" on="0"/>
        <pt x="454" y="758" on="0"/>
        <pt x="456" y="758" on="1"/>
        <pt x="460" y="756" on="0"/>
        <pt x="467" y="754" on="0"/>
        <pt x="472" y="752" on="1"/>
        <pt x="481" y="755" on="0"/>
      </contour>
    </TTGlyph>
    <TTGlyph name="Ntilde" xMin="61" yMin="-15" xMax="516" yMax="909">
      <component glyphName="N" x="0" y="0" flags="0x204"/>
      <component glyphName="tilde" x="57" y="132" flags="0x4"/>
    </TTGlyph>
    <TTGlyph name="O" xMin="0" yMin="-12" xMax="546" yMax="761">
      <contour>
        <pt x="542" y="397" on="1"/>
        <pt x="540" y="393" on="0"/>
        <pt x="536" y="386" on="0"/>
        <pt x="535" y="382" on="1"/>
        <pt x="539" y="378" on="0"/>
        <pt x="546" y="369" on="0"/>
        <pt x="546" y="364" on="1"/>
        <pt x="546" y="360" on="0"/>
        <pt x="543" y="353" on="0"/>
        <pt x="544" y="350" on="1"/>
        <pt x="540" y="343" on="0"/>
        <pt x="531" y="331" on="0"/>
        <pt x="529" y="324" on="1"/>
        <pt x="525" y="320" on="0"/>
        <pt x="520" y="312" on="0"/>
        <pt x="518" y="308" on="1"/>
        <pt x="513" y="306" on="0"/>
        <pt x="510" y="297" on="0"/>
        <pt x="506" y="294" on="1"/>
        <pt x="505" y="290" on="0"/>
        <pt x="487" y="260" on="0"/>
        <pt x="465" y="226" on="0"/>
        <pt x="445" y="194" on="0"/>
        <pt x="441" y="189" on="1"/>
        <pt x="439" y="184" on="0"/>
        <pt x="434" y="178" on="0"/>
        <pt x="431" y="174" on="1"/>
        <pt x="429" y="171" on="0"/>
        <pt x="427" y="164" on="0"/>
        <pt x="425" y="162" on="1"/>
        <pt x="423" y="158" on="0"/>
        <pt x="418" y="152" on="0"/>
        <pt x="416" y="147" on="1"/>
        <pt x="406" y="134" on="0"/>
        <pt x="386" y="98" on="0"/>
        <pt x="377" y="84" on="1"/>
        <pt x="372" y="76" on="0"/>
        <pt x="363" y="60" on="0"/>
        <pt x="358" y="52" on="1"/>
        <pt x="353" y="44" on="0"/>
        <pt x="343" y="30" on="0"/>
        <pt x="338" y="22" on="1"/>
        <pt x="330" y="16" on="0"/>
        <pt x="318" y="-1" on="0"/>
        <pt x="310" y="-7" on="1"/>
        <pt x="297" y="-7" on="0"/>
        <pt x="294" y="5" on="1"/>
        <pt x="281" y="8" on="0"/>
        <pt x="281" y="2" on="0"/>
        <pt x="281" y="0" on="1"/>
        <pt x="277" y="-2" on="0"/>
        <pt x="274" y="-10" on="0"/>
        <pt x="270" y="-12" on="1"/>
        <pt x="262" y="-10" on="0"/>
        <pt x="251" y="-1" on="0"/>
        <pt x="241" y="-2" on="1"/>
        <pt x="237" y="4" on="0"/>
        <pt x="227" y="13" on="0"/>
        <pt x="223" y="18" on="1"/>
        <pt x="221" y="24" on="0"/>
        <pt x="214" y="32" on="0"/>
        <pt x="211" y="36" on="1"/>
        <pt x="208" y="41" on="0"/>
        <pt x="202" y="49" on="0"/>
        <pt x="199" y="53" on="1"/>
        <pt x="192" y="62" on="0"/>
        <pt x="179" y="79" on="0"/>
        <pt x="174" y="88" on="1"/>
        <pt x="166" y="100" on="0"/>
        <pt x="151" y="125" on="0"/>
        <pt x="143" y="137" on="1"/>
        <pt x="139" y="143" on="0"/>
        <pt x="131" y="155" on="0"/>
        <pt x="128" y="161" on="1"/>
        <pt x="126" y="166" on="0"/>
        <pt x="119" y="180" on="0"/>
        <pt x="114" y="182" on="1"/>
        <pt x="112" y="190" on="0"/>
        <pt x="102" y="198" on="0"/>
        <pt x="97" y="204" on="1"/>
        <pt x="90" y="212" on="0"/>
        <pt x="78" y="231" on="0"/>
        <pt x="72" y="241" on="1"/>
        <pt x="52" y="269" on="0"/>
        <pt x="17" y="323" on="0"/>
        <pt x="0" y="352" on="1"/>
        <pt x="5" y="368" on="0"/>
        <pt x="5" y="384" on="0"/>
        <pt x="10" y="389" on="1"/>
        <pt x="10" y="393" on="0"/>
        <pt x="12" y="401" on="1"/>
        <pt x="25" y="423" on="0"/>
        <pt x="37" y="441" on="1"/>
        <pt x="48" y="458" on="0"/>
        <pt x="57" y="480" on="0"/>
        <pt x="62" y="492" on="1"/>
        <pt x="67" y="495" on="0"/>
        <pt x="73" y="504" on="0"/>
        <pt x="78" y="508" on="1"/>
        <pt x="80" y="519" on="0"/>
        <pt x="94" y="534" on="0"/>
        <pt x="96" y="545" on="1"/>
        <pt x="105" y="552" on="0"/>
        <pt x="106" y="561" on="1"/>
        <pt x="119" y="570" on="0"/>
        <pt x="122" y="585" on="1"/>
        <pt x="130" y="593" on="0"/>
        <pt x="141" y="613" on="0"/>
        <pt x="146" y="624" on="1"/>
        <pt x="158" y="634" on="0"/>
        <pt x="165" y="650" on="1"/>
        <pt x="171" y="654" on="0"/>
        <pt x="177" y="668" on="0"/>
        <pt x="182" y="673" on="1"/>
        <pt x="190" y="686" on="0"/>
        <pt x="199" y="703" on="0"/>
        <pt x="204" y="712" on="1"/>
        <pt x="211" y="712" on="0"/>
        <pt x="215" y="722" on="0"/>
        <pt x="221" y="721" on="1"/>
        <pt x="221" y="730" on="0"/>
        <pt x="226" y="737" on="1"/>
        <pt x="228" y="738" on="0"/>
        <pt x="236" y="741" on="0"/>
        <pt x="236" y="743" on="1"/>
        <pt x="234" y="755" on="0"/>
        <pt x="240" y="759" on="0"/>
        <pt x="242" y="761" on="1"/>
        <pt x="253" y="759" on="0"/>
        <pt x="261" y="757" on="0"/>
        <pt x="270" y="751" on="1"/>
        <pt x="280" y="751" on="0"/>
        <pt x="288" y="743" on="0"/>
        <pt x="293" y="741" on="1"/>
        <pt x="297" y="737" on="0"/>
        <pt x="302" y="729" on="0"/>
        <pt x="307" y="727" on="1"/>
        <pt x="315" y="716" on="0"/>
        <pt x="333" y="690" on="0"/>
        <pt x="341" y="679" on="1"/>
        <pt x="352" y="664" on="0"/>
        <pt x="375" y="637" on="0"/>
        <pt x="385" y="621" on="1"/>
        <pt x="388" y="616" on="0"/>
        <pt x="404" y="591" on="0"/>
        <pt x="424" y="563" on="0"/>
        <pt x="440" y="540" on="0"/>
        <pt x="443" y="538" on="1"/>
        <pt x="446" y="533" on="0"/>
        <pt x="466" y="505" on="0"/>
        <pt x="489" y="474" on="0"/>
        <pt x="511" y="446" on="0"/>
        <pt x="515" y="442" on="1"/>
        <pt x="526" y="427" on="0"/>
        <pt x="537" y="408" on="0"/>
      </contour>
      <contour>
        <pt x="313" y="209" on="1"/>
        <pt x="324" y="224" on="0"/>
        <pt x="336" y="248" on="0"/>
        <pt x="342" y="260" on="1"/>
        <pt x="352" y="272" on="0"/>
        <pt x="356" y="282" on="0"/>
        <pt x="359" y="287" on="1"/>
        <pt x="367" y="299" on="0"/>
        <pt x="384" y="323" on="0"/>
        <pt x="389" y="337" on="1"/>
        <pt x="395" y="341" on="0"/>
        <pt x="401" y="353" on="0"/>
        <pt x="407" y="358" on="1"/>
        <pt x="401" y="379" on="0"/>
        <pt x="385" y="402" on="0"/>
        <pt x="377" y="413" on="1"/>
        <pt x="374" y="418" on="0"/>
        <pt x="368" y="428" on="0"/>
        <pt x="365" y="433" on="1"/>
        <pt x="361" y="436" on="0"/>
        <pt x="356" y="442" on="0"/>
        <pt x="353" y="445" on="1"/>
        <pt x="351" y="450" on="0"/>
        <pt x="347" y="458" on="1"/>
        <pt x="343" y="463" on="0"/>
        <pt x="335" y="471" on="0"/>
        <pt x="332" y="477" on="1"/>
        <pt x="328" y="481" on="0"/>
        <pt x="316" y="495" on="0"/>
        <pt x="303" y="512" on="0"/>
        <pt x="293" y="527" on="0"/>
        <pt x="290" y="532" on="1"/>
        <pt x="288" y="537" on="0"/>
        <pt x="285" y="544" on="0"/>
        <pt x="283" y="548" on="1"/>
        <pt x="278" y="555" on="0"/>
        <pt x="268" y="566" on="0"/>
        <pt x="263" y="573" on="1"/>
        <pt x="260" y="571" on="0"/>
        <pt x="255" y="570" on="0"/>
        <pt x="253" y="568" on="1"/>
        <pt x="246" y="555" on="0"/>
        <pt x="229" y="533" on="0"/>
        <pt x="221" y="520" on="1"/>
        <pt x="214" y="508" on="0"/>
        <pt x="200" y="483" on="0"/>
        <pt x="193" y="471" on="1"/>
        <pt x="188" y="464" on="0"/>
        <pt x="179" y="451" on="0"/>
        <pt x="174" y="443" on="1"/>
        <pt x="169" y="436" on="0"/>
        <pt x="162" y="421" on="0"/>
        <pt x="157" y="414" on="1"/>
        <pt x="149" y="404" on="0"/>
        <pt x="139" y="388" on="0"/>
        <pt x="134" y="377" on="1"/>
        <pt x="137" y="371" on="0"/>
        <pt x="150" y="350" on="0"/>
        <pt x="164" y="329" on="0"/>
        <pt x="175" y="311" on="0"/>
        <pt x="176" y="308" on="1"/>
        <pt x="184" y="301" on="0"/>
        <pt x="194" y="284" on="0"/>
        <pt x="202" y="276" on="1"/>
        <pt x="206" y="268" on="0"/>
        <pt x="216" y="256" on="0"/>
        <pt x="221" y="249" on="1"/>
        <pt x="226" y="242" on="0"/>
        <pt x="242" y="215" on="0"/>
        <pt x="258" y="187" on="0"/>
        <pt x="274" y="163" on="0"/>
        <pt x="279" y="160" on="1"/>
        <pt x="289" y="171" on="0"/>
        <pt x="302" y="198" on="0"/>
      </contour>
    </TTGlyph>
    <TTGlyph name="OE" xMin="0" yMin="-16" xMax="806" yMax="761">
      <contour>
        <pt x="407" y="371" on="1"/>
        <pt x="399" y="382" on="0"/>
        <pt x="385" y="402" on="0"/>
        <pt x="377" y="413" on="1"/>
        <pt x="374" y="418" on="0"/>
        <pt x="368" y="428" on="0"/>
        <pt x="365" y="433" on="1"/>
        <pt x="357" y="439" on="0"/>
        <pt x="353" y="445" on="1"/>
        <pt x="351" y="450" on="0"/>
        <pt x="347" y="458" on="1"/>
        <pt x="343" y="463" on="0"/>
        <pt x="335" y="471" on="0"/>
        <pt x="332" y="477" on="1"/>
        <pt x="328" y="480" on="0"/>
        <pt x="316" y="495" on="0"/>
        <pt x="303" y="512" on="0"/>
        <pt x="292" y="527" on="0"/>
        <pt x="290" y="532" on="1"/>
        <pt x="288" y="537" on="0"/>
        <pt x="285" y="544" on="0"/>
        <pt x="283" y="548" on="1"/>
        <pt x="278" y="555" on="0"/>
        <pt x="268" y="566" on="0"/>
        <pt x="263" y="573" on="1"/>
        <pt x="260" y="571" on="0"/>
        <pt x="255" y="570" on="0"/>
        <pt x="253" y="568" on="1"/>
        <pt x="246" y="555" on="0"/>
        <pt x="229" y="533" on="0"/>
        <pt x="222" y="520" on="1"/>
        <pt x="208" y="497" on="0"/>
        <pt x="193" y="471" on="1"/>
        <pt x="188" y="464" on="0"/>
        <pt x="178" y="451" on="0"/>
        <pt x="174" y="443" on="1"/>
        <pt x="169" y="436" on="0"/>
        <pt x="162" y="421" on="0"/>
        <pt x="157" y="414" on="1"/>
        <pt x="149" y="404" on="0"/>
        <pt x="139" y="388" on="0"/>
        <pt x="134" y="377" on="1"/>
        <pt x="137" y="371" on="0"/>
        <pt x="150" y="350" on="0"/>
        <pt x="164" y="329" on="0"/>
        <pt x="175" y="311" on="0"/>
        <pt x="176" y="308" on="1"/>
        <pt x="184" y="301" on="0"/>
        <pt x="194" y="284" on="0"/>
        <pt x="202" y="276" on="1"/>
        <pt x="206" y="268" on="0"/>
        <pt x="216" y="256" on="0"/>
        <pt x="221" y="249" on="1"/>
        <pt x="229" y="237" on="0"/>
        <pt x="250" y="201" on="0"/>
        <pt x="258" y="188" on="1"/>
        <pt x="263" y="181" on="0"/>
        <pt x="272" y="165" on="0"/>
        <pt x="279" y="160" on="1"/>
        <pt x="289" y="171" on="0"/>
        <pt x="302" y="198" on="0"/>
        <pt x="313" y="209" on="1"/>
        <pt x="324" y="224" on="0"/>
        <pt x="336" y="248" on="0"/>
        <pt x="342" y="260" on="1"/>
        <pt x="352" y="272" on="0"/>
        <pt x="356" y="282" on="0"/>
        <pt x="359" y="287" on="1"/>
        <pt x="367" y="299" on="0"/>
        <pt x="384" y="323" on="0"/>
        <pt x="389" y="337" on="1"/>
        <pt x="394" y="340" on="0"/>
        <pt x="399" y="350" on="0"/>
        <pt x="403" y="355" on="1"/>
        <pt x="403" y="364" on="0"/>
      </contour>
      <contour>
        <pt x="806" y="11" on="1"/>
        <pt x="794" y="1" on="0"/>
        <pt x="793" y="-4" on="0"/>
        <pt x="788" y="-6" on="1"/>
        <pt x="780" y="-10" on="0"/>
        <pt x="748" y="-9" on="0"/>
        <pt x="738" y="-9" on="1"/>
        <pt x="733" y="-9" on="0"/>
        <pt x="724" y="-9" on="0"/>
        <pt x="719" y="-11" on="1"/>
        <pt x="716" y="-12" on="0"/>
        <pt x="709" y="-16" on="0"/>
        <pt x="707" y="-16" on="1"/>
        <pt x="699" y="-16" on="0"/>
        <pt x="692" y="-11" on="0"/>
        <pt x="686" y="-10" on="1"/>
        <pt x="678" y="-1" on="0"/>
        <pt x="666" y="18" on="0"/>
        <pt x="658" y="28" on="1"/>
        <pt x="653" y="35" on="0"/>
        <pt x="639" y="46" on="0"/>
        <pt x="634" y="54" on="1"/>
        <pt x="604" y="95" on="0"/>
        <pt x="569" y="137" on="1"/>
        <pt x="561" y="148" on="0"/>
        <pt x="544" y="166" on="0"/>
        <pt x="536" y="177" on="1"/>
        <pt x="521" y="196" on="0"/>
        <pt x="498" y="235" on="0"/>
        <pt x="482" y="254" on="1"/>
        <pt x="472" y="237" on="0"/>
        <pt x="452" y="205" on="0"/>
        <pt x="441" y="189" on="1"/>
        <pt x="441" y="187" on="0"/>
        <pt x="418" y="150" on="0"/>
        <pt x="389" y="103" on="0"/>
        <pt x="362" y="59" on="0"/>
        <pt x="358" y="52" on="1"/>
        <pt x="353" y="44" on="0"/>
        <pt x="343" y="30" on="0"/>
        <pt x="338" y="22" on="1"/>
        <pt x="330" y="16" on="0"/>
        <pt x="318" y="-1" on="0"/>
        <pt x="310" y="-7" on="1"/>
        <pt x="297" y="-8" on="0"/>
        <pt x="294" y="5" on="1"/>
        <pt x="281" y="8" on="0"/>
        <pt x="281" y="2" on="0"/>
        <pt x="281" y="0" on="1"/>
        <pt x="277" y="-2" on="0"/>
        <pt x="274" y="-10" on="0"/>
        <pt x="270" y="-12" on="1"/>
        <pt x="262" y="-10" on="0"/>
        <pt x="251" y="-1" on="0"/>
        <pt x="241" y="-2" on="1"/>
        <pt x="237" y="4" on="0"/>
        <pt x="227" y="13" on="0"/>
        <pt x="223" y="18" on="1"/>
        <pt x="221" y="24" on="0"/>
        <pt x="214" y="31" on="0"/>
        <pt x="211" y="36" on="1"/>
        <pt x="208" y="41" on="0"/>
        <pt x="202" y="49" on="0"/>
        <pt x="199" y="53" on="1"/>
        <pt x="192" y="62" on="0"/>
        <pt x="179" y="79" on="0"/>
        <pt x="174" y="88" on="1"/>
        <pt x="166" y="100" on="0"/>
        <pt x="151" y="125" on="0"/>
        <pt x="143" y="137" on="1"/>
        <pt x="139" y="143" on="0"/>
        <pt x="131" y="155" on="0"/>
        <pt x="128" y="161" on="1"/>
        <pt x="126" y="166" on="0"/>
        <pt x="119" y="180" on="0"/>
        <pt x="114" y="182" on="1"/>
        <pt x="112" y="190" on="0"/>
        <pt x="102" y="198" on="0"/>
        <pt x="97" y="204" on="1"/>
        <pt x="90" y="212" on="0"/>
        <pt x="78" y="231" on="0"/>
        <pt x="72" y="241" on="1"/>
        <pt x="52" y="269" on="0"/>
        <pt x="17" y="323" on="0"/>
        <pt x="0" y="352" on="1"/>
        <pt x="5" y="368" on="0"/>
        <pt x="5" y="384" on="0"/>
        <pt x="10" y="389" on="1"/>
        <pt x="10" y="393" on="0"/>
        <pt x="12" y="401" on="1"/>
        <pt x="25" y="423" on="0"/>
        <pt x="37" y="441" on="1"/>
        <pt x="47" y="458" on="0"/>
        <pt x="57" y="480" on="0"/>
        <pt x="62" y="492" on="1"/>
        <pt x="67" y="495" on="0"/>
        <pt x="73" y="504" on="0"/>
        <pt x="78" y="508" on="1"/>
        <pt x="80" y="519" on="0"/>
        <pt x="94" y="534" on="0"/>
        <pt x="96" y="545" on="1"/>
        <pt x="105" y="552" on="0"/>
        <pt x="106" y="561" on="1"/>
        <pt x="119" y="570" on="0"/>
        <pt x="122" y="585" on="1"/>
        <pt x="130" y="593" on="0"/>
        <pt x="141" y="613" on="0"/>
        <pt x="146" y="624" on="1"/>
        <pt x="158" y="634" on="0"/>
        <pt x="165" y="650" on="1"/>
        <pt x="171" y="654" on="0"/>
        <pt x="177" y="668" on="0"/>
        <pt x="182" y="673" on="1"/>
        <pt x="189" y="686" on="0"/>
        <pt x="199" y="703" on="0"/>
        <pt x="204" y="712" on="1"/>
        <pt x="211" y="712" on="0"/>
        <pt x="215" y="722" on="0"/>
        <pt x="221" y="721" on="1"/>
        <pt x="221" y="730" on="0"/>
        <pt x="226" y="737" on="1"/>
        <pt x="228" y="738" on="0"/>
        <pt x="236" y="741" on="0"/>
        <pt x="236" y="743" on="1"/>
        <pt x="234" y="755" on="0"/>
        <pt x="240" y="759" on="0"/>
        <pt x="242" y="761" on="1"/>
        <pt x="253" y="759" on="0"/>
        <pt x="261" y="757" on="0"/>
        <pt x="270" y="751" on="1"/>
        <pt x="280" y="751" on="0"/>
        <pt x="288" y="743" on="0"/>
        <pt x="293" y="741" on="1"/>
        <pt x="297" y="737" on="0"/>
        <pt x="302" y="729" on="0"/>
        <pt x="307" y="727" on="1"/>
        <pt x="315" y="716" on="0"/>
        <pt x="333" y="690" on="0"/>
        <pt x="341" y="679" on="1"/>
        <pt x="352" y="664" on="0"/>
        <pt x="375" y="637" on="0"/>
        <pt x="385" y="621" on="1"/>
        <pt x="388" y="616" on="0"/>
        <pt x="404" y="590" on="0"/>
        <pt x="424" y="563" on="0"/>
        <pt x="440" y="540" on="0"/>
        <pt x="443" y="539" on="1"/>
        <pt x="449" y="526" on="0"/>
        <pt x="468" y="504" on="0"/>
        <pt x="476" y="493" on="1"/>
        <pt x="492" y="520" on="0"/>
        <pt x="528" y="572" on="0"/>
        <pt x="546" y="598" on="1"/>
        <pt x="559" y="618" on="0"/>
        <pt x="583" y="655" on="0"/>
        <pt x="597" y="675" on="1"/>
        <pt x="603" y="684" on="0"/>
        <pt x="619" y="707" on="0"/>
        <pt x="638" y="731" on="0"/>
        <pt x="659" y="751" on="0"/>
        <pt x="669" y="757" on="1"/>
        <pt x="684" y="758" on="0"/>
        <pt x="694" y="743" on="0"/>
        <pt x="703" y="743" on="1"/>
        <pt x="717" y="740" on="0"/>
        <pt x="725" y="730" on="0"/>
        <pt x="730" y="725" on="1"/>
        <pt x="744" y="725" on="0"/>
        <pt x="761" y="715" on="0"/>
        <pt x="769" y="706" on="1"/>
        <pt x="765" y="695" on="0"/>
        <pt x="754" y="677" on="0"/>
        <pt x="749" y="668" on="1"/>
        <pt x="741" y="664" on="0"/>
        <pt x="733" y="650" on="0"/>
        <pt x="727" y="646" on="1"/>
        <pt x="717" y="629" on="0"/>
        <pt x="694" y="598" on="0"/>
        <pt x="683" y="583" on="1"/>
        <pt x="678" y="574" on="0"/>
        <pt x="664" y="560" on="0"/>
        <pt x="658" y="552" on="1"/>
        <pt x="656" y="549" on="0"/>
        <pt x="655" y="542" on="0"/>
        <pt x="653" y="539" on="1"/>
        <pt x="641" y="520" on="0"/>
        <pt x="612" y="487" on="0"/>
        <pt x="601" y="467" on="1"/>
        <pt x="597" y="460" on="0"/>
        <pt x="592" y="445" on="0"/>
        <pt x="587" y="438" on="1"/>
        <pt x="576" y="423" on="0"/>
        <pt x="550" y="386" on="0"/>
        <pt x="545" y="368" on="1"/>
        <pt x="546" y="362" on="0"/>
        <pt x="545" y="359" on="0"/>
        <pt x="545" y="357" on="1"/>
        <pt x="546" y="354" on="0"/>
        <pt x="569" y="326" on="0"/>
        <pt x="597" y="293" on="0"/>
        <pt x="623" y="265" on="0"/>
        <pt x="627" y="262" on="1"/>
        <pt x="628" y="257" on="0"/>
        <pt x="654" y="225" on="0"/>
        <pt x="686" y="187" on="0"/>
        <pt x="715" y="152" on="0"/>
        <pt x="721" y="144" on="1"/>
        <pt x="731" y="130" on="0"/>
        <pt x="752" y="103" on="0"/>
        <pt x="761" y="88" on="1"/>
        <pt x="766" y="80" on="0"/>
        <pt x="775" y="66" on="0"/>
        <pt x="780" y="58" on="1"/>
        <pt x="788" y="48" on="0"/>
        <pt x="801" y="34" on="0"/>
        <pt x="805" y="22" on="1"/>
        <pt x="805" y="19" on="0"/>
        <pt x="806" y="13" on="0"/>
      </contour>
      <contour>
        <pt x="770" y="349" on="1"/>
        <pt x="770" y="344" on="0"/>
        <pt x="766" y="332" on="0"/>
        <pt x="765" y="327" on="1"/>
        <pt x="764" y="321" on="0"/>
        <pt x="764" y="308" on="0"/>
        <pt x="760" y="303" on="1"/>
        <pt x="755" y="298" on="0"/>
        <pt x="742" y="296" on="0"/>
        <pt x="737" y="292" on="1"/>
        <pt x="735" y="290" on="0"/>
        <pt x="728" y="280" on="0"/>
        <pt x="720" y="268" on="0"/>
        <pt x="714" y="257" on="0"/>
        <pt x="713" y="254" on="1"/>
        <pt x="701" y="253" on="0"/>
        <pt x="694" y="254" on="0"/>
        <pt x="690" y="253" on="1"/>
        <pt x="680" y="261" on="0"/>
        <pt x="667" y="268" on="1"/>
        <pt x="665" y="276" on="0"/>
        <pt x="649" y="298" on="0"/>
        <pt x="644" y="304" on="1"/>
        <pt x="638" y="314" on="1"/>
        <pt x="623" y="334" on="0"/>
        <pt x="598" y="373" on="0"/>
        <pt x="592" y="397" on="1"/>
        <pt x="610" y="411" on="0"/>
        <pt x="632" y="425" on="0"/>
        <pt x="656" y="437" on="0"/>
        <pt x="679" y="449" on="0"/>
        <pt x="689" y="457" on="1"/>
        <pt x="697" y="456" on="0"/>
        <pt x="703" y="454" on="0"/>
        <pt x="706" y="451" on="0"/>
        <pt x="709" y="447" on="0"/>
        <pt x="714" y="444" on="1"/>
        <pt x="718" y="431" on="0"/>
        <pt x="728" y="418" on="1"/>
        <pt x="730" y="414" on="0"/>
        <pt x="739" y="407" on="0"/>
        <pt x="741" y="403" on="1"/>
        <pt x="743" y="401" on="0"/>
        <pt x="747" y="389" on="0"/>
        <pt x="749" y="385" on="1"/>
        <pt x="753" y="377" on="0"/>
        <pt x="770" y="357" on="0"/>
      </contour>
    </TTGlyph>
    <TTGlyph name="Oacute" xMin="0" yMin="-12" xMax="546" yMax="972">
      <component glyphName="O" x="0" y="0" flags="0x4"/>
      <component glyphName="acute" x="82" y="205" flags="0x4"/>
    </TTGlyph>
    <TTGlyph name="Ocircumflex" xMin="0" yMin="-12" xMax="546" yMax="950">
      <component glyphName="O" x="0" y="0" flags="0x4"/>
      <component glyphName="circumflex" x="31" y="123" flags="0x4"/>
    </TTGlyph>
    <TTGlyph name="Odieresis" xMin="0" yMin="-12" xMax="546" yMax="918">
      <component glyphName="O" x="0" y="0" flags="0x204"/>
      <component glyphName="dieresis" x="72" y="154" flags="0x4"/>
    </TTGlyph>
    <TTGlyph name="Ograve" xMin="0" yMin="-12" xMax="546" yMax="982">
      <component glyphName="O" x="0" y="0" flags="0x204"/>
      <component glyphName="grave" x="10" y="215" flags="0x4"/>
    </TTGlyph>
    <TTGlyph name="Oslash" xMin="20" yMin="-12" xMax="566" yMax="761">
      <contour>
        <pt x="334" y="209" on="1"/>
        <pt x="344" y="224" on="0"/>
        <pt x="356" y="248" on="0"/>
        <pt x="362" y="260" on="1"/>
        <pt x="364" y="262" on="0"/>
        <pt x="369" y="266" on="0"/>
        <pt x="370" y="268" on="1"/>
        <pt x="373" y="272" on="0"/>
        <pt x="377" y="282" on="0"/>
        <pt x="380" y="287" on="1"/>
        <pt x="388" y="299" on="0"/>
        <pt x="404" y="323" on="0"/>
        <pt x="410" y="337" on="1"/>
        <pt x="416" y="341" on="0"/>
        <pt x="422" y="353" on="0"/>
        <pt x="427" y="358" on="1"/>
        <pt x="421" y="379" on="0"/>
        <pt x="405" y="402" on="0"/>
        <pt x="397" y="413" on="1"/>
        <pt x="394" y="418" on="0"/>
        <pt x="388" y="428" on="0"/>
        <pt x="385" y="433" on="1"/>
        <pt x="382" y="436" on="0"/>
        <pt x="376" y="442" on="0"/>
        <pt x="374" y="445" on="1"/>
        <pt x="372" y="450" on="0"/>
        <pt x="368" y="458" on="1"/>
        <pt x="363" y="463" on="0"/>
        <pt x="355" y="471" on="0"/>
        <pt x="352" y="477" on="1"/>
        <pt x="348" y="480" on="0"/>
        <pt x="336" y="495" on="0"/>
        <pt x="323" y="512" on="0"/>
        <pt x="312" y="527" on="0"/>
        <pt x="310" y="532" on="1"/>
        <pt x="308" y="537" on="0"/>
        <pt x="305" y="544" on="0"/>
        <pt x="303" y="548" on="1"/>
        <pt x="298" y="555" on="0"/>
        <pt x="289" y="566" on="0"/>
        <pt x="284" y="573" on="1"/>
        <pt x="281" y="571" on="0"/>
        <pt x="275" y="570" on="0"/>
        <pt x="273" y="568" on="1"/>
        <pt x="266" y="555" on="0"/>
        <pt x="250" y="533" on="0"/>
        <pt x="243" y="520" on="1"/>
        <pt x="235" y="508" on="0"/>
        <pt x="220" y="483" on="0"/>
        <pt x="213" y="471" on="1"/>
        <pt x="209" y="464" on="0"/>
        <pt x="199" y="451" on="0"/>
        <pt x="195" y="443" on="1"/>
        <pt x="190" y="436" on="0"/>
        <pt x="182" y="421" on="0"/>
        <pt x="177" y="414" on="1"/>
        <pt x="170" y="404" on="0"/>
        <pt x="160" y="388" on="0"/>
        <pt x="155" y="377" on="1"/>
        <pt x="158" y="371" on="0"/>
        <pt x="171" y="350" on="0"/>
        <pt x="185" y="329" on="0"/>
        <pt x="196" y="311" on="0"/>
        <pt x="197" y="308" on="1"/>
        <pt x="205" y="301" on="0"/>
        <pt x="214" y="284" on="0"/>
        <pt x="222" y="276" on="1"/>
        <pt x="226" y="268" on="0"/>
        <pt x="236" y="256" on="0"/>
        <pt x="242" y="249" on="1"/>
        <pt x="250" y="237" on="0"/>
        <pt x="271" y="201" on="0"/>
        <pt x="279" y="188" on="1"/>
        <pt x="284" y="181" on="0"/>
        <pt x="293" y="165" on="0"/>
        <pt x="299" y="160" on="1"/>
        <pt x="309" y="171" on="0"/>
        <pt x="323" y="198" on="0"/>
      </contour>
      <contour>
        <pt x="200" y="80" on="1"/>
        <pt x="198" y="76" on="0"/>
        <pt x="190" y="57" on="0"/>
        <pt x="179" y="36" on="0"/>
        <pt x="169" y="19" on="0"/>
        <pt x="165" y="19" on="1"/>
        <pt x="161" y="21" on="0"/>
        <pt x="158" y="24" on="0"/>
        <pt x="155" y="27" on="0"/>
        <pt x="150" y="28" on="0"/>
        <pt x="144" y="28" on="1"/>
        <pt x="136" y="28" on="0"/>
        <pt x="132" y="33" on="1"/>
        <pt x="129" y="34" on="0"/>
        <pt x="123" y="32" on="0"/>
        <pt x="120" y="32" on="1"/>
        <pt x="106" y="38" on="0"/>
        <pt x="99" y="48" on="0"/>
        <pt x="85" y="48" on="1"/>
        <pt x="83" y="48" on="0"/>
        <pt x="68" y="58" on="0"/>
        <pt x="66" y="60" on="1"/>
        <pt x="66" y="65" on="0"/>
        <pt x="67" y="71" on="0"/>
        <pt x="67" y="74" on="1"/>
        <pt x="74" y="115" on="0"/>
        <pt x="105" y="172" on="0"/>
        <pt x="122" y="201" on="1"/>
        <pt x="115" y="207" on="0"/>
        <pt x="86" y="248" on="0"/>
        <pt x="54" y="297" on="0"/>
        <pt x="26" y="342" on="0"/>
        <pt x="20" y="352" on="1"/>
        <pt x="25" y="368" on="0"/>
        <pt x="26" y="384" on="0"/>
        <pt x="31" y="389" on="1"/>
        <pt x="31" y="393" on="0"/>
        <pt x="33" y="401" on="1"/>
        <pt x="39" y="412" on="0"/>
        <pt x="50" y="431" on="0"/>
        <pt x="57" y="441" on="1"/>
        <pt x="68" y="458" on="0"/>
        <pt x="78" y="480" on="0"/>
        <pt x="83" y="492" on="1"/>
        <pt x="88" y="495" on="0"/>
        <pt x="93" y="504" on="0"/>
        <pt x="98" y="508" on="1"/>
        <pt x="100" y="519" on="0"/>
        <pt x="115" y="534" on="0"/>
        <pt x="117" y="545" on="1"/>
        <pt x="126" y="552" on="0"/>
        <pt x="127" y="561" on="1"/>
        <pt x="139" y="570" on="0"/>
        <pt x="142" y="585" on="1"/>
        <pt x="151" y="593" on="0"/>
        <pt x="162" y="613" on="0"/>
        <pt x="167" y="624" on="1"/>
        <pt x="179" y="634" on="0"/>
        <pt x="185" y="650" on="1"/>
        <pt x="192" y="654" on="0"/>
        <pt x="198" y="668" on="0"/>
        <pt x="203" y="673" on="1"/>
        <pt x="210" y="686" on="0"/>
        <pt x="219" y="703" on="0"/>
        <pt x="224" y="712" on="1"/>
        <pt x="231" y="712" on="0"/>
        <pt x="235" y="722" on="0"/>
        <pt x="242" y="721" on="1"/>
        <pt x="242" y="730" on="0"/>
        <pt x="247" y="737" on="1"/>
        <pt x="250" y="739" on="0"/>
        <pt x="256" y="740" on="0"/>
        <pt x="256" y="745" on="1"/>
        <pt x="255" y="755" on="0"/>
        <pt x="260" y="759" on="0"/>
        <pt x="262" y="761" on="1"/>
        <pt x="273" y="759" on="0"/>
        <pt x="281" y="757" on="0"/>
        <pt x="291" y="751" on="1"/>
        <pt x="300" y="751" on="0"/>
        <pt x="308" y="743" on="0"/>
        <pt x="313" y="741" on="1"/>
        <pt x="317" y="737" on="0"/>
        <pt x="323" y="729" on="0"/>
        <pt x="328" y="727" on="1"/>
        <pt x="339" y="712" on="0"/>
        <pt x="360" y="682" on="0"/>
        <pt x="373" y="668" on="1"/>
        <pt x="378" y="679" on="0"/>
        <pt x="393" y="712" on="0"/>
        <pt x="400" y="721" on="1"/>
        <pt x="405" y="726" on="0"/>
        <pt x="421" y="733" on="0"/>
        <pt x="427" y="734" on="1"/>
        <pt x="430" y="732" on="0"/>
        <pt x="438" y="723" on="0"/>
        <pt x="440" y="723" on="1"/>
        <pt x="447" y="721" on="0"/>
        <pt x="458" y="718" on="0"/>
        <pt x="457" y="713" on="1"/>
        <pt x="465" y="712" on="0"/>
        <pt x="467" y="705" on="0"/>
        <pt x="469" y="702" on="1"/>
        <pt x="472" y="700" on="0"/>
        <pt x="484" y="696" on="0"/>
        <pt x="484" y="691" on="1"/>
        <pt x="498" y="685" on="0"/>
        <pt x="513" y="676" on="0"/>
        <pt x="515" y="668" on="1"/>
        <pt x="504" y="636" on="0"/>
        <pt x="472" y="577" on="0"/>
        <pt x="455" y="548" on="1"/>
        <pt x="457" y="546" on="0"/>
        <pt x="462" y="541" on="0"/>
        <pt x="464" y="539" on="1"/>
        <pt x="466" y="533" on="0"/>
        <pt x="486" y="505" on="0"/>
        <pt x="510" y="474" on="0"/>
        <pt x="531" y="446" on="0"/>
        <pt x="536" y="442" on="1"/>
        <pt x="547" y="427" on="0"/>
        <pt x="557" y="408" on="0"/>
        <pt x="562" y="397" on="1"/>
        <pt x="560" y="393" on="0"/>
        <pt x="556" y="386" on="0"/>
        <pt x="555" y="382" on="1"/>
        <pt x="559" y="378" on="0"/>
        <pt x="566" y="369" on="0"/>
        <pt x="566" y="364" on="1"/>
        <pt x="566" y="360" on="0"/>
        <pt x="563" y="353" on="0"/>
        <pt x="564" y="350" on="1"/>
        <pt x="560" y="343" on="0"/>
        <pt x="552" y="331" on="0"/>
        <pt x="550" y="324" on="1"/>
        <pt x="546" y="320" on="0"/>
        <pt x="541" y="312" on="0"/>
        <pt x="539" y="308" on="1"/>
        <pt x="534" y="306" on="0"/>
        <pt x="530" y="297" on="0"/>
        <pt x="526" y="294" on="1"/>
        <pt x="525" y="290" on="0"/>
        <pt x="507" y="260" on="0"/>
        <pt x="485" y="225" on="0"/>
        <pt x="465" y="194" on="0"/>
        <pt x="462" y="189" on="1"/>
        <pt x="462" y="187" on="0"/>
        <pt x="455" y="175" on="0"/>
        <pt x="446" y="162" on="0"/>
        <pt x="437" y="150" on="0"/>
        <pt x="436" y="147" on="1"/>
        <pt x="426" y="133" on="0"/>
        <pt x="407" y="99" on="0"/>
        <pt x="397" y="84" on="1"/>
        <pt x="392" y="76" on="0"/>
        <pt x="384" y="60" on="0"/>
        <pt x="379" y="52" on="1"/>
        <pt x="374" y="44" on="0"/>
        <pt x="363" y="30" on="0"/>
        <pt x="358" y="22" on="1"/>
        <pt x="350" y="16" on="0"/>
        <pt x="339" y="-1" on="0"/>
        <pt x="331" y="-7" on="1"/>
        <pt x="317" y="-7" on="0"/>
        <pt x="314" y="5" on="1"/>
        <pt x="301" y="8" on="0"/>
        <pt x="301" y="2" on="0"/>
        <pt x="301" y="0" on="1"/>
        <pt x="298" y="-2" on="0"/>
        <pt x="295" y="-10" on="0"/>
        <pt x="291" y="-12" on="1"/>
        <pt x="283" y="-10" on="0"/>
        <pt x="271" y="-1" on="0"/>
        <pt x="261" y="-2" on="1"/>
        <pt x="257" y="4" on="0"/>
        <pt x="248" y="13" on="0"/>
        <pt x="244" y="18" on="1"/>
        <pt x="243" y="21" on="0"/>
        <pt x="231" y="38" on="0"/>
        <pt x="216" y="58" on="0"/>
        <pt x="203" y="76" on="0"/>
      </contour>
    </TTGlyph>
    <TTGlyph name="Otilde" xMin="0" yMin="-12" xMax="546" yMax="922">
      <component glyphName="O" x="0" y="0" flags="0x204"/>
      <component glyphName="tilde" x="49" y="145" flags="0x4"/>
    </TTGlyph>
    <TTGlyph name="P" xMin="61" yMin="-6" xMax="504" yMax="736">
      <contour>
        <pt x="142" y="727" on="1"/>
        <pt x="146" y="728" on="0"/>
        <pt x="152" y="732" on="0"/>
        <pt x="156" y="732" on="1"/>
        <pt x="159" y="731" on="0"/>
        <pt x="162" y="725" on="0"/>
        <pt x="165" y="723" on="1"/>
        <pt x="168" y="725" on="0"/>
        <pt x="173" y="729" on="0"/>
        <pt x="176" y="730" on="1"/>
        <pt x="186" y="727" on="0"/>
        <pt x="187" y="720" on="1"/>
        <pt x="192" y="718" on="0"/>
        <pt x="200" y="713" on="0"/>
        <pt x="205" y="712" on="1"/>
        <pt x="207" y="708" on="0"/>
        <pt x="213" y="704" on="0"/>
        <pt x="217" y="700" on="1"/>
        <pt x="227" y="698" on="0"/>
        <pt x="260" y="680" on="0"/>
        <pt x="270" y="675" on="1"/>
        <pt x="280" y="670" on="0"/>
        <pt x="300" y="660" on="0"/>
        <pt x="309" y="654" on="1"/>
        <pt x="318" y="649" on="0"/>
        <pt x="336" y="636" on="0"/>
        <pt x="346" y="632" on="1"/>
        <pt x="355" y="621" on="0"/>
        <pt x="383" y="615" on="0"/>
        <pt x="394" y="607" on="1"/>
        <pt x="403" y="602" on="0"/>
        <pt x="419" y="591" on="0"/>
        <pt x="427" y="586" on="1"/>
        <pt x="430" y="581" on="0"/>
        <pt x="439" y="575" on="0"/>
        <pt x="443" y="570" on="1"/>
        <pt x="463" y="559" on="0"/>
        <pt x="466" y="553" on="1"/>
        <pt x="469" y="551" on="0"/>
        <pt x="481" y="543" on="0"/>
        <pt x="493" y="534" on="0"/>
        <pt x="503" y="525" on="0"/>
        <pt x="504" y="521" on="1"/>
        <pt x="500" y="512" on="0"/>
        <pt x="500" y="501" on="0"/>
        <pt x="496" y="497" on="1"/>
        <pt x="502" y="489" on="0"/>
        <pt x="502" y="482" on="1"/>
        <pt x="497" y="470" on="0"/>
        <pt x="485" y="462" on="1"/>
        <pt x="482" y="454" on="0"/>
        <pt x="469" y="445" on="0"/>
        <pt x="467" y="437" on="1"/>
        <pt x="459" y="432" on="0"/>
        <pt x="456" y="426" on="0"/>
        <pt x="454" y="423" on="1"/>
        <pt x="435" y="403" on="0"/>
        <pt x="402" y="374" on="0"/>
        <pt x="388" y="357" on="1"/>
        <pt x="378" y="352" on="0"/>
        <pt x="364" y="337" on="0"/>
        <pt x="358" y="328" on="1"/>
        <pt x="350" y="320" on="0"/>
        <pt x="335" y="305" on="0"/>
        <pt x="327" y="298" on="1"/>
        <pt x="325" y="294" on="0"/>
        <pt x="316" y="289" on="0"/>
        <pt x="314" y="284" on="1"/>
        <pt x="303" y="279" on="0"/>
        <pt x="289" y="261" on="0"/>
        <pt x="279" y="255" on="1"/>
        <pt x="272" y="245" on="1"/>
        <pt x="269" y="243" on="0"/>
        <pt x="258" y="234" on="0"/>
        <pt x="247" y="223" on="0"/>
        <pt x="239" y="213" on="0"/>
        <pt x="238" y="210" on="1"/>
        <pt x="235" y="209" on="0"/>
        <pt x="222" y="199" on="0"/>
        <pt x="209" y="187" on="0"/>
        <pt x="198" y="175" on="0"/>
        <pt x="197" y="173" on="1"/>
        <pt x="187" y="166" on="1"/>
        <pt x="188" y="139" on="0"/>
        <pt x="189" y="84" on="0"/>
        <pt x="189" y="57" on="1"/>
        <pt x="189" y="23" on="1"/>
        <pt x="182" y="14" on="1"/>
        <pt x="177" y="14" on="0"/>
        <pt x="171" y="18" on="0"/>
        <pt x="167" y="18" on="1"/>
        <pt x="163" y="18" on="0"/>
        <pt x="156" y="10" on="0"/>
        <pt x="153" y="8" on="1"/>
        <pt x="146" y="7" on="0"/>
        <pt x="137" y="2" on="0"/>
        <pt x="132" y="0" on="1"/>
        <pt x="126" y="3" on="0"/>
        <pt x="120" y="3" on="1"/>
        <pt x="107" y="0" on="0"/>
        <pt x="108" y="4" on="0"/>
        <pt x="103" y="4" on="1"/>
        <pt x="95" y="-4" on="0"/>
        <pt x="93" y="-4" on="1"/>
        <pt x="89" y="-4" on="0"/>
        <pt x="82" y="-6" on="0"/>
        <pt x="78" y="-6" on="1"/>
        <pt x="74" y="2" on="0"/>
        <pt x="69" y="19" on="0"/>
        <pt x="62" y="27" on="1"/>
        <pt x="65" y="37" on="0"/>
        <pt x="61" y="41" on="1"/>
        <pt x="67" y="52" on="0"/>
        <pt x="65" y="80" on="0"/>
        <pt x="65" y="92" on="1"/>
        <pt x="65" y="99" on="0"/>
        <pt x="66" y="112" on="0"/>
        <pt x="66" y="118" on="1"/>
        <pt x="66" y="130" on="0"/>
        <pt x="62" y="155" on="0"/>
        <pt x="62" y="168" on="1"/>
        <pt x="62" y="198" on="0"/>
        <pt x="66" y="259" on="0"/>
        <pt x="66" y="289" on="1"/>
        <pt x="66" y="306" on="0"/>
        <pt x="63" y="342" on="0"/>
        <pt x="63" y="359" on="1"/>
        <pt x="63" y="370" on="0"/>
        <pt x="65" y="389" on="0"/>
        <pt x="66" y="398" on="1"/>
        <pt x="66" y="444" on="0"/>
        <pt x="69" y="529" on="0"/>
        <pt x="69" y="571" on="1"/>
        <pt x="69" y="585" on="0"/>
        <pt x="68" y="610" on="0"/>
        <pt x="68" y="624" on="1"/>
        <pt x="68" y="631" on="0"/>
        <pt x="70" y="645" on="0"/>
        <pt x="70" y="652" on="1"/>
        <pt x="73" y="683" on="0"/>
        <pt x="73" y="714" on="1"/>
        <pt x="72" y="730" on="1"/>
        <pt x="76" y="736" on="0"/>
        <pt x="84" y="736" on="1"/>
        <pt x="95" y="736" on="0"/>
        <pt x="101" y="729" on="1"/>
        <pt x="108" y="730" on="0"/>
        <pt x="121" y="733" on="0"/>
        <pt x="127" y="733" on="1"/>
        <pt x="136" y="733" on="0"/>
      </contour>
      <contour>
        <pt x="201" y="568" on="1"/>
        <pt x="201" y="563" on="0"/>
        <pt x="199" y="558" on="0"/>
        <pt x="198" y="556" on="1"/>
        <pt x="198" y="553" on="0"/>
        <pt x="199" y="546" on="0"/>
        <pt x="199" y="542" on="1"/>
        <pt x="199" y="519" on="0"/>
        <pt x="198" y="474" on="0"/>
        <pt x="198" y="452" on="1"/>
        <pt x="196" y="399" on="1"/>
        <pt x="196" y="394" on="0"/>
        <pt x="198" y="382" on="0"/>
        <pt x="198" y="377" on="1"/>
        <pt x="198" y="372" on="0"/>
        <pt x="196" y="362" on="0"/>
        <pt x="196" y="357" on="1"/>
        <pt x="196" y="344" on="0"/>
        <pt x="199" y="331" on="1"/>
        <pt x="204" y="333" on="0"/>
        <pt x="208" y="342" on="0"/>
        <pt x="211" y="345" on="1"/>
        <pt x="234" y="366" on="0"/>
        <pt x="274" y="412" on="0"/>
        <pt x="295" y="435" on="1"/>
        <pt x="313" y="454" on="0"/>
        <pt x="339" y="478" on="0"/>
        <pt x="346" y="495" on="1"/>
        <pt x="329" y="506" on="0"/>
        <pt x="293" y="529" on="0"/>
        <pt x="273" y="537" on="1"/>
        <pt x="272" y="539" on="0"/>
        <pt x="263" y="545" on="0"/>
        <pt x="253" y="550" on="0"/>
        <pt x="243" y="554" on="0"/>
        <pt x="241" y="554" on="1"/>
        <pt x="232" y="562" on="0"/>
        <pt x="222" y="564" on="1"/>
        <pt x="215" y="564" on="0"/>
        <pt x="205" y="569" on="0"/>
        <pt x="203" y="571" on="1"/>
      </contour>
    </TTGlyph>
    <TTGlyph name="Q" xMin="0" yMin="-42" xMax="537" yMax="761">
      <contour>
        <pt x="287" y="736" on="1"/>
        <pt x="290" y="738" on="0"/>
        <pt x="295" y="742" on="0"/>
        <pt x="299" y="743" on="1"/>
        <pt x="304" y="741" on="0"/>
        <pt x="314" y="735" on="0"/>
        <pt x="319" y="733" on="1"/>
        <pt x="336" y="716" on="0"/>
        <pt x="347" y="689" on="1"/>
        <pt x="352" y="678" on="0"/>
        <pt x="371" y="660" on="0"/>
        <pt x="377" y="648" on="1"/>
        <pt x="381" y="640" on="0"/>
        <pt x="389" y="628" on="0"/>
        <pt x="394" y="620" on="1"/>
        <pt x="410" y="598" on="0"/>
        <pt x="439" y="546" on="0"/>
        <pt x="454" y="523" on="1"/>
        <pt x="468" y="498" on="0"/>
        <pt x="495" y="449" on="0"/>
        <pt x="510" y="424" on="1"/>
        <pt x="510" y="419" on="0"/>
        <pt x="514" y="413" on="1"/>
        <pt x="515" y="397" on="0"/>
        <pt x="514" y="393" on="1"/>
        <pt x="518" y="386" on="0"/>
        <pt x="531" y="378" on="0"/>
        <pt x="536" y="373" on="1"/>
        <pt x="537" y="365" on="0"/>
        <pt x="530" y="352" on="0"/>
        <pt x="529" y="344" on="1"/>
        <pt x="516" y="322" on="0"/>
        <pt x="501" y="299" on="1"/>
        <pt x="493" y="288" on="0"/>
        <pt x="480" y="264" on="0"/>
        <pt x="472" y="253" on="1"/>
        <pt x="467" y="242" on="0"/>
        <pt x="461" y="231" on="0"/>
        <pt x="459" y="226" on="1"/>
        <pt x="449" y="215" on="0"/>
        <pt x="441" y="188" on="0"/>
        <pt x="430" y="177" on="1"/>
        <pt x="432" y="165" on="0"/>
        <pt x="459" y="138" on="0"/>
        <pt x="468" y="130" on="1"/>
        <pt x="471" y="124" on="0"/>
        <pt x="479" y="115" on="0"/>
        <pt x="483" y="110" on="1"/>
        <pt x="485" y="108" on="0"/>
        <pt x="490" y="104" on="0"/>
        <pt x="493" y="102" on="1"/>
        <pt x="494" y="95" on="0"/>
        <pt x="503" y="86" on="0"/>
        <pt x="509" y="84" on="1"/>
        <pt x="513" y="73" on="0"/>
        <pt x="520" y="68" on="0"/>
        <pt x="520" y="65" on="1"/>
        <pt x="520" y="60" on="0"/>
        <pt x="518" y="54" on="1"/>
        <pt x="512" y="47" on="0"/>
        <pt x="498" y="32" on="0"/>
        <pt x="490" y="27" on="1"/>
        <pt x="487" y="21" on="0"/>
        <pt x="480" y="4" on="0"/>
        <pt x="471" y="-13" on="0"/>
        <pt x="461" y="-27" on="0"/>
        <pt x="456" y="-29" on="1"/>
        <pt x="443" y="-22" on="0"/>
        <pt x="443" y="-15" on="1"/>
        <pt x="440" y="-14" on="0"/>
        <pt x="427" y="-1" on="0"/>
        <pt x="427" y="1" on="1"/>
        <pt x="402" y="15" on="0"/>
        <pt x="387" y="38" on="1"/>
        <pt x="384" y="40" on="0"/>
        <pt x="379" y="43" on="0"/>
        <pt x="376" y="44" on="1"/>
        <pt x="374" y="49" on="0"/>
        <pt x="367" y="54" on="0"/>
        <pt x="365" y="59" on="1"/>
        <pt x="362" y="61" on="0"/>
        <pt x="352" y="47" on="0"/>
        <pt x="341" y="29" on="0"/>
        <pt x="333" y="12" on="0"/>
        <pt x="332" y="10" on="1"/>
        <pt x="326" y="5" on="0"/>
        <pt x="315" y="-6" on="0"/>
        <pt x="309" y="-11" on="1"/>
        <pt x="297" y="-20" on="0"/>
        <pt x="288" y="-28" on="0"/>
        <pt x="286" y="-36" on="1"/>
        <pt x="277" y="-40" on="0"/>
        <pt x="273" y="-42" on="0"/>
        <pt x="271" y="-42" on="1"/>
        <pt x="266" y="-42" on="0"/>
        <pt x="253" y="-29" on="0"/>
        <pt x="249" y="-26" on="1"/>
        <pt x="244" y="-25" on="0"/>
        <pt x="233" y="-23" on="0"/>
        <pt x="229" y="-18" on="1"/>
        <pt x="223" y="-7" on="0"/>
        <pt x="218" y="8" on="0"/>
        <pt x="210" y="11" on="1"/>
        <pt x="210" y="16" on="0"/>
        <pt x="205" y="20" on="0"/>
        <pt x="202" y="24" on="1"/>
        <pt x="194" y="35" on="0"/>
        <pt x="181" y="65" on="0"/>
        <pt x="173" y="78" on="1"/>
        <pt x="165" y="90" on="0"/>
        <pt x="145" y="114" on="0"/>
        <pt x="136" y="125" on="1"/>
        <pt x="133" y="129" on="0"/>
        <pt x="126" y="137" on="0"/>
        <pt x="123" y="141" on="1"/>
        <pt x="117" y="152" on="0"/>
        <pt x="104" y="173" on="0"/>
        <pt x="97" y="183" on="1"/>
        <pt x="95" y="186" on="0"/>
        <pt x="90" y="191" on="0"/>
        <pt x="88" y="195" on="1"/>
        <pt x="82" y="203" on="0"/>
        <pt x="74" y="219" on="0"/>
        <pt x="69" y="228" on="1"/>
        <pt x="61" y="245" on="0"/>
        <pt x="40" y="274" on="0"/>
        <pt x="32" y="290" on="1"/>
        <pt x="24" y="308" on="0"/>
        <pt x="8" y="337" on="0"/>
        <pt x="2" y="351" on="1"/>
        <pt x="2" y="354" on="0"/>
        <pt x="1" y="360" on="0"/>
        <pt x="0" y="364" on="1"/>
        <pt x="5" y="377" on="0"/>
        <pt x="10" y="387" on="0"/>
        <pt x="10" y="392" on="1"/>
        <pt x="12" y="395" on="0"/>
        <pt x="17" y="402" on="0"/>
        <pt x="18" y="407" on="1"/>
        <pt x="42" y="439" on="0"/>
        <pt x="83" y="507" on="0"/>
        <pt x="104" y="540" on="1"/>
        <pt x="127" y="574" on="0"/>
        <pt x="166" y="643" on="0"/>
        <pt x="188" y="676" on="1"/>
        <pt x="188" y="682" on="0"/>
        <pt x="193" y="687" on="0"/>
        <pt x="193" y="691" on="1"/>
        <pt x="198" y="696" on="0"/>
        <pt x="206" y="710" on="0"/>
        <pt x="208" y="717" on="1"/>
        <pt x="211" y="722" on="0"/>
        <pt x="218" y="732" on="0"/>
        <pt x="220" y="738" on="1"/>
        <pt x="224" y="741" on="0"/>
        <pt x="229" y="749" on="0"/>
        <pt x="232" y="753" on="1"/>
        <pt x="237" y="755" on="0"/>
        <pt x="241" y="761" on="0"/>
        <pt x="249" y="761" on="1"/>
        <pt x="252" y="761" on="0"/>
        <pt x="257" y="760" on="0"/>
        <pt x="260" y="761" on="1"/>
        <pt x="265" y="759" on="0"/>
        <pt x="270" y="751" on="0"/>
        <pt x="276" y="750" on="1"/>
        <pt x="278" y="745" on="0"/>
        <pt x="285" y="740" on="0"/>
      </contour>
      <contour>
        <pt x="339" y="476" on="1"/>
        <pt x="330" y="490" on="0"/>
        <pt x="315" y="517" on="0"/>
        <pt x="305" y="529" on="1"/>
        <pt x="304" y="532" on="0"/>
        <pt x="297" y="545" on="0"/>
        <pt x="288" y="557" on="0"/>
        <pt x="278" y="567" on="0"/>
        <pt x="275" y="567" on="1"/>
        <pt x="268" y="562" on="0"/>
        <pt x="262" y="558" on="1"/>
        <pt x="258" y="546" on="0"/>
        <pt x="244" y="522" on="0"/>
        <pt x="237" y="511" on="1"/>
        <pt x="230" y="503" on="0"/>
        <pt x="219" y="490" on="0"/>
        <pt x="216" y="479" on="1"/>
        <pt x="211" y="474" on="0"/>
        <pt x="204" y="465" on="0"/>
        <pt x="200" y="460" on="1"/>
        <pt x="197" y="450" on="0"/>
        <pt x="182" y="426" on="0"/>
        <pt x="166" y="402" on="0"/>
        <pt x="150" y="378" on="0"/>
        <pt x="144" y="368" on="1"/>
        <pt x="137" y="359" on="0"/>
        <pt x="136" y="351" on="0"/>
        <pt x="135" y="347" on="1"/>
        <pt x="140" y="333" on="0"/>
        <pt x="158" y="309" on="0"/>
        <pt x="165" y="296" on="1"/>
        <pt x="173" y="282" on="0"/>
        <pt x="185" y="256" on="0"/>
        <pt x="196" y="245" on="1"/>
        <pt x="214" y="222" on="0"/>
        <pt x="245" y="171" on="0"/>
        <pt x="266" y="151" on="1"/>
        <pt x="273" y="157" on="0"/>
        <pt x="275" y="166" on="1"/>
        <pt x="282" y="174" on="0"/>
        <pt x="294" y="192" on="0"/>
        <pt x="299" y="200" on="1"/>
        <pt x="303" y="210" on="0"/>
        <pt x="309" y="220" on="1"/>
        <pt x="318" y="234" on="0"/>
        <pt x="337" y="259" on="0"/>
        <pt x="343" y="273" on="1"/>
        <pt x="349" y="281" on="0"/>
        <pt x="357" y="298" on="0"/>
        <pt x="365" y="305" on="1"/>
        <pt x="367" y="317" on="0"/>
        <pt x="380" y="334" on="0"/>
        <pt x="386" y="343" on="1"/>
        <pt x="388" y="350" on="0"/>
        <pt x="394" y="360" on="0"/>
        <pt x="397" y="366" on="1"/>
        <pt x="390" y="386" on="0"/>
        <pt x="369" y="423" on="0"/>
        <pt x="358" y="441" on="1"/>
        <pt x="355" y="448" on="0"/>
        <pt x="349" y="462" on="0"/>
        <pt x="345" y="467" on="1"/>
      </contour>
    </TTGlyph>
</ttFont>
